%TF.GenerationSoftware,KiCad,Pcbnew,10.0.3*%
%TF.CreationDate,2026-09-21T19:48:30-04:00*%
%TF.ProjectId,camCAD_fourLayer_v2,63616d43-4144-45f6-966f-75724c617965,vSep26*%
%TF.SameCoordinates,Original*%
%TF.FileFunction,Legend,Top*%
%TF.FilePolarity,Positive*%
%FSLAX46Y46*%
G04 Gerber Fmt 4.6, Leading zero omitted, Abs format (unit mm)*
G04 Created by KiCad (PCBNEW 10.0.3) date 2026-09-21 19:48:30*
%MOMM*%
%LPD*%
G01*
G04 APERTURE LIST*
%ADD10C,0.100000*%
%ADD11C,0.150000*%
%ADD12C,0.120000*%
%ADD13C,0.127000*%
%ADD14C,0.200000*%
%ADD15C,0.152400*%
%ADD16C,0.000000*%
G04 APERTURE END LIST*
D10*
X68815693Y-62386438D02*
X68720455Y-62338819D01*
X68720455Y-62338819D02*
X68577598Y-62338819D01*
X68577598Y-62338819D02*
X68434741Y-62386438D01*
X68434741Y-62386438D02*
X68339503Y-62481676D01*
X68339503Y-62481676D02*
X68291884Y-62576914D01*
X68291884Y-62576914D02*
X68244265Y-62767390D01*
X68244265Y-62767390D02*
X68244265Y-62910247D01*
X68244265Y-62910247D02*
X68291884Y-63100723D01*
X68291884Y-63100723D02*
X68339503Y-63195961D01*
X68339503Y-63195961D02*
X68434741Y-63291200D01*
X68434741Y-63291200D02*
X68577598Y-63338819D01*
X68577598Y-63338819D02*
X68672836Y-63338819D01*
X68672836Y-63338819D02*
X68815693Y-63291200D01*
X68815693Y-63291200D02*
X68863312Y-63243580D01*
X68863312Y-63243580D02*
X68863312Y-62910247D01*
X68863312Y-62910247D02*
X68672836Y-62910247D01*
X69291884Y-63338819D02*
X69291884Y-62338819D01*
X69291884Y-62338819D02*
X69863312Y-63338819D01*
X69863312Y-63338819D02*
X69863312Y-62338819D01*
X70339503Y-63338819D02*
X70339503Y-62338819D01*
X70339503Y-62338819D02*
X70577598Y-62338819D01*
X70577598Y-62338819D02*
X70720455Y-62386438D01*
X70720455Y-62386438D02*
X70815693Y-62481676D01*
X70815693Y-62481676D02*
X70863312Y-62576914D01*
X70863312Y-62576914D02*
X70910931Y-62767390D01*
X70910931Y-62767390D02*
X70910931Y-62910247D01*
X70910931Y-62910247D02*
X70863312Y-63100723D01*
X70863312Y-63100723D02*
X70815693Y-63195961D01*
X70815693Y-63195961D02*
X70720455Y-63291200D01*
X70720455Y-63291200D02*
X70577598Y-63338819D01*
X70577598Y-63338819D02*
X70339503Y-63338819D01*
X68472865Y-70962000D02*
X68615722Y-71009619D01*
X68615722Y-71009619D02*
X68853817Y-71009619D01*
X68853817Y-71009619D02*
X68949055Y-70962000D01*
X68949055Y-70962000D02*
X68996674Y-70914380D01*
X68996674Y-70914380D02*
X69044293Y-70819142D01*
X69044293Y-70819142D02*
X69044293Y-70723904D01*
X69044293Y-70723904D02*
X68996674Y-70628666D01*
X68996674Y-70628666D02*
X68949055Y-70581047D01*
X68949055Y-70581047D02*
X68853817Y-70533428D01*
X68853817Y-70533428D02*
X68663341Y-70485809D01*
X68663341Y-70485809D02*
X68568103Y-70438190D01*
X68568103Y-70438190D02*
X68520484Y-70390571D01*
X68520484Y-70390571D02*
X68472865Y-70295333D01*
X68472865Y-70295333D02*
X68472865Y-70200095D01*
X68472865Y-70200095D02*
X68520484Y-70104857D01*
X68520484Y-70104857D02*
X68568103Y-70057238D01*
X68568103Y-70057238D02*
X68663341Y-70009619D01*
X68663341Y-70009619D02*
X68901436Y-70009619D01*
X68901436Y-70009619D02*
X69044293Y-70057238D01*
X69377627Y-70009619D02*
X69615722Y-71009619D01*
X69615722Y-71009619D02*
X69806198Y-70295333D01*
X69806198Y-70295333D02*
X69996674Y-71009619D01*
X69996674Y-71009619D02*
X70234770Y-70009619D01*
X71187150Y-70914380D02*
X71139531Y-70962000D01*
X71139531Y-70962000D02*
X70996674Y-71009619D01*
X70996674Y-71009619D02*
X70901436Y-71009619D01*
X70901436Y-71009619D02*
X70758579Y-70962000D01*
X70758579Y-70962000D02*
X70663341Y-70866761D01*
X70663341Y-70866761D02*
X70615722Y-70771523D01*
X70615722Y-70771523D02*
X70568103Y-70581047D01*
X70568103Y-70581047D02*
X70568103Y-70438190D01*
X70568103Y-70438190D02*
X70615722Y-70247714D01*
X70615722Y-70247714D02*
X70663341Y-70152476D01*
X70663341Y-70152476D02*
X70758579Y-70057238D01*
X70758579Y-70057238D02*
X70901436Y-70009619D01*
X70901436Y-70009619D02*
X70996674Y-70009619D01*
X70996674Y-70009619D02*
X71139531Y-70057238D01*
X71139531Y-70057238D02*
X71187150Y-70104857D01*
X72091912Y-71009619D02*
X71615722Y-71009619D01*
X71615722Y-71009619D02*
X71615722Y-70009619D01*
X72425246Y-71009619D02*
X72425246Y-70009619D01*
X72996674Y-71009619D02*
X72568103Y-70438190D01*
X72996674Y-70009619D02*
X72425246Y-70581047D01*
X68498265Y-68244200D02*
X68641122Y-68291819D01*
X68641122Y-68291819D02*
X68879217Y-68291819D01*
X68879217Y-68291819D02*
X68974455Y-68244200D01*
X68974455Y-68244200D02*
X69022074Y-68196580D01*
X69022074Y-68196580D02*
X69069693Y-68101342D01*
X69069693Y-68101342D02*
X69069693Y-68006104D01*
X69069693Y-68006104D02*
X69022074Y-67910866D01*
X69022074Y-67910866D02*
X68974455Y-67863247D01*
X68974455Y-67863247D02*
X68879217Y-67815628D01*
X68879217Y-67815628D02*
X68688741Y-67768009D01*
X68688741Y-67768009D02*
X68593503Y-67720390D01*
X68593503Y-67720390D02*
X68545884Y-67672771D01*
X68545884Y-67672771D02*
X68498265Y-67577533D01*
X68498265Y-67577533D02*
X68498265Y-67482295D01*
X68498265Y-67482295D02*
X68545884Y-67387057D01*
X68545884Y-67387057D02*
X68593503Y-67339438D01*
X68593503Y-67339438D02*
X68688741Y-67291819D01*
X68688741Y-67291819D02*
X68926836Y-67291819D01*
X68926836Y-67291819D02*
X69069693Y-67339438D01*
X69403027Y-67291819D02*
X69641122Y-68291819D01*
X69641122Y-68291819D02*
X69831598Y-67577533D01*
X69831598Y-67577533D02*
X70022074Y-68291819D01*
X70022074Y-68291819D02*
X70260170Y-67291819D01*
X70831598Y-67291819D02*
X71022074Y-67291819D01*
X71022074Y-67291819D02*
X71117312Y-67339438D01*
X71117312Y-67339438D02*
X71212550Y-67434676D01*
X71212550Y-67434676D02*
X71260169Y-67625152D01*
X71260169Y-67625152D02*
X71260169Y-67958485D01*
X71260169Y-67958485D02*
X71212550Y-68148961D01*
X71212550Y-68148961D02*
X71117312Y-68244200D01*
X71117312Y-68244200D02*
X71022074Y-68291819D01*
X71022074Y-68291819D02*
X70831598Y-68291819D01*
X70831598Y-68291819D02*
X70736360Y-68244200D01*
X70736360Y-68244200D02*
X70641122Y-68148961D01*
X70641122Y-68148961D02*
X70593503Y-67958485D01*
X70593503Y-67958485D02*
X70593503Y-67625152D01*
X70593503Y-67625152D02*
X70641122Y-67434676D01*
X70641122Y-67434676D02*
X70736360Y-67339438D01*
X70736360Y-67339438D02*
X70831598Y-67291819D01*
X68498265Y-73248000D02*
X68641122Y-73295619D01*
X68641122Y-73295619D02*
X68879217Y-73295619D01*
X68879217Y-73295619D02*
X68974455Y-73248000D01*
X68974455Y-73248000D02*
X69022074Y-73200380D01*
X69022074Y-73200380D02*
X69069693Y-73105142D01*
X69069693Y-73105142D02*
X69069693Y-73009904D01*
X69069693Y-73009904D02*
X69022074Y-72914666D01*
X69022074Y-72914666D02*
X68974455Y-72867047D01*
X68974455Y-72867047D02*
X68879217Y-72819428D01*
X68879217Y-72819428D02*
X68688741Y-72771809D01*
X68688741Y-72771809D02*
X68593503Y-72724190D01*
X68593503Y-72724190D02*
X68545884Y-72676571D01*
X68545884Y-72676571D02*
X68498265Y-72581333D01*
X68498265Y-72581333D02*
X68498265Y-72486095D01*
X68498265Y-72486095D02*
X68545884Y-72390857D01*
X68545884Y-72390857D02*
X68593503Y-72343238D01*
X68593503Y-72343238D02*
X68688741Y-72295619D01*
X68688741Y-72295619D02*
X68926836Y-72295619D01*
X68926836Y-72295619D02*
X69069693Y-72343238D01*
X69403027Y-72295619D02*
X69641122Y-73295619D01*
X69641122Y-73295619D02*
X69831598Y-72581333D01*
X69831598Y-72581333D02*
X70022074Y-73295619D01*
X70022074Y-73295619D02*
X70260170Y-72295619D01*
X70641122Y-73295619D02*
X70641122Y-72295619D01*
X70641122Y-72295619D02*
X70879217Y-72295619D01*
X70879217Y-72295619D02*
X71022074Y-72343238D01*
X71022074Y-72343238D02*
X71117312Y-72438476D01*
X71117312Y-72438476D02*
X71164931Y-72533714D01*
X71164931Y-72533714D02*
X71212550Y-72724190D01*
X71212550Y-72724190D02*
X71212550Y-72867047D01*
X71212550Y-72867047D02*
X71164931Y-73057523D01*
X71164931Y-73057523D02*
X71117312Y-73152761D01*
X71117312Y-73152761D02*
X71022074Y-73248000D01*
X71022074Y-73248000D02*
X70879217Y-73295619D01*
X70879217Y-73295619D02*
X70641122Y-73295619D01*
X71641122Y-73295619D02*
X71641122Y-72295619D01*
X72307788Y-72295619D02*
X72498264Y-72295619D01*
X72498264Y-72295619D02*
X72593502Y-72343238D01*
X72593502Y-72343238D02*
X72688740Y-72438476D01*
X72688740Y-72438476D02*
X72736359Y-72628952D01*
X72736359Y-72628952D02*
X72736359Y-72962285D01*
X72736359Y-72962285D02*
X72688740Y-73152761D01*
X72688740Y-73152761D02*
X72593502Y-73248000D01*
X72593502Y-73248000D02*
X72498264Y-73295619D01*
X72498264Y-73295619D02*
X72307788Y-73295619D01*
X72307788Y-73295619D02*
X72212550Y-73248000D01*
X72212550Y-73248000D02*
X72117312Y-73152761D01*
X72117312Y-73152761D02*
X72069693Y-72962285D01*
X72069693Y-72962285D02*
X72069693Y-72628952D01*
X72069693Y-72628952D02*
X72117312Y-72438476D01*
X72117312Y-72438476D02*
X72212550Y-72343238D01*
X72212550Y-72343238D02*
X72307788Y-72295619D01*
X68428427Y-64955019D02*
X68761760Y-65955019D01*
X68761760Y-65955019D02*
X69095093Y-64955019D01*
X69999855Y-65859780D02*
X69952236Y-65907400D01*
X69952236Y-65907400D02*
X69809379Y-65955019D01*
X69809379Y-65955019D02*
X69714141Y-65955019D01*
X69714141Y-65955019D02*
X69571284Y-65907400D01*
X69571284Y-65907400D02*
X69476046Y-65812161D01*
X69476046Y-65812161D02*
X69428427Y-65716923D01*
X69428427Y-65716923D02*
X69380808Y-65526447D01*
X69380808Y-65526447D02*
X69380808Y-65383590D01*
X69380808Y-65383590D02*
X69428427Y-65193114D01*
X69428427Y-65193114D02*
X69476046Y-65097876D01*
X69476046Y-65097876D02*
X69571284Y-65002638D01*
X69571284Y-65002638D02*
X69714141Y-64955019D01*
X69714141Y-64955019D02*
X69809379Y-64955019D01*
X69809379Y-64955019D02*
X69952236Y-65002638D01*
X69952236Y-65002638D02*
X69999855Y-65050257D01*
X70999855Y-65859780D02*
X70952236Y-65907400D01*
X70952236Y-65907400D02*
X70809379Y-65955019D01*
X70809379Y-65955019D02*
X70714141Y-65955019D01*
X70714141Y-65955019D02*
X70571284Y-65907400D01*
X70571284Y-65907400D02*
X70476046Y-65812161D01*
X70476046Y-65812161D02*
X70428427Y-65716923D01*
X70428427Y-65716923D02*
X70380808Y-65526447D01*
X70380808Y-65526447D02*
X70380808Y-65383590D01*
X70380808Y-65383590D02*
X70428427Y-65193114D01*
X70428427Y-65193114D02*
X70476046Y-65097876D01*
X70476046Y-65097876D02*
X70571284Y-65002638D01*
X70571284Y-65002638D02*
X70714141Y-64955019D01*
X70714141Y-64955019D02*
X70809379Y-64955019D01*
X70809379Y-64955019D02*
X70952236Y-65002638D01*
X70952236Y-65002638D02*
X70999855Y-65050257D01*
X74781512Y-62932419D02*
X74448179Y-62456228D01*
X74210084Y-62932419D02*
X74210084Y-61932419D01*
X74210084Y-61932419D02*
X74591036Y-61932419D01*
X74591036Y-61932419D02*
X74686274Y-61980038D01*
X74686274Y-61980038D02*
X74733893Y-62027657D01*
X74733893Y-62027657D02*
X74781512Y-62122895D01*
X74781512Y-62122895D02*
X74781512Y-62265752D01*
X74781512Y-62265752D02*
X74733893Y-62360990D01*
X74733893Y-62360990D02*
X74686274Y-62408609D01*
X74686274Y-62408609D02*
X74591036Y-62456228D01*
X74591036Y-62456228D02*
X74210084Y-62456228D01*
X75162465Y-62884800D02*
X75305322Y-62932419D01*
X75305322Y-62932419D02*
X75543417Y-62932419D01*
X75543417Y-62932419D02*
X75638655Y-62884800D01*
X75638655Y-62884800D02*
X75686274Y-62837180D01*
X75686274Y-62837180D02*
X75733893Y-62741942D01*
X75733893Y-62741942D02*
X75733893Y-62646704D01*
X75733893Y-62646704D02*
X75686274Y-62551466D01*
X75686274Y-62551466D02*
X75638655Y-62503847D01*
X75638655Y-62503847D02*
X75543417Y-62456228D01*
X75543417Y-62456228D02*
X75352941Y-62408609D01*
X75352941Y-62408609D02*
X75257703Y-62360990D01*
X75257703Y-62360990D02*
X75210084Y-62313371D01*
X75210084Y-62313371D02*
X75162465Y-62218133D01*
X75162465Y-62218133D02*
X75162465Y-62122895D01*
X75162465Y-62122895D02*
X75210084Y-62027657D01*
X75210084Y-62027657D02*
X75257703Y-61980038D01*
X75257703Y-61980038D02*
X75352941Y-61932419D01*
X75352941Y-61932419D02*
X75591036Y-61932419D01*
X75591036Y-61932419D02*
X75733893Y-61980038D01*
X76019608Y-61932419D02*
X76591036Y-61932419D01*
X76305322Y-62932419D02*
X76305322Y-61932419D01*
X99203589Y-66558352D02*
X98441684Y-66844066D01*
X98441684Y-66844066D02*
X99203589Y-67129780D01*
X99679779Y-66844066D02*
X100441684Y-66844066D01*
X98686141Y-75826219D02*
X98686141Y-76064314D01*
X98448046Y-75969076D02*
X98686141Y-76064314D01*
X98686141Y-76064314D02*
X98924236Y-75969076D01*
X98543284Y-76254790D02*
X98686141Y-76064314D01*
X98686141Y-76064314D02*
X98828998Y-76254790D01*
X100019474Y-75778600D02*
X99162332Y-77064314D01*
X100257570Y-76826219D02*
X100781379Y-76159552D01*
X100257570Y-76159552D02*
X100781379Y-76826219D01*
X104725027Y-76073857D02*
X104915503Y-75931000D01*
X104915503Y-75931000D02*
X105105979Y-76073857D01*
X105439313Y-76597666D02*
X106201218Y-76597666D01*
X106677408Y-76883380D02*
X106725027Y-76931000D01*
X106725027Y-76931000D02*
X106677408Y-76978619D01*
X106677408Y-76978619D02*
X106629789Y-76931000D01*
X106629789Y-76931000D02*
X106677408Y-76883380D01*
X106677408Y-76883380D02*
X106677408Y-76978619D01*
X107153598Y-76597666D02*
X107915503Y-76597666D01*
X108248836Y-76073857D02*
X108439312Y-75931000D01*
X108439312Y-75931000D02*
X108629788Y-76073857D01*
X105833084Y-66844066D02*
X106594989Y-66844066D01*
X107071179Y-66558352D02*
X107833084Y-66844066D01*
X107833084Y-66844066D02*
X107071179Y-67129780D01*
X45819580Y-69474487D02*
X45867200Y-69522106D01*
X45867200Y-69522106D02*
X45914819Y-69664963D01*
X45914819Y-69664963D02*
X45914819Y-69760201D01*
X45914819Y-69760201D02*
X45867200Y-69903058D01*
X45867200Y-69903058D02*
X45771961Y-69998296D01*
X45771961Y-69998296D02*
X45676723Y-70045915D01*
X45676723Y-70045915D02*
X45486247Y-70093534D01*
X45486247Y-70093534D02*
X45343390Y-70093534D01*
X45343390Y-70093534D02*
X45152914Y-70045915D01*
X45152914Y-70045915D02*
X45057676Y-69998296D01*
X45057676Y-69998296D02*
X44962438Y-69903058D01*
X44962438Y-69903058D02*
X44914819Y-69760201D01*
X44914819Y-69760201D02*
X44914819Y-69664963D01*
X44914819Y-69664963D02*
X44962438Y-69522106D01*
X44962438Y-69522106D02*
X45010057Y-69474487D01*
X45914819Y-69045915D02*
X44914819Y-69045915D01*
X45391009Y-69045915D02*
X45391009Y-68474487D01*
X45914819Y-68474487D02*
X44914819Y-68474487D01*
X44962438Y-67474487D02*
X44914819Y-67569725D01*
X44914819Y-67569725D02*
X44914819Y-67712582D01*
X44914819Y-67712582D02*
X44962438Y-67855439D01*
X44962438Y-67855439D02*
X45057676Y-67950677D01*
X45057676Y-67950677D02*
X45152914Y-67998296D01*
X45152914Y-67998296D02*
X45343390Y-68045915D01*
X45343390Y-68045915D02*
X45486247Y-68045915D01*
X45486247Y-68045915D02*
X45676723Y-67998296D01*
X45676723Y-67998296D02*
X45771961Y-67950677D01*
X45771961Y-67950677D02*
X45867200Y-67855439D01*
X45867200Y-67855439D02*
X45914819Y-67712582D01*
X45914819Y-67712582D02*
X45914819Y-67617344D01*
X45914819Y-67617344D02*
X45867200Y-67474487D01*
X45867200Y-67474487D02*
X45819580Y-67426868D01*
X45819580Y-67426868D02*
X45486247Y-67426868D01*
X45486247Y-67426868D02*
X45486247Y-67617344D01*
X45940219Y-73627315D02*
X44940219Y-73627315D01*
X44940219Y-73627315D02*
X44940219Y-73246363D01*
X44940219Y-73246363D02*
X44987838Y-73151125D01*
X44987838Y-73151125D02*
X45035457Y-73103506D01*
X45035457Y-73103506D02*
X45130695Y-73055887D01*
X45130695Y-73055887D02*
X45273552Y-73055887D01*
X45273552Y-73055887D02*
X45368790Y-73103506D01*
X45368790Y-73103506D02*
X45416409Y-73151125D01*
X45416409Y-73151125D02*
X45464028Y-73246363D01*
X45464028Y-73246363D02*
X45464028Y-73627315D01*
X44940219Y-72722553D02*
X45940219Y-72484458D01*
X45940219Y-72484458D02*
X45225933Y-72293982D01*
X45225933Y-72293982D02*
X45940219Y-72103506D01*
X45940219Y-72103506D02*
X44940219Y-71865411D01*
X45940219Y-70913030D02*
X45464028Y-71246363D01*
X45940219Y-71484458D02*
X44940219Y-71484458D01*
X44940219Y-71484458D02*
X44940219Y-71103506D01*
X44940219Y-71103506D02*
X44987838Y-71008268D01*
X44987838Y-71008268D02*
X45035457Y-70960649D01*
X45035457Y-70960649D02*
X45130695Y-70913030D01*
X45130695Y-70913030D02*
X45273552Y-70913030D01*
X45273552Y-70913030D02*
X45368790Y-70960649D01*
X45368790Y-70960649D02*
X45416409Y-71008268D01*
X45416409Y-71008268D02*
X45464028Y-71103506D01*
X45464028Y-71103506D02*
X45464028Y-71484458D01*
D11*
X99412742Y-36945180D02*
X99365123Y-36992800D01*
X99365123Y-36992800D02*
X99222266Y-37040419D01*
X99222266Y-37040419D02*
X99127028Y-37040419D01*
X99127028Y-37040419D02*
X98984171Y-36992800D01*
X98984171Y-36992800D02*
X98888933Y-36897561D01*
X98888933Y-36897561D02*
X98841314Y-36802323D01*
X98841314Y-36802323D02*
X98793695Y-36611847D01*
X98793695Y-36611847D02*
X98793695Y-36468990D01*
X98793695Y-36468990D02*
X98841314Y-36278514D01*
X98841314Y-36278514D02*
X98888933Y-36183276D01*
X98888933Y-36183276D02*
X98984171Y-36088038D01*
X98984171Y-36088038D02*
X99127028Y-36040419D01*
X99127028Y-36040419D02*
X99222266Y-36040419D01*
X99222266Y-36040419D02*
X99365123Y-36088038D01*
X99365123Y-36088038D02*
X99412742Y-36135657D01*
X100365123Y-37040419D02*
X99793695Y-37040419D01*
X100079409Y-37040419D02*
X100079409Y-36040419D01*
X100079409Y-36040419D02*
X99984171Y-36183276D01*
X99984171Y-36183276D02*
X99888933Y-36278514D01*
X99888933Y-36278514D02*
X99793695Y-36326133D01*
X101222266Y-36040419D02*
X101031790Y-36040419D01*
X101031790Y-36040419D02*
X100936552Y-36088038D01*
X100936552Y-36088038D02*
X100888933Y-36135657D01*
X100888933Y-36135657D02*
X100793695Y-36278514D01*
X100793695Y-36278514D02*
X100746076Y-36468990D01*
X100746076Y-36468990D02*
X100746076Y-36849942D01*
X100746076Y-36849942D02*
X100793695Y-36945180D01*
X100793695Y-36945180D02*
X100841314Y-36992800D01*
X100841314Y-36992800D02*
X100936552Y-37040419D01*
X100936552Y-37040419D02*
X101127028Y-37040419D01*
X101127028Y-37040419D02*
X101222266Y-36992800D01*
X101222266Y-36992800D02*
X101269885Y-36945180D01*
X101269885Y-36945180D02*
X101317504Y-36849942D01*
X101317504Y-36849942D02*
X101317504Y-36611847D01*
X101317504Y-36611847D02*
X101269885Y-36516609D01*
X101269885Y-36516609D02*
X101222266Y-36468990D01*
X101222266Y-36468990D02*
X101127028Y-36421371D01*
X101127028Y-36421371D02*
X100936552Y-36421371D01*
X100936552Y-36421371D02*
X100841314Y-36468990D01*
X100841314Y-36468990D02*
X100793695Y-36516609D01*
X100793695Y-36516609D02*
X100746076Y-36611847D01*
X96095242Y-39886980D02*
X96047623Y-39934600D01*
X96047623Y-39934600D02*
X95904766Y-39982219D01*
X95904766Y-39982219D02*
X95809528Y-39982219D01*
X95809528Y-39982219D02*
X95666671Y-39934600D01*
X95666671Y-39934600D02*
X95571433Y-39839361D01*
X95571433Y-39839361D02*
X95523814Y-39744123D01*
X95523814Y-39744123D02*
X95476195Y-39553647D01*
X95476195Y-39553647D02*
X95476195Y-39410790D01*
X95476195Y-39410790D02*
X95523814Y-39220314D01*
X95523814Y-39220314D02*
X95571433Y-39125076D01*
X95571433Y-39125076D02*
X95666671Y-39029838D01*
X95666671Y-39029838D02*
X95809528Y-38982219D01*
X95809528Y-38982219D02*
X95904766Y-38982219D01*
X95904766Y-38982219D02*
X96047623Y-39029838D01*
X96047623Y-39029838D02*
X96095242Y-39077457D01*
X96476195Y-39077457D02*
X96523814Y-39029838D01*
X96523814Y-39029838D02*
X96619052Y-38982219D01*
X96619052Y-38982219D02*
X96857147Y-38982219D01*
X96857147Y-38982219D02*
X96952385Y-39029838D01*
X96952385Y-39029838D02*
X97000004Y-39077457D01*
X97000004Y-39077457D02*
X97047623Y-39172695D01*
X97047623Y-39172695D02*
X97047623Y-39267933D01*
X97047623Y-39267933D02*
X97000004Y-39410790D01*
X97000004Y-39410790D02*
X96428576Y-39982219D01*
X96428576Y-39982219D02*
X97047623Y-39982219D01*
X97428576Y-39077457D02*
X97476195Y-39029838D01*
X97476195Y-39029838D02*
X97571433Y-38982219D01*
X97571433Y-38982219D02*
X97809528Y-38982219D01*
X97809528Y-38982219D02*
X97904766Y-39029838D01*
X97904766Y-39029838D02*
X97952385Y-39077457D01*
X97952385Y-39077457D02*
X98000004Y-39172695D01*
X98000004Y-39172695D02*
X98000004Y-39267933D01*
X98000004Y-39267933D02*
X97952385Y-39410790D01*
X97952385Y-39410790D02*
X97380957Y-39982219D01*
X97380957Y-39982219D02*
X98000004Y-39982219D01*
X41272519Y-69661557D02*
X40796328Y-69994890D01*
X41272519Y-70232985D02*
X40272519Y-70232985D01*
X40272519Y-70232985D02*
X40272519Y-69852033D01*
X40272519Y-69852033D02*
X40320138Y-69756795D01*
X40320138Y-69756795D02*
X40367757Y-69709176D01*
X40367757Y-69709176D02*
X40462995Y-69661557D01*
X40462995Y-69661557D02*
X40605852Y-69661557D01*
X40605852Y-69661557D02*
X40701090Y-69709176D01*
X40701090Y-69709176D02*
X40748709Y-69756795D01*
X40748709Y-69756795D02*
X40796328Y-69852033D01*
X40796328Y-69852033D02*
X40796328Y-70232985D01*
X41272519Y-68709176D02*
X41272519Y-69280604D01*
X41272519Y-68994890D02*
X40272519Y-68994890D01*
X40272519Y-68994890D02*
X40415376Y-69090128D01*
X40415376Y-69090128D02*
X40510614Y-69185366D01*
X40510614Y-69185366D02*
X40558233Y-69280604D01*
X40367757Y-68328223D02*
X40320138Y-68280604D01*
X40320138Y-68280604D02*
X40272519Y-68185366D01*
X40272519Y-68185366D02*
X40272519Y-67947271D01*
X40272519Y-67947271D02*
X40320138Y-67852033D01*
X40320138Y-67852033D02*
X40367757Y-67804414D01*
X40367757Y-67804414D02*
X40462995Y-67756795D01*
X40462995Y-67756795D02*
X40558233Y-67756795D01*
X40558233Y-67756795D02*
X40701090Y-67804414D01*
X40701090Y-67804414D02*
X41272519Y-68375842D01*
X41272519Y-68375842D02*
X41272519Y-67756795D01*
X66242142Y-51889219D02*
X65908809Y-51413028D01*
X65670714Y-51889219D02*
X65670714Y-50889219D01*
X65670714Y-50889219D02*
X66051666Y-50889219D01*
X66051666Y-50889219D02*
X66146904Y-50936838D01*
X66146904Y-50936838D02*
X66194523Y-50984457D01*
X66194523Y-50984457D02*
X66242142Y-51079695D01*
X66242142Y-51079695D02*
X66242142Y-51222552D01*
X66242142Y-51222552D02*
X66194523Y-51317790D01*
X66194523Y-51317790D02*
X66146904Y-51365409D01*
X66146904Y-51365409D02*
X66051666Y-51413028D01*
X66051666Y-51413028D02*
X65670714Y-51413028D01*
X67194523Y-51889219D02*
X66623095Y-51889219D01*
X66908809Y-51889219D02*
X66908809Y-50889219D01*
X66908809Y-50889219D02*
X66813571Y-51032076D01*
X66813571Y-51032076D02*
X66718333Y-51127314D01*
X66718333Y-51127314D02*
X66623095Y-51174933D01*
X67527857Y-50889219D02*
X68194523Y-50889219D01*
X68194523Y-50889219D02*
X67765952Y-51889219D01*
X49097043Y-31586318D02*
X48763710Y-31110127D01*
X48525615Y-31586318D02*
X48525615Y-30586318D01*
X48525615Y-30586318D02*
X48906567Y-30586318D01*
X48906567Y-30586318D02*
X49001805Y-30633937D01*
X49001805Y-30633937D02*
X49049424Y-30681556D01*
X49049424Y-30681556D02*
X49097043Y-30776794D01*
X49097043Y-30776794D02*
X49097043Y-30919651D01*
X49097043Y-30919651D02*
X49049424Y-31014889D01*
X49049424Y-31014889D02*
X49001805Y-31062508D01*
X49001805Y-31062508D02*
X48906567Y-31110127D01*
X48906567Y-31110127D02*
X48525615Y-31110127D01*
X50049424Y-31586318D02*
X49477996Y-31586318D01*
X49763710Y-31586318D02*
X49763710Y-30586318D01*
X49763710Y-30586318D02*
X49668472Y-30729175D01*
X49668472Y-30729175D02*
X49573234Y-30824413D01*
X49573234Y-30824413D02*
X49477996Y-30872032D01*
X51001805Y-31586318D02*
X50430377Y-31586318D01*
X50716091Y-31586318D02*
X50716091Y-30586318D01*
X50716091Y-30586318D02*
X50620853Y-30729175D01*
X50620853Y-30729175D02*
X50525615Y-30824413D01*
X50525615Y-30824413D02*
X50430377Y-30872032D01*
X74020667Y-65448400D02*
X74163524Y-65496019D01*
X74163524Y-65496019D02*
X74401619Y-65496019D01*
X74401619Y-65496019D02*
X74496857Y-65448400D01*
X74496857Y-65448400D02*
X74544476Y-65400780D01*
X74544476Y-65400780D02*
X74592095Y-65305542D01*
X74592095Y-65305542D02*
X74592095Y-65210304D01*
X74592095Y-65210304D02*
X74544476Y-65115066D01*
X74544476Y-65115066D02*
X74496857Y-65067447D01*
X74496857Y-65067447D02*
X74401619Y-65019828D01*
X74401619Y-65019828D02*
X74211143Y-64972209D01*
X74211143Y-64972209D02*
X74115905Y-64924590D01*
X74115905Y-64924590D02*
X74068286Y-64876971D01*
X74068286Y-64876971D02*
X74020667Y-64781733D01*
X74020667Y-64781733D02*
X74020667Y-64686495D01*
X74020667Y-64686495D02*
X74068286Y-64591257D01*
X74068286Y-64591257D02*
X74115905Y-64543638D01*
X74115905Y-64543638D02*
X74211143Y-64496019D01*
X74211143Y-64496019D02*
X74449238Y-64496019D01*
X74449238Y-64496019D02*
X74592095Y-64543638D01*
X74925429Y-64496019D02*
X75163524Y-65496019D01*
X75163524Y-65496019D02*
X75354000Y-64781733D01*
X75354000Y-64781733D02*
X75544476Y-65496019D01*
X75544476Y-65496019D02*
X75782572Y-64496019D01*
X76687333Y-65496019D02*
X76115905Y-65496019D01*
X76401619Y-65496019D02*
X76401619Y-64496019D01*
X76401619Y-64496019D02*
X76306381Y-64638876D01*
X76306381Y-64638876D02*
X76211143Y-64734114D01*
X76211143Y-64734114D02*
X76115905Y-64781733D01*
X105245067Y-69901600D02*
X105387924Y-69949219D01*
X105387924Y-69949219D02*
X105626019Y-69949219D01*
X105626019Y-69949219D02*
X105721257Y-69901600D01*
X105721257Y-69901600D02*
X105768876Y-69853980D01*
X105768876Y-69853980D02*
X105816495Y-69758742D01*
X105816495Y-69758742D02*
X105816495Y-69663504D01*
X105816495Y-69663504D02*
X105768876Y-69568266D01*
X105768876Y-69568266D02*
X105721257Y-69520647D01*
X105721257Y-69520647D02*
X105626019Y-69473028D01*
X105626019Y-69473028D02*
X105435543Y-69425409D01*
X105435543Y-69425409D02*
X105340305Y-69377790D01*
X105340305Y-69377790D02*
X105292686Y-69330171D01*
X105292686Y-69330171D02*
X105245067Y-69234933D01*
X105245067Y-69234933D02*
X105245067Y-69139695D01*
X105245067Y-69139695D02*
X105292686Y-69044457D01*
X105292686Y-69044457D02*
X105340305Y-68996838D01*
X105340305Y-68996838D02*
X105435543Y-68949219D01*
X105435543Y-68949219D02*
X105673638Y-68949219D01*
X105673638Y-68949219D02*
X105816495Y-68996838D01*
X106149829Y-68949219D02*
X106387924Y-69949219D01*
X106387924Y-69949219D02*
X106578400Y-69234933D01*
X106578400Y-69234933D02*
X106768876Y-69949219D01*
X106768876Y-69949219D02*
X107006972Y-68949219D01*
X107292686Y-68949219D02*
X107911733Y-68949219D01*
X107911733Y-68949219D02*
X107578400Y-69330171D01*
X107578400Y-69330171D02*
X107721257Y-69330171D01*
X107721257Y-69330171D02*
X107816495Y-69377790D01*
X107816495Y-69377790D02*
X107864114Y-69425409D01*
X107864114Y-69425409D02*
X107911733Y-69520647D01*
X107911733Y-69520647D02*
X107911733Y-69758742D01*
X107911733Y-69758742D02*
X107864114Y-69853980D01*
X107864114Y-69853980D02*
X107816495Y-69901600D01*
X107816495Y-69901600D02*
X107721257Y-69949219D01*
X107721257Y-69949219D02*
X107435543Y-69949219D01*
X107435543Y-69949219D02*
X107340305Y-69901600D01*
X107340305Y-69901600D02*
X107292686Y-69853980D01*
X96675733Y-47536980D02*
X96628114Y-47584600D01*
X96628114Y-47584600D02*
X96485257Y-47632219D01*
X96485257Y-47632219D02*
X96390019Y-47632219D01*
X96390019Y-47632219D02*
X96247162Y-47584600D01*
X96247162Y-47584600D02*
X96151924Y-47489361D01*
X96151924Y-47489361D02*
X96104305Y-47394123D01*
X96104305Y-47394123D02*
X96056686Y-47203647D01*
X96056686Y-47203647D02*
X96056686Y-47060790D01*
X96056686Y-47060790D02*
X96104305Y-46870314D01*
X96104305Y-46870314D02*
X96151924Y-46775076D01*
X96151924Y-46775076D02*
X96247162Y-46679838D01*
X96247162Y-46679838D02*
X96390019Y-46632219D01*
X96390019Y-46632219D02*
X96485257Y-46632219D01*
X96485257Y-46632219D02*
X96628114Y-46679838D01*
X96628114Y-46679838D02*
X96675733Y-46727457D01*
X97151924Y-47632219D02*
X97342400Y-47632219D01*
X97342400Y-47632219D02*
X97437638Y-47584600D01*
X97437638Y-47584600D02*
X97485257Y-47536980D01*
X97485257Y-47536980D02*
X97580495Y-47394123D01*
X97580495Y-47394123D02*
X97628114Y-47203647D01*
X97628114Y-47203647D02*
X97628114Y-46822695D01*
X97628114Y-46822695D02*
X97580495Y-46727457D01*
X97580495Y-46727457D02*
X97532876Y-46679838D01*
X97532876Y-46679838D02*
X97437638Y-46632219D01*
X97437638Y-46632219D02*
X97247162Y-46632219D01*
X97247162Y-46632219D02*
X97151924Y-46679838D01*
X97151924Y-46679838D02*
X97104305Y-46727457D01*
X97104305Y-46727457D02*
X97056686Y-46822695D01*
X97056686Y-46822695D02*
X97056686Y-47060790D01*
X97056686Y-47060790D02*
X97104305Y-47156028D01*
X97104305Y-47156028D02*
X97151924Y-47203647D01*
X97151924Y-47203647D02*
X97247162Y-47251266D01*
X97247162Y-47251266D02*
X97437638Y-47251266D01*
X97437638Y-47251266D02*
X97532876Y-47203647D01*
X97532876Y-47203647D02*
X97580495Y-47156028D01*
X97580495Y-47156028D02*
X97628114Y-47060790D01*
X82570495Y-47778219D02*
X82570495Y-48587742D01*
X82570495Y-48587742D02*
X82618114Y-48682980D01*
X82618114Y-48682980D02*
X82665733Y-48730600D01*
X82665733Y-48730600D02*
X82760971Y-48778219D01*
X82760971Y-48778219D02*
X82951447Y-48778219D01*
X82951447Y-48778219D02*
X83046685Y-48730600D01*
X83046685Y-48730600D02*
X83094304Y-48682980D01*
X83094304Y-48682980D02*
X83141923Y-48587742D01*
X83141923Y-48587742D02*
X83141923Y-47778219D01*
X83522876Y-47778219D02*
X84141923Y-47778219D01*
X84141923Y-47778219D02*
X83808590Y-48159171D01*
X83808590Y-48159171D02*
X83951447Y-48159171D01*
X83951447Y-48159171D02*
X84046685Y-48206790D01*
X84046685Y-48206790D02*
X84094304Y-48254409D01*
X84094304Y-48254409D02*
X84141923Y-48349647D01*
X84141923Y-48349647D02*
X84141923Y-48587742D01*
X84141923Y-48587742D02*
X84094304Y-48682980D01*
X84094304Y-48682980D02*
X84046685Y-48730600D01*
X84046685Y-48730600D02*
X83951447Y-48778219D01*
X83951447Y-48778219D02*
X83665733Y-48778219D01*
X83665733Y-48778219D02*
X83570495Y-48730600D01*
X83570495Y-48730600D02*
X83522876Y-48682980D01*
X99311142Y-39891580D02*
X99263523Y-39939200D01*
X99263523Y-39939200D02*
X99120666Y-39986819D01*
X99120666Y-39986819D02*
X99025428Y-39986819D01*
X99025428Y-39986819D02*
X98882571Y-39939200D01*
X98882571Y-39939200D02*
X98787333Y-39843961D01*
X98787333Y-39843961D02*
X98739714Y-39748723D01*
X98739714Y-39748723D02*
X98692095Y-39558247D01*
X98692095Y-39558247D02*
X98692095Y-39415390D01*
X98692095Y-39415390D02*
X98739714Y-39224914D01*
X98739714Y-39224914D02*
X98787333Y-39129676D01*
X98787333Y-39129676D02*
X98882571Y-39034438D01*
X98882571Y-39034438D02*
X99025428Y-38986819D01*
X99025428Y-38986819D02*
X99120666Y-38986819D01*
X99120666Y-38986819D02*
X99263523Y-39034438D01*
X99263523Y-39034438D02*
X99311142Y-39082057D01*
X99692095Y-39082057D02*
X99739714Y-39034438D01*
X99739714Y-39034438D02*
X99834952Y-38986819D01*
X99834952Y-38986819D02*
X100073047Y-38986819D01*
X100073047Y-38986819D02*
X100168285Y-39034438D01*
X100168285Y-39034438D02*
X100215904Y-39082057D01*
X100215904Y-39082057D02*
X100263523Y-39177295D01*
X100263523Y-39177295D02*
X100263523Y-39272533D01*
X100263523Y-39272533D02*
X100215904Y-39415390D01*
X100215904Y-39415390D02*
X99644476Y-39986819D01*
X99644476Y-39986819D02*
X100263523Y-39986819D01*
X100596857Y-38986819D02*
X101215904Y-38986819D01*
X101215904Y-38986819D02*
X100882571Y-39367771D01*
X100882571Y-39367771D02*
X101025428Y-39367771D01*
X101025428Y-39367771D02*
X101120666Y-39415390D01*
X101120666Y-39415390D02*
X101168285Y-39463009D01*
X101168285Y-39463009D02*
X101215904Y-39558247D01*
X101215904Y-39558247D02*
X101215904Y-39796342D01*
X101215904Y-39796342D02*
X101168285Y-39891580D01*
X101168285Y-39891580D02*
X101120666Y-39939200D01*
X101120666Y-39939200D02*
X101025428Y-39986819D01*
X101025428Y-39986819D02*
X100739714Y-39986819D01*
X100739714Y-39986819D02*
X100644476Y-39939200D01*
X100644476Y-39939200D02*
X100596857Y-39891580D01*
X45698920Y-24994556D02*
X45222729Y-25327889D01*
X45698920Y-25565984D02*
X44698920Y-25565984D01*
X44698920Y-25565984D02*
X44698920Y-25185032D01*
X44698920Y-25185032D02*
X44746539Y-25089794D01*
X44746539Y-25089794D02*
X44794158Y-25042175D01*
X44794158Y-25042175D02*
X44889396Y-24994556D01*
X44889396Y-24994556D02*
X45032253Y-24994556D01*
X45032253Y-24994556D02*
X45127491Y-25042175D01*
X45127491Y-25042175D02*
X45175110Y-25089794D01*
X45175110Y-25089794D02*
X45222729Y-25185032D01*
X45222729Y-25185032D02*
X45222729Y-25565984D01*
X45698920Y-24042175D02*
X45698920Y-24613603D01*
X45698920Y-24327889D02*
X44698920Y-24327889D01*
X44698920Y-24327889D02*
X44841777Y-24423127D01*
X44841777Y-24423127D02*
X44937015Y-24518365D01*
X44937015Y-24518365D02*
X44984634Y-24613603D01*
X44698920Y-23708841D02*
X44698920Y-23089794D01*
X44698920Y-23089794D02*
X45079872Y-23423127D01*
X45079872Y-23423127D02*
X45079872Y-23280270D01*
X45079872Y-23280270D02*
X45127491Y-23185032D01*
X45127491Y-23185032D02*
X45175110Y-23137413D01*
X45175110Y-23137413D02*
X45270348Y-23089794D01*
X45270348Y-23089794D02*
X45508443Y-23089794D01*
X45508443Y-23089794D02*
X45603681Y-23137413D01*
X45603681Y-23137413D02*
X45651301Y-23185032D01*
X45651301Y-23185032D02*
X45698920Y-23280270D01*
X45698920Y-23280270D02*
X45698920Y-23565984D01*
X45698920Y-23565984D02*
X45651301Y-23661222D01*
X45651301Y-23661222D02*
X45603681Y-23708841D01*
X63700120Y-31560365D02*
X63700120Y-32036555D01*
X63700120Y-32036555D02*
X62700120Y-32036555D01*
X63700120Y-30703222D02*
X63700120Y-31274650D01*
X63700120Y-30988936D02*
X62700120Y-30988936D01*
X62700120Y-30988936D02*
X62842977Y-31084174D01*
X62842977Y-31084174D02*
X62938215Y-31179412D01*
X62938215Y-31179412D02*
X62985834Y-31274650D01*
X105311367Y-74168800D02*
X105454224Y-74216419D01*
X105454224Y-74216419D02*
X105692319Y-74216419D01*
X105692319Y-74216419D02*
X105787557Y-74168800D01*
X105787557Y-74168800D02*
X105835176Y-74121180D01*
X105835176Y-74121180D02*
X105882795Y-74025942D01*
X105882795Y-74025942D02*
X105882795Y-73930704D01*
X105882795Y-73930704D02*
X105835176Y-73835466D01*
X105835176Y-73835466D02*
X105787557Y-73787847D01*
X105787557Y-73787847D02*
X105692319Y-73740228D01*
X105692319Y-73740228D02*
X105501843Y-73692609D01*
X105501843Y-73692609D02*
X105406605Y-73644990D01*
X105406605Y-73644990D02*
X105358986Y-73597371D01*
X105358986Y-73597371D02*
X105311367Y-73502133D01*
X105311367Y-73502133D02*
X105311367Y-73406895D01*
X105311367Y-73406895D02*
X105358986Y-73311657D01*
X105358986Y-73311657D02*
X105406605Y-73264038D01*
X105406605Y-73264038D02*
X105501843Y-73216419D01*
X105501843Y-73216419D02*
X105739938Y-73216419D01*
X105739938Y-73216419D02*
X105882795Y-73264038D01*
X106216129Y-73216419D02*
X106454224Y-74216419D01*
X106454224Y-74216419D02*
X106644700Y-73502133D01*
X106644700Y-73502133D02*
X106835176Y-74216419D01*
X106835176Y-74216419D02*
X107073272Y-73216419D01*
X107406605Y-73311657D02*
X107454224Y-73264038D01*
X107454224Y-73264038D02*
X107549462Y-73216419D01*
X107549462Y-73216419D02*
X107787557Y-73216419D01*
X107787557Y-73216419D02*
X107882795Y-73264038D01*
X107882795Y-73264038D02*
X107930414Y-73311657D01*
X107930414Y-73311657D02*
X107978033Y-73406895D01*
X107978033Y-73406895D02*
X107978033Y-73502133D01*
X107978033Y-73502133D02*
X107930414Y-73644990D01*
X107930414Y-73644990D02*
X107358986Y-74216419D01*
X107358986Y-74216419D02*
X107978033Y-74216419D01*
X67922933Y-46961619D02*
X67589600Y-46485428D01*
X67351505Y-46961619D02*
X67351505Y-45961619D01*
X67351505Y-45961619D02*
X67732457Y-45961619D01*
X67732457Y-45961619D02*
X67827695Y-46009238D01*
X67827695Y-46009238D02*
X67875314Y-46056857D01*
X67875314Y-46056857D02*
X67922933Y-46152095D01*
X67922933Y-46152095D02*
X67922933Y-46294952D01*
X67922933Y-46294952D02*
X67875314Y-46390190D01*
X67875314Y-46390190D02*
X67827695Y-46437809D01*
X67827695Y-46437809D02*
X67732457Y-46485428D01*
X67732457Y-46485428D02*
X67351505Y-46485428D01*
X68256267Y-45961619D02*
X68922933Y-45961619D01*
X68922933Y-45961619D02*
X68494362Y-46961619D01*
X66292942Y-50670019D02*
X65959609Y-50193828D01*
X65721514Y-50670019D02*
X65721514Y-49670019D01*
X65721514Y-49670019D02*
X66102466Y-49670019D01*
X66102466Y-49670019D02*
X66197704Y-49717638D01*
X66197704Y-49717638D02*
X66245323Y-49765257D01*
X66245323Y-49765257D02*
X66292942Y-49860495D01*
X66292942Y-49860495D02*
X66292942Y-50003352D01*
X66292942Y-50003352D02*
X66245323Y-50098590D01*
X66245323Y-50098590D02*
X66197704Y-50146209D01*
X66197704Y-50146209D02*
X66102466Y-50193828D01*
X66102466Y-50193828D02*
X65721514Y-50193828D01*
X67245323Y-50670019D02*
X66673895Y-50670019D01*
X66959609Y-50670019D02*
X66959609Y-49670019D01*
X66959609Y-49670019D02*
X66864371Y-49812876D01*
X66864371Y-49812876D02*
X66769133Y-49908114D01*
X66769133Y-49908114D02*
X66673895Y-49955733D01*
X68102466Y-49670019D02*
X67911990Y-49670019D01*
X67911990Y-49670019D02*
X67816752Y-49717638D01*
X67816752Y-49717638D02*
X67769133Y-49765257D01*
X67769133Y-49765257D02*
X67673895Y-49908114D01*
X67673895Y-49908114D02*
X67626276Y-50098590D01*
X67626276Y-50098590D02*
X67626276Y-50479542D01*
X67626276Y-50479542D02*
X67673895Y-50574780D01*
X67673895Y-50574780D02*
X67721514Y-50622400D01*
X67721514Y-50622400D02*
X67816752Y-50670019D01*
X67816752Y-50670019D02*
X68007228Y-50670019D01*
X68007228Y-50670019D02*
X68102466Y-50622400D01*
X68102466Y-50622400D02*
X68150085Y-50574780D01*
X68150085Y-50574780D02*
X68197704Y-50479542D01*
X68197704Y-50479542D02*
X68197704Y-50241447D01*
X68197704Y-50241447D02*
X68150085Y-50146209D01*
X68150085Y-50146209D02*
X68102466Y-50098590D01*
X68102466Y-50098590D02*
X68007228Y-50050971D01*
X68007228Y-50050971D02*
X67816752Y-50050971D01*
X67816752Y-50050971D02*
X67721514Y-50098590D01*
X67721514Y-50098590D02*
X67673895Y-50146209D01*
X67673895Y-50146209D02*
X67626276Y-50241447D01*
X66153342Y-49400019D02*
X65820009Y-48923828D01*
X65581914Y-49400019D02*
X65581914Y-48400019D01*
X65581914Y-48400019D02*
X65962866Y-48400019D01*
X65962866Y-48400019D02*
X66058104Y-48447638D01*
X66058104Y-48447638D02*
X66105723Y-48495257D01*
X66105723Y-48495257D02*
X66153342Y-48590495D01*
X66153342Y-48590495D02*
X66153342Y-48733352D01*
X66153342Y-48733352D02*
X66105723Y-48828590D01*
X66105723Y-48828590D02*
X66058104Y-48876209D01*
X66058104Y-48876209D02*
X65962866Y-48923828D01*
X65962866Y-48923828D02*
X65581914Y-48923828D01*
X67105723Y-49400019D02*
X66534295Y-49400019D01*
X66820009Y-49400019D02*
X66820009Y-48400019D01*
X66820009Y-48400019D02*
X66724771Y-48542876D01*
X66724771Y-48542876D02*
X66629533Y-48638114D01*
X66629533Y-48638114D02*
X66534295Y-48685733D01*
X68010485Y-48400019D02*
X67534295Y-48400019D01*
X67534295Y-48400019D02*
X67486676Y-48876209D01*
X67486676Y-48876209D02*
X67534295Y-48828590D01*
X67534295Y-48828590D02*
X67629533Y-48780971D01*
X67629533Y-48780971D02*
X67867628Y-48780971D01*
X67867628Y-48780971D02*
X67962866Y-48828590D01*
X67962866Y-48828590D02*
X68010485Y-48876209D01*
X68010485Y-48876209D02*
X68058104Y-48971447D01*
X68058104Y-48971447D02*
X68058104Y-49209542D01*
X68058104Y-49209542D02*
X68010485Y-49304780D01*
X68010485Y-49304780D02*
X67962866Y-49352400D01*
X67962866Y-49352400D02*
X67867628Y-49400019D01*
X67867628Y-49400019D02*
X67629533Y-49400019D01*
X67629533Y-49400019D02*
X67534295Y-49352400D01*
X67534295Y-49352400D02*
X67486676Y-49304780D01*
X95996466Y-36567409D02*
X95663133Y-36567409D01*
X95663133Y-37091219D02*
X95663133Y-36091219D01*
X95663133Y-36091219D02*
X96139323Y-36091219D01*
X96853609Y-36567409D02*
X96996466Y-36615028D01*
X96996466Y-36615028D02*
X97044085Y-36662647D01*
X97044085Y-36662647D02*
X97091704Y-36757885D01*
X97091704Y-36757885D02*
X97091704Y-36900742D01*
X97091704Y-36900742D02*
X97044085Y-36995980D01*
X97044085Y-36995980D02*
X96996466Y-37043600D01*
X96996466Y-37043600D02*
X96901228Y-37091219D01*
X96901228Y-37091219D02*
X96520276Y-37091219D01*
X96520276Y-37091219D02*
X96520276Y-36091219D01*
X96520276Y-36091219D02*
X96853609Y-36091219D01*
X96853609Y-36091219D02*
X96948847Y-36138838D01*
X96948847Y-36138838D02*
X96996466Y-36186457D01*
X96996466Y-36186457D02*
X97044085Y-36281695D01*
X97044085Y-36281695D02*
X97044085Y-36376933D01*
X97044085Y-36376933D02*
X96996466Y-36472171D01*
X96996466Y-36472171D02*
X96948847Y-36519790D01*
X96948847Y-36519790D02*
X96853609Y-36567409D01*
X96853609Y-36567409D02*
X96520276Y-36567409D01*
X98044085Y-37091219D02*
X97472657Y-37091219D01*
X97758371Y-37091219D02*
X97758371Y-36091219D01*
X97758371Y-36091219D02*
X97663133Y-36234076D01*
X97663133Y-36234076D02*
X97567895Y-36329314D01*
X97567895Y-36329314D02*
X97472657Y-36376933D01*
X99234942Y-45504980D02*
X99187323Y-45552600D01*
X99187323Y-45552600D02*
X99044466Y-45600219D01*
X99044466Y-45600219D02*
X98949228Y-45600219D01*
X98949228Y-45600219D02*
X98806371Y-45552600D01*
X98806371Y-45552600D02*
X98711133Y-45457361D01*
X98711133Y-45457361D02*
X98663514Y-45362123D01*
X98663514Y-45362123D02*
X98615895Y-45171647D01*
X98615895Y-45171647D02*
X98615895Y-45028790D01*
X98615895Y-45028790D02*
X98663514Y-44838314D01*
X98663514Y-44838314D02*
X98711133Y-44743076D01*
X98711133Y-44743076D02*
X98806371Y-44647838D01*
X98806371Y-44647838D02*
X98949228Y-44600219D01*
X98949228Y-44600219D02*
X99044466Y-44600219D01*
X99044466Y-44600219D02*
X99187323Y-44647838D01*
X99187323Y-44647838D02*
X99234942Y-44695457D01*
X100187323Y-45600219D02*
X99615895Y-45600219D01*
X99901609Y-45600219D02*
X99901609Y-44600219D01*
X99901609Y-44600219D02*
X99806371Y-44743076D01*
X99806371Y-44743076D02*
X99711133Y-44838314D01*
X99711133Y-44838314D02*
X99615895Y-44885933D01*
X100663514Y-45600219D02*
X100853990Y-45600219D01*
X100853990Y-45600219D02*
X100949228Y-45552600D01*
X100949228Y-45552600D02*
X100996847Y-45504980D01*
X100996847Y-45504980D02*
X101092085Y-45362123D01*
X101092085Y-45362123D02*
X101139704Y-45171647D01*
X101139704Y-45171647D02*
X101139704Y-44790695D01*
X101139704Y-44790695D02*
X101092085Y-44695457D01*
X101092085Y-44695457D02*
X101044466Y-44647838D01*
X101044466Y-44647838D02*
X100949228Y-44600219D01*
X100949228Y-44600219D02*
X100758752Y-44600219D01*
X100758752Y-44600219D02*
X100663514Y-44647838D01*
X100663514Y-44647838D02*
X100615895Y-44695457D01*
X100615895Y-44695457D02*
X100568276Y-44790695D01*
X100568276Y-44790695D02*
X100568276Y-45028790D01*
X100568276Y-45028790D02*
X100615895Y-45124028D01*
X100615895Y-45124028D02*
X100663514Y-45171647D01*
X100663514Y-45171647D02*
X100758752Y-45219266D01*
X100758752Y-45219266D02*
X100949228Y-45219266D01*
X100949228Y-45219266D02*
X101044466Y-45171647D01*
X101044466Y-45171647D02*
X101092085Y-45124028D01*
X101092085Y-45124028D02*
X101139704Y-45028790D01*
X56691445Y-30805418D02*
X56691445Y-31614941D01*
X56691445Y-31614941D02*
X56739064Y-31710179D01*
X56739064Y-31710179D02*
X56786683Y-31757799D01*
X56786683Y-31757799D02*
X56881921Y-31805418D01*
X56881921Y-31805418D02*
X57072397Y-31805418D01*
X57072397Y-31805418D02*
X57167635Y-31757799D01*
X57167635Y-31757799D02*
X57215254Y-31710179D01*
X57215254Y-31710179D02*
X57262873Y-31614941D01*
X57262873Y-31614941D02*
X57262873Y-30805418D01*
X57691445Y-30900656D02*
X57739064Y-30853037D01*
X57739064Y-30853037D02*
X57834302Y-30805418D01*
X57834302Y-30805418D02*
X58072397Y-30805418D01*
X58072397Y-30805418D02*
X58167635Y-30853037D01*
X58167635Y-30853037D02*
X58215254Y-30900656D01*
X58215254Y-30900656D02*
X58262873Y-30995894D01*
X58262873Y-30995894D02*
X58262873Y-31091132D01*
X58262873Y-31091132D02*
X58215254Y-31233989D01*
X58215254Y-31233989D02*
X57643826Y-31805418D01*
X57643826Y-31805418D02*
X58262873Y-31805418D01*
X55808700Y-29347418D02*
X55808700Y-29585513D01*
X55570605Y-29490275D02*
X55808700Y-29585513D01*
X55808700Y-29585513D02*
X56046795Y-29490275D01*
X55665843Y-29775989D02*
X55808700Y-29585513D01*
X55808700Y-29585513D02*
X55951557Y-29775989D01*
X99423342Y-51297419D02*
X99090009Y-50821228D01*
X98851914Y-51297419D02*
X98851914Y-50297419D01*
X98851914Y-50297419D02*
X99232866Y-50297419D01*
X99232866Y-50297419D02*
X99328104Y-50345038D01*
X99328104Y-50345038D02*
X99375723Y-50392657D01*
X99375723Y-50392657D02*
X99423342Y-50487895D01*
X99423342Y-50487895D02*
X99423342Y-50630752D01*
X99423342Y-50630752D02*
X99375723Y-50725990D01*
X99375723Y-50725990D02*
X99328104Y-50773609D01*
X99328104Y-50773609D02*
X99232866Y-50821228D01*
X99232866Y-50821228D02*
X98851914Y-50821228D01*
X100375723Y-51297419D02*
X99804295Y-51297419D01*
X100090009Y-51297419D02*
X100090009Y-50297419D01*
X100090009Y-50297419D02*
X99994771Y-50440276D01*
X99994771Y-50440276D02*
X99899533Y-50535514D01*
X99899533Y-50535514D02*
X99804295Y-50583133D01*
X100947152Y-50725990D02*
X100851914Y-50678371D01*
X100851914Y-50678371D02*
X100804295Y-50630752D01*
X100804295Y-50630752D02*
X100756676Y-50535514D01*
X100756676Y-50535514D02*
X100756676Y-50487895D01*
X100756676Y-50487895D02*
X100804295Y-50392657D01*
X100804295Y-50392657D02*
X100851914Y-50345038D01*
X100851914Y-50345038D02*
X100947152Y-50297419D01*
X100947152Y-50297419D02*
X101137628Y-50297419D01*
X101137628Y-50297419D02*
X101232866Y-50345038D01*
X101232866Y-50345038D02*
X101280485Y-50392657D01*
X101280485Y-50392657D02*
X101328104Y-50487895D01*
X101328104Y-50487895D02*
X101328104Y-50535514D01*
X101328104Y-50535514D02*
X101280485Y-50630752D01*
X101280485Y-50630752D02*
X101232866Y-50678371D01*
X101232866Y-50678371D02*
X101137628Y-50725990D01*
X101137628Y-50725990D02*
X100947152Y-50725990D01*
X100947152Y-50725990D02*
X100851914Y-50773609D01*
X100851914Y-50773609D02*
X100804295Y-50821228D01*
X100804295Y-50821228D02*
X100756676Y-50916466D01*
X100756676Y-50916466D02*
X100756676Y-51106942D01*
X100756676Y-51106942D02*
X100804295Y-51202180D01*
X100804295Y-51202180D02*
X100851914Y-51249800D01*
X100851914Y-51249800D02*
X100947152Y-51297419D01*
X100947152Y-51297419D02*
X101137628Y-51297419D01*
X101137628Y-51297419D02*
X101232866Y-51249800D01*
X101232866Y-51249800D02*
X101280485Y-51202180D01*
X101280485Y-51202180D02*
X101328104Y-51106942D01*
X101328104Y-51106942D02*
X101328104Y-50916466D01*
X101328104Y-50916466D02*
X101280485Y-50821228D01*
X101280485Y-50821228D02*
X101232866Y-50773609D01*
X101232866Y-50773609D02*
X101137628Y-50725990D01*
X48113419Y-50842504D02*
X48922942Y-50842504D01*
X48922942Y-50842504D02*
X49018180Y-50794885D01*
X49018180Y-50794885D02*
X49065800Y-50747266D01*
X49065800Y-50747266D02*
X49113419Y-50652028D01*
X49113419Y-50652028D02*
X49113419Y-50461552D01*
X49113419Y-50461552D02*
X49065800Y-50366314D01*
X49065800Y-50366314D02*
X49018180Y-50318695D01*
X49018180Y-50318695D02*
X48922942Y-50271076D01*
X48922942Y-50271076D02*
X48113419Y-50271076D01*
X48113419Y-49366314D02*
X48113419Y-49556790D01*
X48113419Y-49556790D02*
X48161038Y-49652028D01*
X48161038Y-49652028D02*
X48208657Y-49699647D01*
X48208657Y-49699647D02*
X48351514Y-49794885D01*
X48351514Y-49794885D02*
X48541990Y-49842504D01*
X48541990Y-49842504D02*
X48922942Y-49842504D01*
X48922942Y-49842504D02*
X49018180Y-49794885D01*
X49018180Y-49794885D02*
X49065800Y-49747266D01*
X49065800Y-49747266D02*
X49113419Y-49652028D01*
X49113419Y-49652028D02*
X49113419Y-49461552D01*
X49113419Y-49461552D02*
X49065800Y-49366314D01*
X49065800Y-49366314D02*
X49018180Y-49318695D01*
X49018180Y-49318695D02*
X48922942Y-49271076D01*
X48922942Y-49271076D02*
X48684847Y-49271076D01*
X48684847Y-49271076D02*
X48589609Y-49318695D01*
X48589609Y-49318695D02*
X48541990Y-49366314D01*
X48541990Y-49366314D02*
X48494371Y-49461552D01*
X48494371Y-49461552D02*
X48494371Y-49652028D01*
X48494371Y-49652028D02*
X48541990Y-49747266D01*
X48541990Y-49747266D02*
X48589609Y-49794885D01*
X48589609Y-49794885D02*
X48684847Y-49842504D01*
X40588043Y-32811879D02*
X40540424Y-32859499D01*
X40540424Y-32859499D02*
X40397567Y-32907118D01*
X40397567Y-32907118D02*
X40302329Y-32907118D01*
X40302329Y-32907118D02*
X40159472Y-32859499D01*
X40159472Y-32859499D02*
X40064234Y-32764260D01*
X40064234Y-32764260D02*
X40016615Y-32669022D01*
X40016615Y-32669022D02*
X39968996Y-32478546D01*
X39968996Y-32478546D02*
X39968996Y-32335689D01*
X39968996Y-32335689D02*
X40016615Y-32145213D01*
X40016615Y-32145213D02*
X40064234Y-32049975D01*
X40064234Y-32049975D02*
X40159472Y-31954737D01*
X40159472Y-31954737D02*
X40302329Y-31907118D01*
X40302329Y-31907118D02*
X40397567Y-31907118D01*
X40397567Y-31907118D02*
X40540424Y-31954737D01*
X40540424Y-31954737D02*
X40588043Y-32002356D01*
X40968996Y-32002356D02*
X41016615Y-31954737D01*
X41016615Y-31954737D02*
X41111853Y-31907118D01*
X41111853Y-31907118D02*
X41349948Y-31907118D01*
X41349948Y-31907118D02*
X41445186Y-31954737D01*
X41445186Y-31954737D02*
X41492805Y-32002356D01*
X41492805Y-32002356D02*
X41540424Y-32097594D01*
X41540424Y-32097594D02*
X41540424Y-32192832D01*
X41540424Y-32192832D02*
X41492805Y-32335689D01*
X41492805Y-32335689D02*
X40921377Y-32907118D01*
X40921377Y-32907118D02*
X41540424Y-32907118D01*
X42397567Y-32240451D02*
X42397567Y-32907118D01*
X42159472Y-31859499D02*
X41921377Y-32573784D01*
X41921377Y-32573784D02*
X42540424Y-32573784D01*
X44225720Y-25049765D02*
X43749529Y-25383098D01*
X44225720Y-25621193D02*
X43225720Y-25621193D01*
X43225720Y-25621193D02*
X43225720Y-25240241D01*
X43225720Y-25240241D02*
X43273339Y-25145003D01*
X43273339Y-25145003D02*
X43320958Y-25097384D01*
X43320958Y-25097384D02*
X43416196Y-25049765D01*
X43416196Y-25049765D02*
X43559053Y-25049765D01*
X43559053Y-25049765D02*
X43654291Y-25097384D01*
X43654291Y-25097384D02*
X43701910Y-25145003D01*
X43701910Y-25145003D02*
X43749529Y-25240241D01*
X43749529Y-25240241D02*
X43749529Y-25621193D01*
X43559053Y-24192622D02*
X44225720Y-24192622D01*
X43178101Y-24430717D02*
X43892386Y-24668812D01*
X43892386Y-24668812D02*
X43892386Y-24049765D01*
X67414933Y-42458219D02*
X67081600Y-41982028D01*
X66843505Y-42458219D02*
X66843505Y-41458219D01*
X66843505Y-41458219D02*
X67224457Y-41458219D01*
X67224457Y-41458219D02*
X67319695Y-41505838D01*
X67319695Y-41505838D02*
X67367314Y-41553457D01*
X67367314Y-41553457D02*
X67414933Y-41648695D01*
X67414933Y-41648695D02*
X67414933Y-41791552D01*
X67414933Y-41791552D02*
X67367314Y-41886790D01*
X67367314Y-41886790D02*
X67319695Y-41934409D01*
X67319695Y-41934409D02*
X67224457Y-41982028D01*
X67224457Y-41982028D02*
X66843505Y-41982028D01*
X68319695Y-41458219D02*
X67843505Y-41458219D01*
X67843505Y-41458219D02*
X67795886Y-41934409D01*
X67795886Y-41934409D02*
X67843505Y-41886790D01*
X67843505Y-41886790D02*
X67938743Y-41839171D01*
X67938743Y-41839171D02*
X68176838Y-41839171D01*
X68176838Y-41839171D02*
X68272076Y-41886790D01*
X68272076Y-41886790D02*
X68319695Y-41934409D01*
X68319695Y-41934409D02*
X68367314Y-42029647D01*
X68367314Y-42029647D02*
X68367314Y-42267742D01*
X68367314Y-42267742D02*
X68319695Y-42362980D01*
X68319695Y-42362980D02*
X68272076Y-42410600D01*
X68272076Y-42410600D02*
X68176838Y-42458219D01*
X68176838Y-42458219D02*
X67938743Y-42458219D01*
X67938743Y-42458219D02*
X67843505Y-42410600D01*
X67843505Y-42410600D02*
X67795886Y-42362980D01*
X81347219Y-35556466D02*
X80871028Y-35889799D01*
X81347219Y-36127894D02*
X80347219Y-36127894D01*
X80347219Y-36127894D02*
X80347219Y-35746942D01*
X80347219Y-35746942D02*
X80394838Y-35651704D01*
X80394838Y-35651704D02*
X80442457Y-35604085D01*
X80442457Y-35604085D02*
X80537695Y-35556466D01*
X80537695Y-35556466D02*
X80680552Y-35556466D01*
X80680552Y-35556466D02*
X80775790Y-35604085D01*
X80775790Y-35604085D02*
X80823409Y-35651704D01*
X80823409Y-35651704D02*
X80871028Y-35746942D01*
X80871028Y-35746942D02*
X80871028Y-36127894D01*
X81347219Y-35080275D02*
X81347219Y-34889799D01*
X81347219Y-34889799D02*
X81299600Y-34794561D01*
X81299600Y-34794561D02*
X81251980Y-34746942D01*
X81251980Y-34746942D02*
X81109123Y-34651704D01*
X81109123Y-34651704D02*
X80918647Y-34604085D01*
X80918647Y-34604085D02*
X80537695Y-34604085D01*
X80537695Y-34604085D02*
X80442457Y-34651704D01*
X80442457Y-34651704D02*
X80394838Y-34699323D01*
X80394838Y-34699323D02*
X80347219Y-34794561D01*
X80347219Y-34794561D02*
X80347219Y-34985037D01*
X80347219Y-34985037D02*
X80394838Y-35080275D01*
X80394838Y-35080275D02*
X80442457Y-35127894D01*
X80442457Y-35127894D02*
X80537695Y-35175513D01*
X80537695Y-35175513D02*
X80775790Y-35175513D01*
X80775790Y-35175513D02*
X80871028Y-35127894D01*
X80871028Y-35127894D02*
X80918647Y-35080275D01*
X80918647Y-35080275D02*
X80966266Y-34985037D01*
X80966266Y-34985037D02*
X80966266Y-34794561D01*
X80966266Y-34794561D02*
X80918647Y-34699323D01*
X80918647Y-34699323D02*
X80871028Y-34651704D01*
X80871028Y-34651704D02*
X80775790Y-34604085D01*
X98244367Y-69868000D02*
X98387224Y-69915619D01*
X98387224Y-69915619D02*
X98625319Y-69915619D01*
X98625319Y-69915619D02*
X98720557Y-69868000D01*
X98720557Y-69868000D02*
X98768176Y-69820380D01*
X98768176Y-69820380D02*
X98815795Y-69725142D01*
X98815795Y-69725142D02*
X98815795Y-69629904D01*
X98815795Y-69629904D02*
X98768176Y-69534666D01*
X98768176Y-69534666D02*
X98720557Y-69487047D01*
X98720557Y-69487047D02*
X98625319Y-69439428D01*
X98625319Y-69439428D02*
X98434843Y-69391809D01*
X98434843Y-69391809D02*
X98339605Y-69344190D01*
X98339605Y-69344190D02*
X98291986Y-69296571D01*
X98291986Y-69296571D02*
X98244367Y-69201333D01*
X98244367Y-69201333D02*
X98244367Y-69106095D01*
X98244367Y-69106095D02*
X98291986Y-69010857D01*
X98291986Y-69010857D02*
X98339605Y-68963238D01*
X98339605Y-68963238D02*
X98434843Y-68915619D01*
X98434843Y-68915619D02*
X98672938Y-68915619D01*
X98672938Y-68915619D02*
X98815795Y-68963238D01*
X99149129Y-68915619D02*
X99387224Y-69915619D01*
X99387224Y-69915619D02*
X99577700Y-69201333D01*
X99577700Y-69201333D02*
X99768176Y-69915619D01*
X99768176Y-69915619D02*
X100006272Y-68915619D01*
X100815795Y-69248952D02*
X100815795Y-69915619D01*
X100577700Y-68868000D02*
X100339605Y-69582285D01*
X100339605Y-69582285D02*
X100958652Y-69582285D01*
X93186080Y-65346257D02*
X93233700Y-65393876D01*
X93233700Y-65393876D02*
X93281319Y-65536733D01*
X93281319Y-65536733D02*
X93281319Y-65631971D01*
X93281319Y-65631971D02*
X93233700Y-65774828D01*
X93233700Y-65774828D02*
X93138461Y-65870066D01*
X93138461Y-65870066D02*
X93043223Y-65917685D01*
X93043223Y-65917685D02*
X92852747Y-65965304D01*
X92852747Y-65965304D02*
X92709890Y-65965304D01*
X92709890Y-65965304D02*
X92519414Y-65917685D01*
X92519414Y-65917685D02*
X92424176Y-65870066D01*
X92424176Y-65870066D02*
X92328938Y-65774828D01*
X92328938Y-65774828D02*
X92281319Y-65631971D01*
X92281319Y-65631971D02*
X92281319Y-65536733D01*
X92281319Y-65536733D02*
X92328938Y-65393876D01*
X92328938Y-65393876D02*
X92376557Y-65346257D01*
X93281319Y-64393876D02*
X93281319Y-64965304D01*
X93281319Y-64679590D02*
X92281319Y-64679590D01*
X92281319Y-64679590D02*
X92424176Y-64774828D01*
X92424176Y-64774828D02*
X92519414Y-64870066D01*
X92519414Y-64870066D02*
X92567033Y-64965304D01*
X93281319Y-63441495D02*
X93281319Y-64012923D01*
X93281319Y-63727209D02*
X92281319Y-63727209D01*
X92281319Y-63727209D02*
X92424176Y-63822447D01*
X92424176Y-63822447D02*
X92519414Y-63917685D01*
X92519414Y-63917685D02*
X92567033Y-64012923D01*
X76027833Y-35344980D02*
X75980214Y-35392600D01*
X75980214Y-35392600D02*
X75837357Y-35440219D01*
X75837357Y-35440219D02*
X75742119Y-35440219D01*
X75742119Y-35440219D02*
X75599262Y-35392600D01*
X75599262Y-35392600D02*
X75504024Y-35297361D01*
X75504024Y-35297361D02*
X75456405Y-35202123D01*
X75456405Y-35202123D02*
X75408786Y-35011647D01*
X75408786Y-35011647D02*
X75408786Y-34868790D01*
X75408786Y-34868790D02*
X75456405Y-34678314D01*
X75456405Y-34678314D02*
X75504024Y-34583076D01*
X75504024Y-34583076D02*
X75599262Y-34487838D01*
X75599262Y-34487838D02*
X75742119Y-34440219D01*
X75742119Y-34440219D02*
X75837357Y-34440219D01*
X75837357Y-34440219D02*
X75980214Y-34487838D01*
X75980214Y-34487838D02*
X76027833Y-34535457D01*
X76980214Y-35440219D02*
X76408786Y-35440219D01*
X76694500Y-35440219D02*
X76694500Y-34440219D01*
X76694500Y-34440219D02*
X76599262Y-34583076D01*
X76599262Y-34583076D02*
X76504024Y-34678314D01*
X76504024Y-34678314D02*
X76408786Y-34725933D01*
X74938980Y-32558266D02*
X74986600Y-32605885D01*
X74986600Y-32605885D02*
X75034219Y-32748742D01*
X75034219Y-32748742D02*
X75034219Y-32843980D01*
X75034219Y-32843980D02*
X74986600Y-32986837D01*
X74986600Y-32986837D02*
X74891361Y-33082075D01*
X74891361Y-33082075D02*
X74796123Y-33129694D01*
X74796123Y-33129694D02*
X74605647Y-33177313D01*
X74605647Y-33177313D02*
X74462790Y-33177313D01*
X74462790Y-33177313D02*
X74272314Y-33129694D01*
X74272314Y-33129694D02*
X74177076Y-33082075D01*
X74177076Y-33082075D02*
X74081838Y-32986837D01*
X74081838Y-32986837D02*
X74034219Y-32843980D01*
X74034219Y-32843980D02*
X74034219Y-32748742D01*
X74034219Y-32748742D02*
X74081838Y-32605885D01*
X74081838Y-32605885D02*
X74129457Y-32558266D01*
X74367552Y-31701123D02*
X75034219Y-31701123D01*
X73986600Y-31939218D02*
X74700885Y-32177313D01*
X74700885Y-32177313D02*
X74700885Y-31558266D01*
X44390353Y-67153022D02*
X43387471Y-67153022D01*
X43387471Y-67153022D02*
X43387471Y-66914241D01*
X43387471Y-66914241D02*
X43435227Y-66770972D01*
X43435227Y-66770972D02*
X43530740Y-66675459D01*
X43530740Y-66675459D02*
X43626252Y-66627703D01*
X43626252Y-66627703D02*
X43817277Y-66579947D01*
X43817277Y-66579947D02*
X43960546Y-66579947D01*
X43960546Y-66579947D02*
X44151571Y-66627703D01*
X44151571Y-66627703D02*
X44247084Y-66675459D01*
X44247084Y-66675459D02*
X44342597Y-66770972D01*
X44342597Y-66770972D02*
X44390353Y-66914241D01*
X44390353Y-66914241D02*
X44390353Y-67153022D01*
X43387471Y-66245653D02*
X43387471Y-65577065D01*
X43387471Y-65577065D02*
X44390353Y-66006871D01*
X89978080Y-35231266D02*
X90025700Y-35278885D01*
X90025700Y-35278885D02*
X90073319Y-35421742D01*
X90073319Y-35421742D02*
X90073319Y-35516980D01*
X90073319Y-35516980D02*
X90025700Y-35659837D01*
X90025700Y-35659837D02*
X89930461Y-35755075D01*
X89930461Y-35755075D02*
X89835223Y-35802694D01*
X89835223Y-35802694D02*
X89644747Y-35850313D01*
X89644747Y-35850313D02*
X89501890Y-35850313D01*
X89501890Y-35850313D02*
X89311414Y-35802694D01*
X89311414Y-35802694D02*
X89216176Y-35755075D01*
X89216176Y-35755075D02*
X89120938Y-35659837D01*
X89120938Y-35659837D02*
X89073319Y-35516980D01*
X89073319Y-35516980D02*
X89073319Y-35421742D01*
X89073319Y-35421742D02*
X89120938Y-35278885D01*
X89120938Y-35278885D02*
X89168557Y-35231266D01*
X89073319Y-34897932D02*
X89073319Y-34231266D01*
X89073319Y-34231266D02*
X90073319Y-34659837D01*
X66257666Y-74775419D02*
X66257666Y-75489704D01*
X66257666Y-75489704D02*
X66210047Y-75632561D01*
X66210047Y-75632561D02*
X66114809Y-75727800D01*
X66114809Y-75727800D02*
X65971952Y-75775419D01*
X65971952Y-75775419D02*
X65876714Y-75775419D01*
X66686238Y-74870657D02*
X66733857Y-74823038D01*
X66733857Y-74823038D02*
X66829095Y-74775419D01*
X66829095Y-74775419D02*
X67067190Y-74775419D01*
X67067190Y-74775419D02*
X67162428Y-74823038D01*
X67162428Y-74823038D02*
X67210047Y-74870657D01*
X67210047Y-74870657D02*
X67257666Y-74965895D01*
X67257666Y-74965895D02*
X67257666Y-75061133D01*
X67257666Y-75061133D02*
X67210047Y-75203990D01*
X67210047Y-75203990D02*
X66638619Y-75775419D01*
X66638619Y-75775419D02*
X67257666Y-75775419D01*
X96141619Y-35507666D02*
X95665428Y-35840999D01*
X96141619Y-36079094D02*
X95141619Y-36079094D01*
X95141619Y-36079094D02*
X95141619Y-35698142D01*
X95141619Y-35698142D02*
X95189238Y-35602904D01*
X95189238Y-35602904D02*
X95236857Y-35555285D01*
X95236857Y-35555285D02*
X95332095Y-35507666D01*
X95332095Y-35507666D02*
X95474952Y-35507666D01*
X95474952Y-35507666D02*
X95570190Y-35555285D01*
X95570190Y-35555285D02*
X95617809Y-35602904D01*
X95617809Y-35602904D02*
X95665428Y-35698142D01*
X95665428Y-35698142D02*
X95665428Y-36079094D01*
X95570190Y-34936237D02*
X95522571Y-35031475D01*
X95522571Y-35031475D02*
X95474952Y-35079094D01*
X95474952Y-35079094D02*
X95379714Y-35126713D01*
X95379714Y-35126713D02*
X95332095Y-35126713D01*
X95332095Y-35126713D02*
X95236857Y-35079094D01*
X95236857Y-35079094D02*
X95189238Y-35031475D01*
X95189238Y-35031475D02*
X95141619Y-34936237D01*
X95141619Y-34936237D02*
X95141619Y-34745761D01*
X95141619Y-34745761D02*
X95189238Y-34650523D01*
X95189238Y-34650523D02*
X95236857Y-34602904D01*
X95236857Y-34602904D02*
X95332095Y-34555285D01*
X95332095Y-34555285D02*
X95379714Y-34555285D01*
X95379714Y-34555285D02*
X95474952Y-34602904D01*
X95474952Y-34602904D02*
X95522571Y-34650523D01*
X95522571Y-34650523D02*
X95570190Y-34745761D01*
X95570190Y-34745761D02*
X95570190Y-34936237D01*
X95570190Y-34936237D02*
X95617809Y-35031475D01*
X95617809Y-35031475D02*
X95665428Y-35079094D01*
X95665428Y-35079094D02*
X95760666Y-35126713D01*
X95760666Y-35126713D02*
X95951142Y-35126713D01*
X95951142Y-35126713D02*
X96046380Y-35079094D01*
X96046380Y-35079094D02*
X96094000Y-35031475D01*
X96094000Y-35031475D02*
X96141619Y-34936237D01*
X96141619Y-34936237D02*
X96141619Y-34745761D01*
X96141619Y-34745761D02*
X96094000Y-34650523D01*
X96094000Y-34650523D02*
X96046380Y-34602904D01*
X96046380Y-34602904D02*
X95951142Y-34555285D01*
X95951142Y-34555285D02*
X95760666Y-34555285D01*
X95760666Y-34555285D02*
X95665428Y-34602904D01*
X95665428Y-34602904D02*
X95617809Y-34650523D01*
X95617809Y-34650523D02*
X95570190Y-34745761D01*
X99653942Y-54961380D02*
X99606323Y-55009000D01*
X99606323Y-55009000D02*
X99463466Y-55056619D01*
X99463466Y-55056619D02*
X99368228Y-55056619D01*
X99368228Y-55056619D02*
X99225371Y-55009000D01*
X99225371Y-55009000D02*
X99130133Y-54913761D01*
X99130133Y-54913761D02*
X99082514Y-54818523D01*
X99082514Y-54818523D02*
X99034895Y-54628047D01*
X99034895Y-54628047D02*
X99034895Y-54485190D01*
X99034895Y-54485190D02*
X99082514Y-54294714D01*
X99082514Y-54294714D02*
X99130133Y-54199476D01*
X99130133Y-54199476D02*
X99225371Y-54104238D01*
X99225371Y-54104238D02*
X99368228Y-54056619D01*
X99368228Y-54056619D02*
X99463466Y-54056619D01*
X99463466Y-54056619D02*
X99606323Y-54104238D01*
X99606323Y-54104238D02*
X99653942Y-54151857D01*
X100606323Y-55056619D02*
X100034895Y-55056619D01*
X100320609Y-55056619D02*
X100320609Y-54056619D01*
X100320609Y-54056619D02*
X100225371Y-54199476D01*
X100225371Y-54199476D02*
X100130133Y-54294714D01*
X100130133Y-54294714D02*
X100034895Y-54342333D01*
X101177752Y-54485190D02*
X101082514Y-54437571D01*
X101082514Y-54437571D02*
X101034895Y-54389952D01*
X101034895Y-54389952D02*
X100987276Y-54294714D01*
X100987276Y-54294714D02*
X100987276Y-54247095D01*
X100987276Y-54247095D02*
X101034895Y-54151857D01*
X101034895Y-54151857D02*
X101082514Y-54104238D01*
X101082514Y-54104238D02*
X101177752Y-54056619D01*
X101177752Y-54056619D02*
X101368228Y-54056619D01*
X101368228Y-54056619D02*
X101463466Y-54104238D01*
X101463466Y-54104238D02*
X101511085Y-54151857D01*
X101511085Y-54151857D02*
X101558704Y-54247095D01*
X101558704Y-54247095D02*
X101558704Y-54294714D01*
X101558704Y-54294714D02*
X101511085Y-54389952D01*
X101511085Y-54389952D02*
X101463466Y-54437571D01*
X101463466Y-54437571D02*
X101368228Y-54485190D01*
X101368228Y-54485190D02*
X101177752Y-54485190D01*
X101177752Y-54485190D02*
X101082514Y-54532809D01*
X101082514Y-54532809D02*
X101034895Y-54580428D01*
X101034895Y-54580428D02*
X100987276Y-54675666D01*
X100987276Y-54675666D02*
X100987276Y-54866142D01*
X100987276Y-54866142D02*
X101034895Y-54961380D01*
X101034895Y-54961380D02*
X101082514Y-55009000D01*
X101082514Y-55009000D02*
X101177752Y-55056619D01*
X101177752Y-55056619D02*
X101368228Y-55056619D01*
X101368228Y-55056619D02*
X101463466Y-55009000D01*
X101463466Y-55009000D02*
X101511085Y-54961380D01*
X101511085Y-54961380D02*
X101558704Y-54866142D01*
X101558704Y-54866142D02*
X101558704Y-54675666D01*
X101558704Y-54675666D02*
X101511085Y-54580428D01*
X101511085Y-54580428D02*
X101463466Y-54532809D01*
X101463466Y-54532809D02*
X101368228Y-54485190D01*
X54370466Y-73055819D02*
X54370466Y-73770104D01*
X54370466Y-73770104D02*
X54322847Y-73912961D01*
X54322847Y-73912961D02*
X54227609Y-74008200D01*
X54227609Y-74008200D02*
X54084752Y-74055819D01*
X54084752Y-74055819D02*
X53989514Y-74055819D01*
X55370466Y-74055819D02*
X54799038Y-74055819D01*
X55084752Y-74055819D02*
X55084752Y-73055819D01*
X55084752Y-73055819D02*
X54989514Y-73198676D01*
X54989514Y-73198676D02*
X54894276Y-73293914D01*
X54894276Y-73293914D02*
X54799038Y-73341533D01*
X78446480Y-35180466D02*
X78494100Y-35228085D01*
X78494100Y-35228085D02*
X78541719Y-35370942D01*
X78541719Y-35370942D02*
X78541719Y-35466180D01*
X78541719Y-35466180D02*
X78494100Y-35609037D01*
X78494100Y-35609037D02*
X78398861Y-35704275D01*
X78398861Y-35704275D02*
X78303623Y-35751894D01*
X78303623Y-35751894D02*
X78113147Y-35799513D01*
X78113147Y-35799513D02*
X77970290Y-35799513D01*
X77970290Y-35799513D02*
X77779814Y-35751894D01*
X77779814Y-35751894D02*
X77684576Y-35704275D01*
X77684576Y-35704275D02*
X77589338Y-35609037D01*
X77589338Y-35609037D02*
X77541719Y-35466180D01*
X77541719Y-35466180D02*
X77541719Y-35370942D01*
X77541719Y-35370942D02*
X77589338Y-35228085D01*
X77589338Y-35228085D02*
X77636957Y-35180466D01*
X77541719Y-34275704D02*
X77541719Y-34751894D01*
X77541719Y-34751894D02*
X78017909Y-34799513D01*
X78017909Y-34799513D02*
X77970290Y-34751894D01*
X77970290Y-34751894D02*
X77922671Y-34656656D01*
X77922671Y-34656656D02*
X77922671Y-34418561D01*
X77922671Y-34418561D02*
X77970290Y-34323323D01*
X77970290Y-34323323D02*
X78017909Y-34275704D01*
X78017909Y-34275704D02*
X78113147Y-34228085D01*
X78113147Y-34228085D02*
X78351242Y-34228085D01*
X78351242Y-34228085D02*
X78446480Y-34275704D01*
X78446480Y-34275704D02*
X78494100Y-34323323D01*
X78494100Y-34323323D02*
X78541719Y-34418561D01*
X78541719Y-34418561D02*
X78541719Y-34656656D01*
X78541719Y-34656656D02*
X78494100Y-34751894D01*
X78494100Y-34751894D02*
X78446480Y-34799513D01*
X68714042Y-58822180D02*
X68666423Y-58869800D01*
X68666423Y-58869800D02*
X68523566Y-58917419D01*
X68523566Y-58917419D02*
X68428328Y-58917419D01*
X68428328Y-58917419D02*
X68285471Y-58869800D01*
X68285471Y-58869800D02*
X68190233Y-58774561D01*
X68190233Y-58774561D02*
X68142614Y-58679323D01*
X68142614Y-58679323D02*
X68094995Y-58488847D01*
X68094995Y-58488847D02*
X68094995Y-58345990D01*
X68094995Y-58345990D02*
X68142614Y-58155514D01*
X68142614Y-58155514D02*
X68190233Y-58060276D01*
X68190233Y-58060276D02*
X68285471Y-57965038D01*
X68285471Y-57965038D02*
X68428328Y-57917419D01*
X68428328Y-57917419D02*
X68523566Y-57917419D01*
X68523566Y-57917419D02*
X68666423Y-57965038D01*
X68666423Y-57965038D02*
X68714042Y-58012657D01*
X69666423Y-58917419D02*
X69094995Y-58917419D01*
X69380709Y-58917419D02*
X69380709Y-57917419D01*
X69380709Y-57917419D02*
X69285471Y-58060276D01*
X69285471Y-58060276D02*
X69190233Y-58155514D01*
X69190233Y-58155514D02*
X69094995Y-58203133D01*
X70571185Y-57917419D02*
X70094995Y-57917419D01*
X70094995Y-57917419D02*
X70047376Y-58393609D01*
X70047376Y-58393609D02*
X70094995Y-58345990D01*
X70094995Y-58345990D02*
X70190233Y-58298371D01*
X70190233Y-58298371D02*
X70428328Y-58298371D01*
X70428328Y-58298371D02*
X70523566Y-58345990D01*
X70523566Y-58345990D02*
X70571185Y-58393609D01*
X70571185Y-58393609D02*
X70618804Y-58488847D01*
X70618804Y-58488847D02*
X70618804Y-58726942D01*
X70618804Y-58726942D02*
X70571185Y-58822180D01*
X70571185Y-58822180D02*
X70523566Y-58869800D01*
X70523566Y-58869800D02*
X70428328Y-58917419D01*
X70428328Y-58917419D02*
X70190233Y-58917419D01*
X70190233Y-58917419D02*
X70094995Y-58869800D01*
X70094995Y-58869800D02*
X70047376Y-58822180D01*
X68545333Y-55858380D02*
X68497714Y-55906000D01*
X68497714Y-55906000D02*
X68354857Y-55953619D01*
X68354857Y-55953619D02*
X68259619Y-55953619D01*
X68259619Y-55953619D02*
X68116762Y-55906000D01*
X68116762Y-55906000D02*
X68021524Y-55810761D01*
X68021524Y-55810761D02*
X67973905Y-55715523D01*
X67973905Y-55715523D02*
X67926286Y-55525047D01*
X67926286Y-55525047D02*
X67926286Y-55382190D01*
X67926286Y-55382190D02*
X67973905Y-55191714D01*
X67973905Y-55191714D02*
X68021524Y-55096476D01*
X68021524Y-55096476D02*
X68116762Y-55001238D01*
X68116762Y-55001238D02*
X68259619Y-54953619D01*
X68259619Y-54953619D02*
X68354857Y-54953619D01*
X68354857Y-54953619D02*
X68497714Y-55001238D01*
X68497714Y-55001238D02*
X68545333Y-55048857D01*
X68926286Y-55048857D02*
X68973905Y-55001238D01*
X68973905Y-55001238D02*
X69069143Y-54953619D01*
X69069143Y-54953619D02*
X69307238Y-54953619D01*
X69307238Y-54953619D02*
X69402476Y-55001238D01*
X69402476Y-55001238D02*
X69450095Y-55048857D01*
X69450095Y-55048857D02*
X69497714Y-55144095D01*
X69497714Y-55144095D02*
X69497714Y-55239333D01*
X69497714Y-55239333D02*
X69450095Y-55382190D01*
X69450095Y-55382190D02*
X68878667Y-55953619D01*
X68878667Y-55953619D02*
X69497714Y-55953619D01*
X48702481Y-27163956D02*
X48750101Y-27211575D01*
X48750101Y-27211575D02*
X48797720Y-27354432D01*
X48797720Y-27354432D02*
X48797720Y-27449670D01*
X48797720Y-27449670D02*
X48750101Y-27592527D01*
X48750101Y-27592527D02*
X48654862Y-27687765D01*
X48654862Y-27687765D02*
X48559624Y-27735384D01*
X48559624Y-27735384D02*
X48369148Y-27783003D01*
X48369148Y-27783003D02*
X48226291Y-27783003D01*
X48226291Y-27783003D02*
X48035815Y-27735384D01*
X48035815Y-27735384D02*
X47940577Y-27687765D01*
X47940577Y-27687765D02*
X47845339Y-27592527D01*
X47845339Y-27592527D02*
X47797720Y-27449670D01*
X47797720Y-27449670D02*
X47797720Y-27354432D01*
X47797720Y-27354432D02*
X47845339Y-27211575D01*
X47845339Y-27211575D02*
X47892958Y-27163956D01*
X47892958Y-26783003D02*
X47845339Y-26735384D01*
X47845339Y-26735384D02*
X47797720Y-26640146D01*
X47797720Y-26640146D02*
X47797720Y-26402051D01*
X47797720Y-26402051D02*
X47845339Y-26306813D01*
X47845339Y-26306813D02*
X47892958Y-26259194D01*
X47892958Y-26259194D02*
X47988196Y-26211575D01*
X47988196Y-26211575D02*
X48083434Y-26211575D01*
X48083434Y-26211575D02*
X48226291Y-26259194D01*
X48226291Y-26259194D02*
X48797720Y-26830622D01*
X48797720Y-26830622D02*
X48797720Y-26211575D01*
X47797720Y-25354432D02*
X47797720Y-25544908D01*
X47797720Y-25544908D02*
X47845339Y-25640146D01*
X47845339Y-25640146D02*
X47892958Y-25687765D01*
X47892958Y-25687765D02*
X48035815Y-25783003D01*
X48035815Y-25783003D02*
X48226291Y-25830622D01*
X48226291Y-25830622D02*
X48607243Y-25830622D01*
X48607243Y-25830622D02*
X48702481Y-25783003D01*
X48702481Y-25783003D02*
X48750101Y-25735384D01*
X48750101Y-25735384D02*
X48797720Y-25640146D01*
X48797720Y-25640146D02*
X48797720Y-25449670D01*
X48797720Y-25449670D02*
X48750101Y-25354432D01*
X48750101Y-25354432D02*
X48702481Y-25306813D01*
X48702481Y-25306813D02*
X48607243Y-25259194D01*
X48607243Y-25259194D02*
X48369148Y-25259194D01*
X48369148Y-25259194D02*
X48273910Y-25306813D01*
X48273910Y-25306813D02*
X48226291Y-25354432D01*
X48226291Y-25354432D02*
X48178672Y-25449670D01*
X48178672Y-25449670D02*
X48178672Y-25640146D01*
X48178672Y-25640146D02*
X48226291Y-25735384D01*
X48226291Y-25735384D02*
X48273910Y-25783003D01*
X48273910Y-25783003D02*
X48369148Y-25830622D01*
X73008580Y-32637466D02*
X73056200Y-32685085D01*
X73056200Y-32685085D02*
X73103819Y-32827942D01*
X73103819Y-32827942D02*
X73103819Y-32923180D01*
X73103819Y-32923180D02*
X73056200Y-33066037D01*
X73056200Y-33066037D02*
X72960961Y-33161275D01*
X72960961Y-33161275D02*
X72865723Y-33208894D01*
X72865723Y-33208894D02*
X72675247Y-33256513D01*
X72675247Y-33256513D02*
X72532390Y-33256513D01*
X72532390Y-33256513D02*
X72341914Y-33208894D01*
X72341914Y-33208894D02*
X72246676Y-33161275D01*
X72246676Y-33161275D02*
X72151438Y-33066037D01*
X72151438Y-33066037D02*
X72103819Y-32923180D01*
X72103819Y-32923180D02*
X72103819Y-32827942D01*
X72103819Y-32827942D02*
X72151438Y-32685085D01*
X72151438Y-32685085D02*
X72199057Y-32637466D01*
X72103819Y-32304132D02*
X72103819Y-31685085D01*
X72103819Y-31685085D02*
X72484771Y-32018418D01*
X72484771Y-32018418D02*
X72484771Y-31875561D01*
X72484771Y-31875561D02*
X72532390Y-31780323D01*
X72532390Y-31780323D02*
X72580009Y-31732704D01*
X72580009Y-31732704D02*
X72675247Y-31685085D01*
X72675247Y-31685085D02*
X72913342Y-31685085D01*
X72913342Y-31685085D02*
X73008580Y-31732704D01*
X73008580Y-31732704D02*
X73056200Y-31780323D01*
X73056200Y-31780323D02*
X73103819Y-31875561D01*
X73103819Y-31875561D02*
X73103819Y-32161275D01*
X73103819Y-32161275D02*
X73056200Y-32256513D01*
X73056200Y-32256513D02*
X73008580Y-32304132D01*
X36007905Y-67985219D02*
X36007905Y-66985219D01*
X36007905Y-66985219D02*
X36246000Y-66985219D01*
X36246000Y-66985219D02*
X36388857Y-67032838D01*
X36388857Y-67032838D02*
X36484095Y-67128076D01*
X36484095Y-67128076D02*
X36531714Y-67223314D01*
X36531714Y-67223314D02*
X36579333Y-67413790D01*
X36579333Y-67413790D02*
X36579333Y-67556647D01*
X36579333Y-67556647D02*
X36531714Y-67747123D01*
X36531714Y-67747123D02*
X36484095Y-67842361D01*
X36484095Y-67842361D02*
X36388857Y-67937600D01*
X36388857Y-67937600D02*
X36246000Y-67985219D01*
X36246000Y-67985219D02*
X36007905Y-67985219D01*
X36912667Y-66985219D02*
X37531714Y-66985219D01*
X37531714Y-66985219D02*
X37198381Y-67366171D01*
X37198381Y-67366171D02*
X37341238Y-67366171D01*
X37341238Y-67366171D02*
X37436476Y-67413790D01*
X37436476Y-67413790D02*
X37484095Y-67461409D01*
X37484095Y-67461409D02*
X37531714Y-67556647D01*
X37531714Y-67556647D02*
X37531714Y-67794742D01*
X37531714Y-67794742D02*
X37484095Y-67889980D01*
X37484095Y-67889980D02*
X37436476Y-67937600D01*
X37436476Y-67937600D02*
X37341238Y-67985219D01*
X37341238Y-67985219D02*
X37055524Y-67985219D01*
X37055524Y-67985219D02*
X36960286Y-67937600D01*
X36960286Y-67937600D02*
X36912667Y-67889980D01*
X35717300Y-62684719D02*
X35717300Y-62922814D01*
X35479205Y-62827576D02*
X35717300Y-62922814D01*
X35717300Y-62922814D02*
X35955395Y-62827576D01*
X35574443Y-63113290D02*
X35717300Y-62922814D01*
X35717300Y-62922814D02*
X35860157Y-63113290D01*
X45140795Y-30091719D02*
X45140795Y-30901242D01*
X45140795Y-30901242D02*
X45188414Y-30996480D01*
X45188414Y-30996480D02*
X45236033Y-31044100D01*
X45236033Y-31044100D02*
X45331271Y-31091719D01*
X45331271Y-31091719D02*
X45521747Y-31091719D01*
X45521747Y-31091719D02*
X45616985Y-31044100D01*
X45616985Y-31044100D02*
X45664604Y-30996480D01*
X45664604Y-30996480D02*
X45712223Y-30901242D01*
X45712223Y-30901242D02*
X45712223Y-30091719D01*
X46712223Y-31091719D02*
X46140795Y-31091719D01*
X46426509Y-31091719D02*
X46426509Y-30091719D01*
X46426509Y-30091719D02*
X46331271Y-30234576D01*
X46331271Y-30234576D02*
X46236033Y-30329814D01*
X46236033Y-30329814D02*
X46140795Y-30377433D01*
X43367700Y-28710719D02*
X43367700Y-28948814D01*
X43129605Y-28853576D02*
X43367700Y-28948814D01*
X43367700Y-28948814D02*
X43605795Y-28853576D01*
X43224843Y-29139290D02*
X43367700Y-28948814D01*
X43367700Y-28948814D02*
X43510557Y-29139290D01*
X43367700Y-28710719D02*
X43367700Y-28948814D01*
X43129605Y-28853576D02*
X43367700Y-28948814D01*
X43367700Y-28948814D02*
X43605795Y-28853576D01*
X43224843Y-29139290D02*
X43367700Y-28948814D01*
X43367700Y-28948814D02*
X43510557Y-29139290D01*
X34964866Y-26065819D02*
X34964866Y-26780104D01*
X34964866Y-26780104D02*
X34917247Y-26922961D01*
X34917247Y-26922961D02*
X34822009Y-27018200D01*
X34822009Y-27018200D02*
X34679152Y-27065819D01*
X34679152Y-27065819D02*
X34583914Y-27065819D01*
X35345819Y-26065819D02*
X35964866Y-26065819D01*
X35964866Y-26065819D02*
X35631533Y-26446771D01*
X35631533Y-26446771D02*
X35774390Y-26446771D01*
X35774390Y-26446771D02*
X35869628Y-26494390D01*
X35869628Y-26494390D02*
X35917247Y-26542009D01*
X35917247Y-26542009D02*
X35964866Y-26637247D01*
X35964866Y-26637247D02*
X35964866Y-26875342D01*
X35964866Y-26875342D02*
X35917247Y-26970580D01*
X35917247Y-26970580D02*
X35869628Y-27018200D01*
X35869628Y-27018200D02*
X35774390Y-27065819D01*
X35774390Y-27065819D02*
X35488676Y-27065819D01*
X35488676Y-27065819D02*
X35393438Y-27018200D01*
X35393438Y-27018200D02*
X35345819Y-26970580D01*
X88242219Y-61415666D02*
X87766028Y-61748999D01*
X88242219Y-61987094D02*
X87242219Y-61987094D01*
X87242219Y-61987094D02*
X87242219Y-61606142D01*
X87242219Y-61606142D02*
X87289838Y-61510904D01*
X87289838Y-61510904D02*
X87337457Y-61463285D01*
X87337457Y-61463285D02*
X87432695Y-61415666D01*
X87432695Y-61415666D02*
X87575552Y-61415666D01*
X87575552Y-61415666D02*
X87670790Y-61463285D01*
X87670790Y-61463285D02*
X87718409Y-61510904D01*
X87718409Y-61510904D02*
X87766028Y-61606142D01*
X87766028Y-61606142D02*
X87766028Y-61987094D01*
X88242219Y-60463285D02*
X88242219Y-61034713D01*
X88242219Y-60748999D02*
X87242219Y-60748999D01*
X87242219Y-60748999D02*
X87385076Y-60844237D01*
X87385076Y-60844237D02*
X87480314Y-60939475D01*
X87480314Y-60939475D02*
X87527933Y-61034713D01*
X53172881Y-32028356D02*
X53220501Y-32075975D01*
X53220501Y-32075975D02*
X53268120Y-32218832D01*
X53268120Y-32218832D02*
X53268120Y-32314070D01*
X53268120Y-32314070D02*
X53220501Y-32456927D01*
X53220501Y-32456927D02*
X53125262Y-32552165D01*
X53125262Y-32552165D02*
X53030024Y-32599784D01*
X53030024Y-32599784D02*
X52839548Y-32647403D01*
X52839548Y-32647403D02*
X52696691Y-32647403D01*
X52696691Y-32647403D02*
X52506215Y-32599784D01*
X52506215Y-32599784D02*
X52410977Y-32552165D01*
X52410977Y-32552165D02*
X52315739Y-32456927D01*
X52315739Y-32456927D02*
X52268120Y-32314070D01*
X52268120Y-32314070D02*
X52268120Y-32218832D01*
X52268120Y-32218832D02*
X52315739Y-32075975D01*
X52315739Y-32075975D02*
X52363358Y-32028356D01*
X52363358Y-31647403D02*
X52315739Y-31599784D01*
X52315739Y-31599784D02*
X52268120Y-31504546D01*
X52268120Y-31504546D02*
X52268120Y-31266451D01*
X52268120Y-31266451D02*
X52315739Y-31171213D01*
X52315739Y-31171213D02*
X52363358Y-31123594D01*
X52363358Y-31123594D02*
X52458596Y-31075975D01*
X52458596Y-31075975D02*
X52553834Y-31075975D01*
X52553834Y-31075975D02*
X52696691Y-31123594D01*
X52696691Y-31123594D02*
X53268120Y-31695022D01*
X53268120Y-31695022D02*
X53268120Y-31075975D01*
X52268120Y-30456927D02*
X52268120Y-30361689D01*
X52268120Y-30361689D02*
X52315739Y-30266451D01*
X52315739Y-30266451D02*
X52363358Y-30218832D01*
X52363358Y-30218832D02*
X52458596Y-30171213D01*
X52458596Y-30171213D02*
X52649072Y-30123594D01*
X52649072Y-30123594D02*
X52887167Y-30123594D01*
X52887167Y-30123594D02*
X53077643Y-30171213D01*
X53077643Y-30171213D02*
X53172881Y-30218832D01*
X53172881Y-30218832D02*
X53220501Y-30266451D01*
X53220501Y-30266451D02*
X53268120Y-30361689D01*
X53268120Y-30361689D02*
X53268120Y-30456927D01*
X53268120Y-30456927D02*
X53220501Y-30552165D01*
X53220501Y-30552165D02*
X53172881Y-30599784D01*
X53172881Y-30599784D02*
X53077643Y-30647403D01*
X53077643Y-30647403D02*
X52887167Y-30695022D01*
X52887167Y-30695022D02*
X52649072Y-30695022D01*
X52649072Y-30695022D02*
X52458596Y-30647403D01*
X52458596Y-30647403D02*
X52363358Y-30599784D01*
X52363358Y-30599784D02*
X52315739Y-30552165D01*
X52315739Y-30552165D02*
X52268120Y-30456927D01*
X44414419Y-75507494D02*
X43414419Y-75507494D01*
X43414419Y-75507494D02*
X43414419Y-75269399D01*
X43414419Y-75269399D02*
X43462038Y-75126542D01*
X43462038Y-75126542D02*
X43557276Y-75031304D01*
X43557276Y-75031304D02*
X43652514Y-74983685D01*
X43652514Y-74983685D02*
X43842990Y-74936066D01*
X43842990Y-74936066D02*
X43985847Y-74936066D01*
X43985847Y-74936066D02*
X44176323Y-74983685D01*
X44176323Y-74983685D02*
X44271561Y-75031304D01*
X44271561Y-75031304D02*
X44366800Y-75126542D01*
X44366800Y-75126542D02*
X44414419Y-75269399D01*
X44414419Y-75269399D02*
X44414419Y-75507494D01*
X43414419Y-74078923D02*
X43414419Y-74269399D01*
X43414419Y-74269399D02*
X43462038Y-74364637D01*
X43462038Y-74364637D02*
X43509657Y-74412256D01*
X43509657Y-74412256D02*
X43652514Y-74507494D01*
X43652514Y-74507494D02*
X43842990Y-74555113D01*
X43842990Y-74555113D02*
X44223942Y-74555113D01*
X44223942Y-74555113D02*
X44319180Y-74507494D01*
X44319180Y-74507494D02*
X44366800Y-74459875D01*
X44366800Y-74459875D02*
X44414419Y-74364637D01*
X44414419Y-74364637D02*
X44414419Y-74174161D01*
X44414419Y-74174161D02*
X44366800Y-74078923D01*
X44366800Y-74078923D02*
X44319180Y-74031304D01*
X44319180Y-74031304D02*
X44223942Y-73983685D01*
X44223942Y-73983685D02*
X43985847Y-73983685D01*
X43985847Y-73983685D02*
X43890609Y-74031304D01*
X43890609Y-74031304D02*
X43842990Y-74078923D01*
X43842990Y-74078923D02*
X43795371Y-74174161D01*
X43795371Y-74174161D02*
X43795371Y-74364637D01*
X43795371Y-74364637D02*
X43842990Y-74459875D01*
X43842990Y-74459875D02*
X43890609Y-74507494D01*
X43890609Y-74507494D02*
X43985847Y-74555113D01*
X99897242Y-52661419D02*
X99563909Y-52185228D01*
X99325814Y-52661419D02*
X99325814Y-51661419D01*
X99325814Y-51661419D02*
X99706766Y-51661419D01*
X99706766Y-51661419D02*
X99802004Y-51709038D01*
X99802004Y-51709038D02*
X99849623Y-51756657D01*
X99849623Y-51756657D02*
X99897242Y-51851895D01*
X99897242Y-51851895D02*
X99897242Y-51994752D01*
X99897242Y-51994752D02*
X99849623Y-52089990D01*
X99849623Y-52089990D02*
X99802004Y-52137609D01*
X99802004Y-52137609D02*
X99706766Y-52185228D01*
X99706766Y-52185228D02*
X99325814Y-52185228D01*
X100849623Y-52661419D02*
X100278195Y-52661419D01*
X100563909Y-52661419D02*
X100563909Y-51661419D01*
X100563909Y-51661419D02*
X100468671Y-51804276D01*
X100468671Y-51804276D02*
X100373433Y-51899514D01*
X100373433Y-51899514D02*
X100278195Y-51947133D01*
X101325814Y-52661419D02*
X101516290Y-52661419D01*
X101516290Y-52661419D02*
X101611528Y-52613800D01*
X101611528Y-52613800D02*
X101659147Y-52566180D01*
X101659147Y-52566180D02*
X101754385Y-52423323D01*
X101754385Y-52423323D02*
X101802004Y-52232847D01*
X101802004Y-52232847D02*
X101802004Y-51851895D01*
X101802004Y-51851895D02*
X101754385Y-51756657D01*
X101754385Y-51756657D02*
X101706766Y-51709038D01*
X101706766Y-51709038D02*
X101611528Y-51661419D01*
X101611528Y-51661419D02*
X101421052Y-51661419D01*
X101421052Y-51661419D02*
X101325814Y-51709038D01*
X101325814Y-51709038D02*
X101278195Y-51756657D01*
X101278195Y-51756657D02*
X101230576Y-51851895D01*
X101230576Y-51851895D02*
X101230576Y-52089990D01*
X101230576Y-52089990D02*
X101278195Y-52185228D01*
X101278195Y-52185228D02*
X101325814Y-52232847D01*
X101325814Y-52232847D02*
X101421052Y-52280466D01*
X101421052Y-52280466D02*
X101611528Y-52280466D01*
X101611528Y-52280466D02*
X101706766Y-52232847D01*
X101706766Y-52232847D02*
X101754385Y-52185228D01*
X101754385Y-52185228D02*
X101802004Y-52089990D01*
X67465733Y-43779019D02*
X67132400Y-43302828D01*
X66894305Y-43779019D02*
X66894305Y-42779019D01*
X66894305Y-42779019D02*
X67275257Y-42779019D01*
X67275257Y-42779019D02*
X67370495Y-42826638D01*
X67370495Y-42826638D02*
X67418114Y-42874257D01*
X67418114Y-42874257D02*
X67465733Y-42969495D01*
X67465733Y-42969495D02*
X67465733Y-43112352D01*
X67465733Y-43112352D02*
X67418114Y-43207590D01*
X67418114Y-43207590D02*
X67370495Y-43255209D01*
X67370495Y-43255209D02*
X67275257Y-43302828D01*
X67275257Y-43302828D02*
X66894305Y-43302828D01*
X68322876Y-42779019D02*
X68132400Y-42779019D01*
X68132400Y-42779019D02*
X68037162Y-42826638D01*
X68037162Y-42826638D02*
X67989543Y-42874257D01*
X67989543Y-42874257D02*
X67894305Y-43017114D01*
X67894305Y-43017114D02*
X67846686Y-43207590D01*
X67846686Y-43207590D02*
X67846686Y-43588542D01*
X67846686Y-43588542D02*
X67894305Y-43683780D01*
X67894305Y-43683780D02*
X67941924Y-43731400D01*
X67941924Y-43731400D02*
X68037162Y-43779019D01*
X68037162Y-43779019D02*
X68227638Y-43779019D01*
X68227638Y-43779019D02*
X68322876Y-43731400D01*
X68322876Y-43731400D02*
X68370495Y-43683780D01*
X68370495Y-43683780D02*
X68418114Y-43588542D01*
X68418114Y-43588542D02*
X68418114Y-43350447D01*
X68418114Y-43350447D02*
X68370495Y-43255209D01*
X68370495Y-43255209D02*
X68322876Y-43207590D01*
X68322876Y-43207590D02*
X68227638Y-43159971D01*
X68227638Y-43159971D02*
X68037162Y-43159971D01*
X68037162Y-43159971D02*
X67941924Y-43207590D01*
X67941924Y-43207590D02*
X67894305Y-43255209D01*
X67894305Y-43255209D02*
X67846686Y-43350447D01*
X59134533Y-64835619D02*
X58801200Y-64359428D01*
X58563105Y-64835619D02*
X58563105Y-63835619D01*
X58563105Y-63835619D02*
X58944057Y-63835619D01*
X58944057Y-63835619D02*
X59039295Y-63883238D01*
X59039295Y-63883238D02*
X59086914Y-63930857D01*
X59086914Y-63930857D02*
X59134533Y-64026095D01*
X59134533Y-64026095D02*
X59134533Y-64168952D01*
X59134533Y-64168952D02*
X59086914Y-64264190D01*
X59086914Y-64264190D02*
X59039295Y-64311809D01*
X59039295Y-64311809D02*
X58944057Y-64359428D01*
X58944057Y-64359428D02*
X58563105Y-64359428D01*
X59467867Y-63835619D02*
X60086914Y-63835619D01*
X60086914Y-63835619D02*
X59753581Y-64216571D01*
X59753581Y-64216571D02*
X59896438Y-64216571D01*
X59896438Y-64216571D02*
X59991676Y-64264190D01*
X59991676Y-64264190D02*
X60039295Y-64311809D01*
X60039295Y-64311809D02*
X60086914Y-64407047D01*
X60086914Y-64407047D02*
X60086914Y-64645142D01*
X60086914Y-64645142D02*
X60039295Y-64740380D01*
X60039295Y-64740380D02*
X59991676Y-64788000D01*
X59991676Y-64788000D02*
X59896438Y-64835619D01*
X59896438Y-64835619D02*
X59610724Y-64835619D01*
X59610724Y-64835619D02*
X59515486Y-64788000D01*
X59515486Y-64788000D02*
X59467867Y-64740380D01*
X65557142Y-53792980D02*
X65509523Y-53840600D01*
X65509523Y-53840600D02*
X65366666Y-53888219D01*
X65366666Y-53888219D02*
X65271428Y-53888219D01*
X65271428Y-53888219D02*
X65128571Y-53840600D01*
X65128571Y-53840600D02*
X65033333Y-53745361D01*
X65033333Y-53745361D02*
X64985714Y-53650123D01*
X64985714Y-53650123D02*
X64938095Y-53459647D01*
X64938095Y-53459647D02*
X64938095Y-53316790D01*
X64938095Y-53316790D02*
X64985714Y-53126314D01*
X64985714Y-53126314D02*
X65033333Y-53031076D01*
X65033333Y-53031076D02*
X65128571Y-52935838D01*
X65128571Y-52935838D02*
X65271428Y-52888219D01*
X65271428Y-52888219D02*
X65366666Y-52888219D01*
X65366666Y-52888219D02*
X65509523Y-52935838D01*
X65509523Y-52935838D02*
X65557142Y-52983457D01*
X66509523Y-53888219D02*
X65938095Y-53888219D01*
X66223809Y-53888219D02*
X66223809Y-52888219D01*
X66223809Y-52888219D02*
X66128571Y-53031076D01*
X66128571Y-53031076D02*
X66033333Y-53126314D01*
X66033333Y-53126314D02*
X65938095Y-53173933D01*
X66890476Y-52983457D02*
X66938095Y-52935838D01*
X66938095Y-52935838D02*
X67033333Y-52888219D01*
X67033333Y-52888219D02*
X67271428Y-52888219D01*
X67271428Y-52888219D02*
X67366666Y-52935838D01*
X67366666Y-52935838D02*
X67414285Y-52983457D01*
X67414285Y-52983457D02*
X67461904Y-53078695D01*
X67461904Y-53078695D02*
X67461904Y-53173933D01*
X67461904Y-53173933D02*
X67414285Y-53316790D01*
X67414285Y-53316790D02*
X66842857Y-53888219D01*
X66842857Y-53888219D02*
X67461904Y-53888219D01*
X81370666Y-71201619D02*
X81370666Y-71915904D01*
X81370666Y-71915904D02*
X81323047Y-72058761D01*
X81323047Y-72058761D02*
X81227809Y-72154000D01*
X81227809Y-72154000D02*
X81084952Y-72201619D01*
X81084952Y-72201619D02*
X80989714Y-72201619D01*
X82275428Y-71534952D02*
X82275428Y-72201619D01*
X82037333Y-71154000D02*
X81799238Y-71868285D01*
X81799238Y-71868285D02*
X82418285Y-71868285D01*
X76360980Y-75468819D02*
X75884790Y-75468819D01*
X75884790Y-75468819D02*
X75837171Y-75945009D01*
X75837171Y-75945009D02*
X75884790Y-75897390D01*
X75884790Y-75897390D02*
X75980028Y-75849771D01*
X75980028Y-75849771D02*
X76218123Y-75849771D01*
X76218123Y-75849771D02*
X76313361Y-75897390D01*
X76313361Y-75897390D02*
X76360980Y-75945009D01*
X76360980Y-75945009D02*
X76408599Y-76040247D01*
X76408599Y-76040247D02*
X76408599Y-76278342D01*
X76408599Y-76278342D02*
X76360980Y-76373580D01*
X76360980Y-76373580D02*
X76313361Y-76421200D01*
X76313361Y-76421200D02*
X76218123Y-76468819D01*
X76218123Y-76468819D02*
X75980028Y-76468819D01*
X75980028Y-76468819D02*
X75884790Y-76421200D01*
X75884790Y-76421200D02*
X75837171Y-76373580D01*
X77027647Y-75468819D02*
X77122885Y-75468819D01*
X77122885Y-75468819D02*
X77218123Y-75516438D01*
X77218123Y-75516438D02*
X77265742Y-75564057D01*
X77265742Y-75564057D02*
X77313361Y-75659295D01*
X77313361Y-75659295D02*
X77360980Y-75849771D01*
X77360980Y-75849771D02*
X77360980Y-76087866D01*
X77360980Y-76087866D02*
X77313361Y-76278342D01*
X77313361Y-76278342D02*
X77265742Y-76373580D01*
X77265742Y-76373580D02*
X77218123Y-76421200D01*
X77218123Y-76421200D02*
X77122885Y-76468819D01*
X77122885Y-76468819D02*
X77027647Y-76468819D01*
X77027647Y-76468819D02*
X76932409Y-76421200D01*
X76932409Y-76421200D02*
X76884790Y-76373580D01*
X76884790Y-76373580D02*
X76837171Y-76278342D01*
X76837171Y-76278342D02*
X76789552Y-76087866D01*
X76789552Y-76087866D02*
X76789552Y-75849771D01*
X76789552Y-75849771D02*
X76837171Y-75659295D01*
X76837171Y-75659295D02*
X76884790Y-75564057D01*
X76884790Y-75564057D02*
X76932409Y-75516438D01*
X76932409Y-75516438D02*
X77027647Y-75468819D01*
X78265742Y-75468819D02*
X77789552Y-75468819D01*
X77789552Y-75468819D02*
X77741933Y-75945009D01*
X77741933Y-75945009D02*
X77789552Y-75897390D01*
X77789552Y-75897390D02*
X77884790Y-75849771D01*
X77884790Y-75849771D02*
X78122885Y-75849771D01*
X78122885Y-75849771D02*
X78218123Y-75897390D01*
X78218123Y-75897390D02*
X78265742Y-75945009D01*
X78265742Y-75945009D02*
X78313361Y-76040247D01*
X78313361Y-76040247D02*
X78313361Y-76278342D01*
X78313361Y-76278342D02*
X78265742Y-76373580D01*
X78265742Y-76373580D02*
X78218123Y-76421200D01*
X78218123Y-76421200D02*
X78122885Y-76468819D01*
X78122885Y-76468819D02*
X77884790Y-76468819D01*
X77884790Y-76468819D02*
X77789552Y-76421200D01*
X77789552Y-76421200D02*
X77741933Y-76373580D01*
X79265742Y-76468819D02*
X78694314Y-76468819D01*
X78980028Y-76468819D02*
X78980028Y-75468819D01*
X78980028Y-75468819D02*
X78884790Y-75611676D01*
X78884790Y-75611676D02*
X78789552Y-75706914D01*
X78789552Y-75706914D02*
X78694314Y-75754533D01*
X80218123Y-76468819D02*
X79646695Y-76468819D01*
X79932409Y-76468819D02*
X79932409Y-75468819D01*
X79932409Y-75468819D02*
X79837171Y-75611676D01*
X79837171Y-75611676D02*
X79741933Y-75706914D01*
X79741933Y-75706914D02*
X79646695Y-75754533D01*
X80837171Y-75468819D02*
X80932409Y-75468819D01*
X80932409Y-75468819D02*
X81027647Y-75516438D01*
X81027647Y-75516438D02*
X81075266Y-75564057D01*
X81075266Y-75564057D02*
X81122885Y-75659295D01*
X81122885Y-75659295D02*
X81170504Y-75849771D01*
X81170504Y-75849771D02*
X81170504Y-76087866D01*
X81170504Y-76087866D02*
X81122885Y-76278342D01*
X81122885Y-76278342D02*
X81075266Y-76373580D01*
X81075266Y-76373580D02*
X81027647Y-76421200D01*
X81027647Y-76421200D02*
X80932409Y-76468819D01*
X80932409Y-76468819D02*
X80837171Y-76468819D01*
X80837171Y-76468819D02*
X80741933Y-76421200D01*
X80741933Y-76421200D02*
X80694314Y-76373580D01*
X80694314Y-76373580D02*
X80646695Y-76278342D01*
X80646695Y-76278342D02*
X80599076Y-76087866D01*
X80599076Y-76087866D02*
X80599076Y-75849771D01*
X80599076Y-75849771D02*
X80646695Y-75659295D01*
X80646695Y-75659295D02*
X80694314Y-75564057D01*
X80694314Y-75564057D02*
X80741933Y-75516438D01*
X80741933Y-75516438D02*
X80837171Y-75468819D01*
X82122885Y-76468819D02*
X81551457Y-76468819D01*
X81837171Y-76468819D02*
X81837171Y-75468819D01*
X81837171Y-75468819D02*
X81741933Y-75611676D01*
X81741933Y-75611676D02*
X81646695Y-75706914D01*
X81646695Y-75706914D02*
X81551457Y-75754533D01*
X82694314Y-75897390D02*
X82599076Y-75849771D01*
X82599076Y-75849771D02*
X82551457Y-75802152D01*
X82551457Y-75802152D02*
X82503838Y-75706914D01*
X82503838Y-75706914D02*
X82503838Y-75659295D01*
X82503838Y-75659295D02*
X82551457Y-75564057D01*
X82551457Y-75564057D02*
X82599076Y-75516438D01*
X82599076Y-75516438D02*
X82694314Y-75468819D01*
X82694314Y-75468819D02*
X82884790Y-75468819D01*
X82884790Y-75468819D02*
X82980028Y-75516438D01*
X82980028Y-75516438D02*
X83027647Y-75564057D01*
X83027647Y-75564057D02*
X83075266Y-75659295D01*
X83075266Y-75659295D02*
X83075266Y-75706914D01*
X83075266Y-75706914D02*
X83027647Y-75802152D01*
X83027647Y-75802152D02*
X82980028Y-75849771D01*
X82980028Y-75849771D02*
X82884790Y-75897390D01*
X82884790Y-75897390D02*
X82694314Y-75897390D01*
X82694314Y-75897390D02*
X82599076Y-75945009D01*
X82599076Y-75945009D02*
X82551457Y-75992628D01*
X82551457Y-75992628D02*
X82503838Y-76087866D01*
X82503838Y-76087866D02*
X82503838Y-76278342D01*
X82503838Y-76278342D02*
X82551457Y-76373580D01*
X82551457Y-76373580D02*
X82599076Y-76421200D01*
X82599076Y-76421200D02*
X82694314Y-76468819D01*
X82694314Y-76468819D02*
X82884790Y-76468819D01*
X82884790Y-76468819D02*
X82980028Y-76421200D01*
X82980028Y-76421200D02*
X83027647Y-76373580D01*
X83027647Y-76373580D02*
X83075266Y-76278342D01*
X83075266Y-76278342D02*
X83075266Y-76087866D01*
X83075266Y-76087866D02*
X83027647Y-75992628D01*
X83027647Y-75992628D02*
X82980028Y-75945009D01*
X82980028Y-75945009D02*
X82884790Y-75897390D01*
X83551457Y-76468819D02*
X83741933Y-76468819D01*
X83741933Y-76468819D02*
X83837171Y-76421200D01*
X83837171Y-76421200D02*
X83884790Y-76373580D01*
X83884790Y-76373580D02*
X83980028Y-76230723D01*
X83980028Y-76230723D02*
X84027647Y-76040247D01*
X84027647Y-76040247D02*
X84027647Y-75659295D01*
X84027647Y-75659295D02*
X83980028Y-75564057D01*
X83980028Y-75564057D02*
X83932409Y-75516438D01*
X83932409Y-75516438D02*
X83837171Y-75468819D01*
X83837171Y-75468819D02*
X83646695Y-75468819D01*
X83646695Y-75468819D02*
X83551457Y-75516438D01*
X83551457Y-75516438D02*
X83503838Y-75564057D01*
X83503838Y-75564057D02*
X83456219Y-75659295D01*
X83456219Y-75659295D02*
X83456219Y-75897390D01*
X83456219Y-75897390D02*
X83503838Y-75992628D01*
X83503838Y-75992628D02*
X83551457Y-76040247D01*
X83551457Y-76040247D02*
X83646695Y-76087866D01*
X83646695Y-76087866D02*
X83837171Y-76087866D01*
X83837171Y-76087866D02*
X83932409Y-76040247D01*
X83932409Y-76040247D02*
X83980028Y-75992628D01*
X83980028Y-75992628D02*
X84027647Y-75897390D01*
X84408600Y-75564057D02*
X84456219Y-75516438D01*
X84456219Y-75516438D02*
X84551457Y-75468819D01*
X84551457Y-75468819D02*
X84789552Y-75468819D01*
X84789552Y-75468819D02*
X84884790Y-75516438D01*
X84884790Y-75516438D02*
X84932409Y-75564057D01*
X84932409Y-75564057D02*
X84980028Y-75659295D01*
X84980028Y-75659295D02*
X84980028Y-75754533D01*
X84980028Y-75754533D02*
X84932409Y-75897390D01*
X84932409Y-75897390D02*
X84360981Y-76468819D01*
X84360981Y-76468819D02*
X84980028Y-76468819D01*
X65846542Y-45410980D02*
X65798923Y-45458600D01*
X65798923Y-45458600D02*
X65656066Y-45506219D01*
X65656066Y-45506219D02*
X65560828Y-45506219D01*
X65560828Y-45506219D02*
X65417971Y-45458600D01*
X65417971Y-45458600D02*
X65322733Y-45363361D01*
X65322733Y-45363361D02*
X65275114Y-45268123D01*
X65275114Y-45268123D02*
X65227495Y-45077647D01*
X65227495Y-45077647D02*
X65227495Y-44934790D01*
X65227495Y-44934790D02*
X65275114Y-44744314D01*
X65275114Y-44744314D02*
X65322733Y-44649076D01*
X65322733Y-44649076D02*
X65417971Y-44553838D01*
X65417971Y-44553838D02*
X65560828Y-44506219D01*
X65560828Y-44506219D02*
X65656066Y-44506219D01*
X65656066Y-44506219D02*
X65798923Y-44553838D01*
X65798923Y-44553838D02*
X65846542Y-44601457D01*
X66798923Y-45506219D02*
X66227495Y-45506219D01*
X66513209Y-45506219D02*
X66513209Y-44506219D01*
X66513209Y-44506219D02*
X66417971Y-44649076D01*
X66417971Y-44649076D02*
X66322733Y-44744314D01*
X66322733Y-44744314D02*
X66227495Y-44791933D01*
X67417971Y-44506219D02*
X67513209Y-44506219D01*
X67513209Y-44506219D02*
X67608447Y-44553838D01*
X67608447Y-44553838D02*
X67656066Y-44601457D01*
X67656066Y-44601457D02*
X67703685Y-44696695D01*
X67703685Y-44696695D02*
X67751304Y-44887171D01*
X67751304Y-44887171D02*
X67751304Y-45125266D01*
X67751304Y-45125266D02*
X67703685Y-45315742D01*
X67703685Y-45315742D02*
X67656066Y-45410980D01*
X67656066Y-45410980D02*
X67608447Y-45458600D01*
X67608447Y-45458600D02*
X67513209Y-45506219D01*
X67513209Y-45506219D02*
X67417971Y-45506219D01*
X67417971Y-45506219D02*
X67322733Y-45458600D01*
X67322733Y-45458600D02*
X67275114Y-45410980D01*
X67275114Y-45410980D02*
X67227495Y-45315742D01*
X67227495Y-45315742D02*
X67179876Y-45125266D01*
X67179876Y-45125266D02*
X67179876Y-44887171D01*
X67179876Y-44887171D02*
X67227495Y-44696695D01*
X67227495Y-44696695D02*
X67275114Y-44601457D01*
X67275114Y-44601457D02*
X67322733Y-44553838D01*
X67322733Y-44553838D02*
X67417971Y-44506219D01*
X79510980Y-62247457D02*
X79558600Y-62295076D01*
X79558600Y-62295076D02*
X79606219Y-62437933D01*
X79606219Y-62437933D02*
X79606219Y-62533171D01*
X79606219Y-62533171D02*
X79558600Y-62676028D01*
X79558600Y-62676028D02*
X79463361Y-62771266D01*
X79463361Y-62771266D02*
X79368123Y-62818885D01*
X79368123Y-62818885D02*
X79177647Y-62866504D01*
X79177647Y-62866504D02*
X79034790Y-62866504D01*
X79034790Y-62866504D02*
X78844314Y-62818885D01*
X78844314Y-62818885D02*
X78749076Y-62771266D01*
X78749076Y-62771266D02*
X78653838Y-62676028D01*
X78653838Y-62676028D02*
X78606219Y-62533171D01*
X78606219Y-62533171D02*
X78606219Y-62437933D01*
X78606219Y-62437933D02*
X78653838Y-62295076D01*
X78653838Y-62295076D02*
X78701457Y-62247457D01*
X79606219Y-61295076D02*
X79606219Y-61866504D01*
X79606219Y-61580790D02*
X78606219Y-61580790D01*
X78606219Y-61580790D02*
X78749076Y-61676028D01*
X78749076Y-61676028D02*
X78844314Y-61771266D01*
X78844314Y-61771266D02*
X78891933Y-61866504D01*
X78939552Y-60437933D02*
X79606219Y-60437933D01*
X78558600Y-60676028D02*
X79272885Y-60914123D01*
X79272885Y-60914123D02*
X79272885Y-60295076D01*
X41323319Y-72883357D02*
X40847128Y-73216690D01*
X41323319Y-73454785D02*
X40323319Y-73454785D01*
X40323319Y-73454785D02*
X40323319Y-73073833D01*
X40323319Y-73073833D02*
X40370938Y-72978595D01*
X40370938Y-72978595D02*
X40418557Y-72930976D01*
X40418557Y-72930976D02*
X40513795Y-72883357D01*
X40513795Y-72883357D02*
X40656652Y-72883357D01*
X40656652Y-72883357D02*
X40751890Y-72930976D01*
X40751890Y-72930976D02*
X40799509Y-72978595D01*
X40799509Y-72978595D02*
X40847128Y-73073833D01*
X40847128Y-73073833D02*
X40847128Y-73454785D01*
X41323319Y-71930976D02*
X41323319Y-72502404D01*
X41323319Y-72216690D02*
X40323319Y-72216690D01*
X40323319Y-72216690D02*
X40466176Y-72311928D01*
X40466176Y-72311928D02*
X40561414Y-72407166D01*
X40561414Y-72407166D02*
X40609033Y-72502404D01*
X40323319Y-71311928D02*
X40323319Y-71216690D01*
X40323319Y-71216690D02*
X40370938Y-71121452D01*
X40370938Y-71121452D02*
X40418557Y-71073833D01*
X40418557Y-71073833D02*
X40513795Y-71026214D01*
X40513795Y-71026214D02*
X40704271Y-70978595D01*
X40704271Y-70978595D02*
X40942366Y-70978595D01*
X40942366Y-70978595D02*
X41132842Y-71026214D01*
X41132842Y-71026214D02*
X41228080Y-71073833D01*
X41228080Y-71073833D02*
X41275700Y-71121452D01*
X41275700Y-71121452D02*
X41323319Y-71216690D01*
X41323319Y-71216690D02*
X41323319Y-71311928D01*
X41323319Y-71311928D02*
X41275700Y-71407166D01*
X41275700Y-71407166D02*
X41228080Y-71454785D01*
X41228080Y-71454785D02*
X41132842Y-71502404D01*
X41132842Y-71502404D02*
X40942366Y-71550023D01*
X40942366Y-71550023D02*
X40704271Y-71550023D01*
X40704271Y-71550023D02*
X40513795Y-71502404D01*
X40513795Y-71502404D02*
X40418557Y-71454785D01*
X40418557Y-71454785D02*
X40370938Y-71407166D01*
X40370938Y-71407166D02*
X40323319Y-71311928D01*
X84489380Y-62247457D02*
X84537000Y-62295076D01*
X84537000Y-62295076D02*
X84584619Y-62437933D01*
X84584619Y-62437933D02*
X84584619Y-62533171D01*
X84584619Y-62533171D02*
X84537000Y-62676028D01*
X84537000Y-62676028D02*
X84441761Y-62771266D01*
X84441761Y-62771266D02*
X84346523Y-62818885D01*
X84346523Y-62818885D02*
X84156047Y-62866504D01*
X84156047Y-62866504D02*
X84013190Y-62866504D01*
X84013190Y-62866504D02*
X83822714Y-62818885D01*
X83822714Y-62818885D02*
X83727476Y-62771266D01*
X83727476Y-62771266D02*
X83632238Y-62676028D01*
X83632238Y-62676028D02*
X83584619Y-62533171D01*
X83584619Y-62533171D02*
X83584619Y-62437933D01*
X83584619Y-62437933D02*
X83632238Y-62295076D01*
X83632238Y-62295076D02*
X83679857Y-62247457D01*
X84584619Y-61295076D02*
X84584619Y-61866504D01*
X84584619Y-61580790D02*
X83584619Y-61580790D01*
X83584619Y-61580790D02*
X83727476Y-61676028D01*
X83727476Y-61676028D02*
X83822714Y-61771266D01*
X83822714Y-61771266D02*
X83870333Y-61866504D01*
X83584619Y-60961742D02*
X83584619Y-60342695D01*
X83584619Y-60342695D02*
X83965571Y-60676028D01*
X83965571Y-60676028D02*
X83965571Y-60533171D01*
X83965571Y-60533171D02*
X84013190Y-60437933D01*
X84013190Y-60437933D02*
X84060809Y-60390314D01*
X84060809Y-60390314D02*
X84156047Y-60342695D01*
X84156047Y-60342695D02*
X84394142Y-60342695D01*
X84394142Y-60342695D02*
X84489380Y-60390314D01*
X84489380Y-60390314D02*
X84537000Y-60437933D01*
X84537000Y-60437933D02*
X84584619Y-60533171D01*
X84584619Y-60533171D02*
X84584619Y-60818885D01*
X84584619Y-60818885D02*
X84537000Y-60914123D01*
X84537000Y-60914123D02*
X84489380Y-60961742D01*
X56704643Y-27223879D02*
X56657024Y-27271499D01*
X56657024Y-27271499D02*
X56514167Y-27319118D01*
X56514167Y-27319118D02*
X56418929Y-27319118D01*
X56418929Y-27319118D02*
X56276072Y-27271499D01*
X56276072Y-27271499D02*
X56180834Y-27176260D01*
X56180834Y-27176260D02*
X56133215Y-27081022D01*
X56133215Y-27081022D02*
X56085596Y-26890546D01*
X56085596Y-26890546D02*
X56085596Y-26747689D01*
X56085596Y-26747689D02*
X56133215Y-26557213D01*
X56133215Y-26557213D02*
X56180834Y-26461975D01*
X56180834Y-26461975D02*
X56276072Y-26366737D01*
X56276072Y-26366737D02*
X56418929Y-26319118D01*
X56418929Y-26319118D02*
X56514167Y-26319118D01*
X56514167Y-26319118D02*
X56657024Y-26366737D01*
X56657024Y-26366737D02*
X56704643Y-26414356D01*
X57085596Y-26414356D02*
X57133215Y-26366737D01*
X57133215Y-26366737D02*
X57228453Y-26319118D01*
X57228453Y-26319118D02*
X57466548Y-26319118D01*
X57466548Y-26319118D02*
X57561786Y-26366737D01*
X57561786Y-26366737D02*
X57609405Y-26414356D01*
X57609405Y-26414356D02*
X57657024Y-26509594D01*
X57657024Y-26509594D02*
X57657024Y-26604832D01*
X57657024Y-26604832D02*
X57609405Y-26747689D01*
X57609405Y-26747689D02*
X57037977Y-27319118D01*
X57037977Y-27319118D02*
X57657024Y-27319118D01*
X58609405Y-27319118D02*
X58037977Y-27319118D01*
X58323691Y-27319118D02*
X58323691Y-26319118D01*
X58323691Y-26319118D02*
X58228453Y-26461975D01*
X58228453Y-26461975D02*
X58133215Y-26557213D01*
X58133215Y-26557213D02*
X58037977Y-26604832D01*
X99162233Y-42964980D02*
X99114614Y-43012600D01*
X99114614Y-43012600D02*
X98971757Y-43060219D01*
X98971757Y-43060219D02*
X98876519Y-43060219D01*
X98876519Y-43060219D02*
X98733662Y-43012600D01*
X98733662Y-43012600D02*
X98638424Y-42917361D01*
X98638424Y-42917361D02*
X98590805Y-42822123D01*
X98590805Y-42822123D02*
X98543186Y-42631647D01*
X98543186Y-42631647D02*
X98543186Y-42488790D01*
X98543186Y-42488790D02*
X98590805Y-42298314D01*
X98590805Y-42298314D02*
X98638424Y-42203076D01*
X98638424Y-42203076D02*
X98733662Y-42107838D01*
X98733662Y-42107838D02*
X98876519Y-42060219D01*
X98876519Y-42060219D02*
X98971757Y-42060219D01*
X98971757Y-42060219D02*
X99114614Y-42107838D01*
X99114614Y-42107838D02*
X99162233Y-42155457D01*
X99733662Y-42488790D02*
X99638424Y-42441171D01*
X99638424Y-42441171D02*
X99590805Y-42393552D01*
X99590805Y-42393552D02*
X99543186Y-42298314D01*
X99543186Y-42298314D02*
X99543186Y-42250695D01*
X99543186Y-42250695D02*
X99590805Y-42155457D01*
X99590805Y-42155457D02*
X99638424Y-42107838D01*
X99638424Y-42107838D02*
X99733662Y-42060219D01*
X99733662Y-42060219D02*
X99924138Y-42060219D01*
X99924138Y-42060219D02*
X100019376Y-42107838D01*
X100019376Y-42107838D02*
X100066995Y-42155457D01*
X100066995Y-42155457D02*
X100114614Y-42250695D01*
X100114614Y-42250695D02*
X100114614Y-42298314D01*
X100114614Y-42298314D02*
X100066995Y-42393552D01*
X100066995Y-42393552D02*
X100019376Y-42441171D01*
X100019376Y-42441171D02*
X99924138Y-42488790D01*
X99924138Y-42488790D02*
X99733662Y-42488790D01*
X99733662Y-42488790D02*
X99638424Y-42536409D01*
X99638424Y-42536409D02*
X99590805Y-42584028D01*
X99590805Y-42584028D02*
X99543186Y-42679266D01*
X99543186Y-42679266D02*
X99543186Y-42869742D01*
X99543186Y-42869742D02*
X99590805Y-42964980D01*
X99590805Y-42964980D02*
X99638424Y-43012600D01*
X99638424Y-43012600D02*
X99733662Y-43060219D01*
X99733662Y-43060219D02*
X99924138Y-43060219D01*
X99924138Y-43060219D02*
X100019376Y-43012600D01*
X100019376Y-43012600D02*
X100066995Y-42964980D01*
X100066995Y-42964980D02*
X100114614Y-42869742D01*
X100114614Y-42869742D02*
X100114614Y-42679266D01*
X100114614Y-42679266D02*
X100066995Y-42584028D01*
X100066995Y-42584028D02*
X100019376Y-42536409D01*
X100019376Y-42536409D02*
X99924138Y-42488790D01*
X98183967Y-74160600D02*
X98326824Y-74208219D01*
X98326824Y-74208219D02*
X98564919Y-74208219D01*
X98564919Y-74208219D02*
X98660157Y-74160600D01*
X98660157Y-74160600D02*
X98707776Y-74112980D01*
X98707776Y-74112980D02*
X98755395Y-74017742D01*
X98755395Y-74017742D02*
X98755395Y-73922504D01*
X98755395Y-73922504D02*
X98707776Y-73827266D01*
X98707776Y-73827266D02*
X98660157Y-73779647D01*
X98660157Y-73779647D02*
X98564919Y-73732028D01*
X98564919Y-73732028D02*
X98374443Y-73684409D01*
X98374443Y-73684409D02*
X98279205Y-73636790D01*
X98279205Y-73636790D02*
X98231586Y-73589171D01*
X98231586Y-73589171D02*
X98183967Y-73493933D01*
X98183967Y-73493933D02*
X98183967Y-73398695D01*
X98183967Y-73398695D02*
X98231586Y-73303457D01*
X98231586Y-73303457D02*
X98279205Y-73255838D01*
X98279205Y-73255838D02*
X98374443Y-73208219D01*
X98374443Y-73208219D02*
X98612538Y-73208219D01*
X98612538Y-73208219D02*
X98755395Y-73255838D01*
X99088729Y-73208219D02*
X99326824Y-74208219D01*
X99326824Y-74208219D02*
X99517300Y-73493933D01*
X99517300Y-73493933D02*
X99707776Y-74208219D01*
X99707776Y-74208219D02*
X99945872Y-73208219D01*
X100803014Y-73208219D02*
X100326824Y-73208219D01*
X100326824Y-73208219D02*
X100279205Y-73684409D01*
X100279205Y-73684409D02*
X100326824Y-73636790D01*
X100326824Y-73636790D02*
X100422062Y-73589171D01*
X100422062Y-73589171D02*
X100660157Y-73589171D01*
X100660157Y-73589171D02*
X100755395Y-73636790D01*
X100755395Y-73636790D02*
X100803014Y-73684409D01*
X100803014Y-73684409D02*
X100850633Y-73779647D01*
X100850633Y-73779647D02*
X100850633Y-74017742D01*
X100850633Y-74017742D02*
X100803014Y-74112980D01*
X100803014Y-74112980D02*
X100755395Y-74160600D01*
X100755395Y-74160600D02*
X100660157Y-74208219D01*
X100660157Y-74208219D02*
X100422062Y-74208219D01*
X100422062Y-74208219D02*
X100326824Y-74160600D01*
X100326824Y-74160600D02*
X100279205Y-74112980D01*
X83526480Y-35231266D02*
X83574100Y-35278885D01*
X83574100Y-35278885D02*
X83621719Y-35421742D01*
X83621719Y-35421742D02*
X83621719Y-35516980D01*
X83621719Y-35516980D02*
X83574100Y-35659837D01*
X83574100Y-35659837D02*
X83478861Y-35755075D01*
X83478861Y-35755075D02*
X83383623Y-35802694D01*
X83383623Y-35802694D02*
X83193147Y-35850313D01*
X83193147Y-35850313D02*
X83050290Y-35850313D01*
X83050290Y-35850313D02*
X82859814Y-35802694D01*
X82859814Y-35802694D02*
X82764576Y-35755075D01*
X82764576Y-35755075D02*
X82669338Y-35659837D01*
X82669338Y-35659837D02*
X82621719Y-35516980D01*
X82621719Y-35516980D02*
X82621719Y-35421742D01*
X82621719Y-35421742D02*
X82669338Y-35278885D01*
X82669338Y-35278885D02*
X82716957Y-35231266D01*
X82621719Y-34374123D02*
X82621719Y-34564599D01*
X82621719Y-34564599D02*
X82669338Y-34659837D01*
X82669338Y-34659837D02*
X82716957Y-34707456D01*
X82716957Y-34707456D02*
X82859814Y-34802694D01*
X82859814Y-34802694D02*
X83050290Y-34850313D01*
X83050290Y-34850313D02*
X83431242Y-34850313D01*
X83431242Y-34850313D02*
X83526480Y-34802694D01*
X83526480Y-34802694D02*
X83574100Y-34755075D01*
X83574100Y-34755075D02*
X83621719Y-34659837D01*
X83621719Y-34659837D02*
X83621719Y-34469361D01*
X83621719Y-34469361D02*
X83574100Y-34374123D01*
X83574100Y-34374123D02*
X83526480Y-34326504D01*
X83526480Y-34326504D02*
X83431242Y-34278885D01*
X83431242Y-34278885D02*
X83193147Y-34278885D01*
X83193147Y-34278885D02*
X83097909Y-34326504D01*
X83097909Y-34326504D02*
X83050290Y-34374123D01*
X83050290Y-34374123D02*
X83002671Y-34469361D01*
X83002671Y-34469361D02*
X83002671Y-34659837D01*
X83002671Y-34659837D02*
X83050290Y-34755075D01*
X83050290Y-34755075D02*
X83097909Y-34802694D01*
X83097909Y-34802694D02*
X83193147Y-34850313D01*
X99399942Y-34133380D02*
X99352323Y-34181000D01*
X99352323Y-34181000D02*
X99209466Y-34228619D01*
X99209466Y-34228619D02*
X99114228Y-34228619D01*
X99114228Y-34228619D02*
X98971371Y-34181000D01*
X98971371Y-34181000D02*
X98876133Y-34085761D01*
X98876133Y-34085761D02*
X98828514Y-33990523D01*
X98828514Y-33990523D02*
X98780895Y-33800047D01*
X98780895Y-33800047D02*
X98780895Y-33657190D01*
X98780895Y-33657190D02*
X98828514Y-33466714D01*
X98828514Y-33466714D02*
X98876133Y-33371476D01*
X98876133Y-33371476D02*
X98971371Y-33276238D01*
X98971371Y-33276238D02*
X99114228Y-33228619D01*
X99114228Y-33228619D02*
X99209466Y-33228619D01*
X99209466Y-33228619D02*
X99352323Y-33276238D01*
X99352323Y-33276238D02*
X99399942Y-33323857D01*
X100352323Y-34228619D02*
X99780895Y-34228619D01*
X100066609Y-34228619D02*
X100066609Y-33228619D01*
X100066609Y-33228619D02*
X99971371Y-33371476D01*
X99971371Y-33371476D02*
X99876133Y-33466714D01*
X99876133Y-33466714D02*
X99780895Y-33514333D01*
X100685657Y-33228619D02*
X101352323Y-33228619D01*
X101352323Y-33228619D02*
X100923752Y-34228619D01*
X53978333Y-64810219D02*
X53645000Y-64334028D01*
X53406905Y-64810219D02*
X53406905Y-63810219D01*
X53406905Y-63810219D02*
X53787857Y-63810219D01*
X53787857Y-63810219D02*
X53883095Y-63857838D01*
X53883095Y-63857838D02*
X53930714Y-63905457D01*
X53930714Y-63905457D02*
X53978333Y-64000695D01*
X53978333Y-64000695D02*
X53978333Y-64143552D01*
X53978333Y-64143552D02*
X53930714Y-64238790D01*
X53930714Y-64238790D02*
X53883095Y-64286409D01*
X53883095Y-64286409D02*
X53787857Y-64334028D01*
X53787857Y-64334028D02*
X53406905Y-64334028D01*
X54359286Y-63905457D02*
X54406905Y-63857838D01*
X54406905Y-63857838D02*
X54502143Y-63810219D01*
X54502143Y-63810219D02*
X54740238Y-63810219D01*
X54740238Y-63810219D02*
X54835476Y-63857838D01*
X54835476Y-63857838D02*
X54883095Y-63905457D01*
X54883095Y-63905457D02*
X54930714Y-64000695D01*
X54930714Y-64000695D02*
X54930714Y-64095933D01*
X54930714Y-64095933D02*
X54883095Y-64238790D01*
X54883095Y-64238790D02*
X54311667Y-64810219D01*
X54311667Y-64810219D02*
X54930714Y-64810219D01*
X48778681Y-35650356D02*
X48826301Y-35697975D01*
X48826301Y-35697975D02*
X48873920Y-35840832D01*
X48873920Y-35840832D02*
X48873920Y-35936070D01*
X48873920Y-35936070D02*
X48826301Y-36078927D01*
X48826301Y-36078927D02*
X48731062Y-36174165D01*
X48731062Y-36174165D02*
X48635824Y-36221784D01*
X48635824Y-36221784D02*
X48445348Y-36269403D01*
X48445348Y-36269403D02*
X48302491Y-36269403D01*
X48302491Y-36269403D02*
X48112015Y-36221784D01*
X48112015Y-36221784D02*
X48016777Y-36174165D01*
X48016777Y-36174165D02*
X47921539Y-36078927D01*
X47921539Y-36078927D02*
X47873920Y-35936070D01*
X47873920Y-35936070D02*
X47873920Y-35840832D01*
X47873920Y-35840832D02*
X47921539Y-35697975D01*
X47921539Y-35697975D02*
X47969158Y-35650356D01*
X47969158Y-35269403D02*
X47921539Y-35221784D01*
X47921539Y-35221784D02*
X47873920Y-35126546D01*
X47873920Y-35126546D02*
X47873920Y-34888451D01*
X47873920Y-34888451D02*
X47921539Y-34793213D01*
X47921539Y-34793213D02*
X47969158Y-34745594D01*
X47969158Y-34745594D02*
X48064396Y-34697975D01*
X48064396Y-34697975D02*
X48159634Y-34697975D01*
X48159634Y-34697975D02*
X48302491Y-34745594D01*
X48302491Y-34745594D02*
X48873920Y-35317022D01*
X48873920Y-35317022D02*
X48873920Y-34697975D01*
X47873920Y-33793213D02*
X47873920Y-34269403D01*
X47873920Y-34269403D02*
X48350110Y-34317022D01*
X48350110Y-34317022D02*
X48302491Y-34269403D01*
X48302491Y-34269403D02*
X48254872Y-34174165D01*
X48254872Y-34174165D02*
X48254872Y-33936070D01*
X48254872Y-33936070D02*
X48302491Y-33840832D01*
X48302491Y-33840832D02*
X48350110Y-33793213D01*
X48350110Y-33793213D02*
X48445348Y-33745594D01*
X48445348Y-33745594D02*
X48683443Y-33745594D01*
X48683443Y-33745594D02*
X48778681Y-33793213D01*
X48778681Y-33793213D02*
X48826301Y-33840832D01*
X48826301Y-33840832D02*
X48873920Y-33936070D01*
X48873920Y-33936070D02*
X48873920Y-34174165D01*
X48873920Y-34174165D02*
X48826301Y-34269403D01*
X48826301Y-34269403D02*
X48778681Y-34317022D01*
X66254942Y-48147819D02*
X65921609Y-47671628D01*
X65683514Y-48147819D02*
X65683514Y-47147819D01*
X65683514Y-47147819D02*
X66064466Y-47147819D01*
X66064466Y-47147819D02*
X66159704Y-47195438D01*
X66159704Y-47195438D02*
X66207323Y-47243057D01*
X66207323Y-47243057D02*
X66254942Y-47338295D01*
X66254942Y-47338295D02*
X66254942Y-47481152D01*
X66254942Y-47481152D02*
X66207323Y-47576390D01*
X66207323Y-47576390D02*
X66159704Y-47624009D01*
X66159704Y-47624009D02*
X66064466Y-47671628D01*
X66064466Y-47671628D02*
X65683514Y-47671628D01*
X67207323Y-48147819D02*
X66635895Y-48147819D01*
X66921609Y-48147819D02*
X66921609Y-47147819D01*
X66921609Y-47147819D02*
X66826371Y-47290676D01*
X66826371Y-47290676D02*
X66731133Y-47385914D01*
X66731133Y-47385914D02*
X66635895Y-47433533D01*
X68064466Y-47481152D02*
X68064466Y-48147819D01*
X67826371Y-47100200D02*
X67588276Y-47814485D01*
X67588276Y-47814485D02*
X68207323Y-47814485D01*
%TO.C,C16*%
D12*
X99965820Y-37523400D02*
X100246980Y-37523400D01*
X99965820Y-38543400D02*
X100246980Y-38543400D01*
%TO.C,C22*%
X96597520Y-40447400D02*
X96878680Y-40447400D01*
X96597520Y-41467400D02*
X96878680Y-41467400D01*
%TO.C,R12*%
X41885500Y-68814259D02*
X41885500Y-69121541D01*
X42645500Y-68814259D02*
X42645500Y-69121541D01*
%TO.C,R17*%
X69589441Y-50919800D02*
X69282159Y-50919800D01*
X69589441Y-51679800D02*
X69282159Y-51679800D01*
%TO.C,R11*%
X49179860Y-29557699D02*
X49487142Y-29557699D01*
X49179860Y-30317699D02*
X49487142Y-30317699D01*
%TO.C,SW1*%
D13*
X76584000Y-63441200D02*
X74124000Y-63441200D01*
X76584000Y-66641200D02*
X74124000Y-66641200D01*
D14*
X78672000Y-66171200D02*
G75*
G02*
X78472000Y-66171200I-100000J0D01*
G01*
X78472000Y-66171200D02*
G75*
G02*
X78672000Y-66171200I100000J0D01*
G01*
%TO.C,SW3*%
D13*
X105348400Y-67894400D02*
X107808400Y-67894400D01*
X105348400Y-71094400D02*
X107808400Y-71094400D01*
D14*
X103460400Y-68364400D02*
G75*
G02*
X103260400Y-68364400I-100000J0D01*
G01*
X103260400Y-68364400D02*
G75*
G02*
X103460400Y-68364400I100000J0D01*
G01*
%TO.C,C9*%
D12*
X96701820Y-48097400D02*
X96982980Y-48097400D01*
X96701820Y-49117400D02*
X96982980Y-49117400D01*
%TO.C,U3*%
X73222400Y-38213400D02*
X74172400Y-38213400D01*
X73222400Y-39163400D02*
X73222400Y-38213400D01*
X73222400Y-58433400D02*
X73222400Y-57483400D01*
X74172400Y-58433400D02*
X73222400Y-58433400D01*
X92492400Y-38213400D02*
X93442400Y-38213400D01*
X93442400Y-38213400D02*
X93442400Y-39163400D01*
X93442400Y-57483400D02*
X93442400Y-58433400D01*
X93442400Y-58433400D02*
X92492400Y-58433400D01*
X94082400Y-57483400D02*
X94422400Y-57953400D01*
X93742400Y-57953400D01*
X94082400Y-57483400D01*
G36*
X94422400Y-57953400D02*
G01*
X93742400Y-57953400D01*
X94082400Y-57483400D01*
X94422400Y-57953400D01*
G37*
%TO.C,C23*%
X99899520Y-40447400D02*
X100180680Y-40447400D01*
X99899520Y-41467400D02*
X100180680Y-41467400D01*
%TO.C,R13*%
X44762501Y-27070740D02*
X44762501Y-26763458D01*
X45522501Y-27070740D02*
X45522501Y-26763458D01*
%TO.C,L1*%
X60085301Y-31132447D02*
X60085301Y-31654951D01*
X62305301Y-31132447D02*
X62305301Y-31654951D01*
%TO.C,SW2*%
D13*
X105414700Y-72161600D02*
X107874700Y-72161600D01*
X105414700Y-75361600D02*
X107874700Y-75361600D01*
D14*
X103526700Y-72631600D02*
G75*
G02*
X103326700Y-72631600I-100000J0D01*
G01*
X103326700Y-72631600D02*
G75*
G02*
X103526700Y-72631600I100000J0D01*
G01*
%TO.C,R7*%
D12*
X70171641Y-46170000D02*
X69864359Y-46170000D01*
X70171641Y-46930000D02*
X69864359Y-46930000D01*
%TO.C,R16*%
X69589441Y-49751400D02*
X69282159Y-49751400D01*
X69589441Y-50511400D02*
X69282159Y-50511400D01*
%TO.C,R15*%
X69589441Y-48583000D02*
X69282159Y-48583000D01*
X69589441Y-49343000D02*
X69282159Y-49343000D01*
%TO.C,C19*%
X96625420Y-44635400D02*
X96906580Y-44635400D01*
X96625420Y-45655400D02*
X96906580Y-45655400D01*
%TO.C,U2*%
D15*
X56450050Y-33026999D02*
X58456650Y-33026999D01*
X58456650Y-29674199D02*
X56450050Y-29674199D01*
X58456650Y-31713860D02*
X58456650Y-30987338D01*
%TO.C,R18*%
D12*
X97631041Y-50411800D02*
X97323759Y-50411800D01*
X97631041Y-51171800D02*
X97323759Y-51171800D01*
%TO.C,U6*%
D13*
X32783600Y-37380600D02*
X64533600Y-37380600D01*
X32783600Y-62780600D02*
X32783600Y-37380600D01*
X64533600Y-37380600D02*
X64533600Y-62780600D01*
X64533600Y-62780600D02*
X32783600Y-62780600D01*
%TO.C,C24*%
D12*
X41568353Y-29990099D02*
X41045849Y-29990099D01*
X41568353Y-31460099D02*
X41045849Y-31460099D01*
%TO.C,R4*%
X43390901Y-26814258D02*
X43390901Y-27121540D01*
X44150901Y-26814258D02*
X44150901Y-27121540D01*
%TO.C,R5*%
X69638241Y-41674200D02*
X69330959Y-41674200D01*
X69638241Y-42434200D02*
X69330959Y-42434200D01*
%TO.C,R9*%
X81682400Y-35543441D02*
X81682400Y-35236159D01*
X82442400Y-35543441D02*
X82442400Y-35236159D01*
%TO.C,SW4*%
D13*
X98347700Y-67860800D02*
X100807700Y-67860800D01*
X98347700Y-71060800D02*
X100807700Y-71060800D01*
D14*
X96459700Y-68330800D02*
G75*
G02*
X96259700Y-68330800I-100000J0D01*
G01*
X96259700Y-68330800D02*
G75*
G02*
X96459700Y-68330800I100000J0D01*
G01*
%TO.C,C11*%
D12*
X92214900Y-61492420D02*
X92214900Y-61773580D01*
X93234900Y-61492420D02*
X93234900Y-61773580D01*
%TO.C,C4*%
X74069400Y-35100580D02*
X74069400Y-34819420D01*
X75089400Y-35100580D02*
X75089400Y-34819420D01*
%TO.C,D7*%
D13*
X43433400Y-68949600D02*
X43433400Y-68779600D01*
X44333400Y-68779600D02*
X44333400Y-68949600D01*
D14*
X43983400Y-66864600D02*
G75*
G02*
X43783400Y-66864600I-100000J0D01*
G01*
X43783400Y-66864600D02*
G75*
G02*
X43983400Y-66864600I100000J0D01*
G01*
%TO.C,C7*%
D12*
X90538500Y-35205180D02*
X90538500Y-34924020D01*
X91558500Y-35205180D02*
X91558500Y-34924020D01*
%TO.C,J2*%
X65211000Y-71670600D02*
X65211000Y-61400600D01*
X67971000Y-61400600D02*
X65211000Y-61400600D01*
X67971000Y-71670600D02*
X65211000Y-71670600D01*
X67971000Y-71670600D02*
X67971000Y-61400600D01*
X67971000Y-72940600D02*
X67971000Y-74320600D01*
X67971000Y-74320600D02*
X66591000Y-74320600D01*
%TO.C,R8*%
X92948000Y-36068064D02*
X92948000Y-34613936D01*
X94768000Y-36068064D02*
X94768000Y-34613936D01*
%TO.C,C18*%
X96981220Y-54041000D02*
X97262380Y-54041000D01*
X96981220Y-55061000D02*
X97262380Y-55061000D01*
%TO.C,J1*%
D13*
X50233800Y-71857800D02*
X50233800Y-73357800D01*
X50233800Y-75857800D02*
X50233800Y-77207800D01*
X59173800Y-71857800D02*
X59173800Y-73357800D01*
X59173800Y-75857800D02*
X59173800Y-77207800D01*
D14*
X51603800Y-68707800D02*
G75*
G02*
X51403800Y-68707800I-100000J0D01*
G01*
X51403800Y-68707800D02*
G75*
G02*
X51603800Y-68707800I100000J0D01*
G01*
%TO.C,C5*%
D12*
X79006900Y-35154380D02*
X79006900Y-34873220D01*
X80026900Y-35154380D02*
X80026900Y-34873220D01*
%TO.C,C15*%
X69497480Y-56522600D02*
X69216320Y-56522600D01*
X69497480Y-57542600D02*
X69216320Y-57542600D01*
%TO.C,C26*%
X46207301Y-26737879D02*
X46207301Y-26456719D01*
X47227301Y-26737879D02*
X47227301Y-26456719D01*
%TO.C,C3*%
X71812400Y-34901948D02*
X71812400Y-35424452D01*
X73282400Y-34901948D02*
X73282400Y-35424452D01*
%TO.C,D3*%
D15*
X35615700Y-66450900D02*
X37977900Y-66450900D01*
X37977900Y-64088700D02*
X35615700Y-64088700D01*
%TO.C,U1*%
X44073701Y-28807901D02*
X44073701Y-29414159D01*
X44073701Y-31859641D02*
X44073701Y-32465899D01*
X44073701Y-32465899D02*
X44679771Y-32465899D01*
X44679771Y-28807901D02*
X44073701Y-28807901D01*
X47125629Y-32465899D02*
X47731699Y-32465899D01*
X47731699Y-28807901D02*
X47125629Y-28807901D01*
X47731699Y-29414159D02*
X47731699Y-28807901D01*
X47731699Y-32465899D02*
X47731699Y-31859641D01*
D16*
G36*
X48310699Y-31077400D02*
G01*
X48056699Y-31077400D01*
X48056699Y-30696399D01*
X48310699Y-30696399D01*
X48310699Y-31077400D01*
G37*
%TO.C,J3*%
D13*
X33092000Y-27590000D02*
X38842000Y-27590000D01*
X33092000Y-34990000D02*
X33092000Y-27590000D01*
X38842000Y-27590000D02*
X38842000Y-34990000D01*
X38842000Y-34990000D02*
X33092000Y-34990000D01*
D14*
X36592000Y-26850000D02*
G75*
G02*
X36392000Y-26850000I-100000J0D01*
G01*
X36392000Y-26850000D02*
G75*
G02*
X36592000Y-26850000I100000J0D01*
G01*
%TO.C,R1*%
D12*
X88585700Y-61146159D02*
X88585700Y-61453441D01*
X89345700Y-61146159D02*
X89345700Y-61453441D01*
%TO.C,C20*%
X53776501Y-31488279D02*
X53776501Y-31207119D01*
X54796501Y-31488279D02*
X54796501Y-31207119D01*
%TO.C,D6*%
D13*
X44423100Y-70568200D02*
G75*
G02*
X44296100Y-70568200I-63500J0D01*
G01*
X44296100Y-70568200D02*
G75*
G02*
X44423100Y-70568200I63500J0D01*
G01*
%TO.C,R19*%
D12*
X97061836Y-51471600D02*
X97515964Y-51471600D01*
X97061836Y-52941600D02*
X97515964Y-52941600D01*
%TO.C,R6*%
X69640241Y-42995000D02*
X69332959Y-42995000D01*
X69640241Y-43755000D02*
X69332959Y-43755000D01*
%TO.C,R3*%
X57142959Y-63950000D02*
X57450241Y-63950000D01*
X57142959Y-64710000D02*
X57450241Y-64710000D01*
%TO.C,C12*%
X69474780Y-52923400D02*
X69193620Y-52923400D01*
X69474780Y-53943400D02*
X69193620Y-53943400D01*
%TO.C,J4*%
D15*
X74454015Y-69096800D02*
X74454015Y-70526761D01*
X74454015Y-72466840D02*
X74454015Y-74396800D01*
X74454015Y-74396800D02*
X76983958Y-74396800D01*
X85397985Y-76482800D02*
X86032985Y-75466800D01*
X86424039Y-74396800D02*
X88953985Y-74396800D01*
X86794985Y-76482800D02*
X85397985Y-76482800D01*
X86794985Y-76482800D02*
X86032985Y-75466800D01*
X88953985Y-69096800D02*
X74454015Y-69096800D01*
X88953985Y-70526761D02*
X88953985Y-69096800D01*
X88953985Y-74396800D02*
X88953985Y-72466840D01*
%TO.C,C10*%
D12*
X69601780Y-44541400D02*
X69320620Y-44541400D01*
X69601780Y-45561400D02*
X69320620Y-45561400D01*
%TO.C,C14*%
X80124500Y-61492420D02*
X80124500Y-61773580D01*
X81144500Y-61492420D02*
X81144500Y-61773580D01*
%TO.C,R10*%
X41885500Y-72038059D02*
X41885500Y-72345341D01*
X42645500Y-72038059D02*
X42645500Y-72345341D01*
%TO.C,C13*%
X85102900Y-61492420D02*
X85102900Y-61773580D01*
X86122900Y-61492420D02*
X86122900Y-61773580D01*
%TO.C,C21*%
X57576681Y-27802099D02*
X57295521Y-27802099D01*
X57576681Y-28822099D02*
X57295521Y-28822099D01*
%TO.C,C8*%
X96597520Y-42123800D02*
X96878680Y-42123800D01*
X96597520Y-43143800D02*
X96878680Y-43143800D01*
%TO.C,SW5*%
D13*
X98287300Y-72153400D02*
X100747300Y-72153400D01*
X98287300Y-75353400D02*
X100747300Y-75353400D01*
D14*
X96399300Y-72623400D02*
G75*
G02*
X96199300Y-72623400I-100000J0D01*
G01*
X96199300Y-72623400D02*
G75*
G02*
X96399300Y-72623400I100000J0D01*
G01*
%TO.C,C6*%
D12*
X84086900Y-35205180D02*
X84086900Y-34924020D01*
X85106900Y-35205180D02*
X85106900Y-34924020D01*
%TO.C,C17*%
X100259580Y-34686200D02*
X99978420Y-34686200D01*
X100259580Y-35706200D02*
X99978420Y-35706200D01*
%TO.C,R2*%
X52292041Y-63975400D02*
X51984759Y-63975400D01*
X52292041Y-64735400D02*
X51984759Y-64735400D01*
%TO.C,C25*%
X45931501Y-34781847D02*
X45931501Y-35304351D01*
X47401501Y-34781847D02*
X47401501Y-35304351D01*
%TO.C,R14*%
X69591441Y-47414600D02*
X69284159Y-47414600D01*
X69591441Y-48174600D02*
X69284159Y-48174600D01*
%TD*%
M02*
