M48
; DRILL file KiCad 10.0.3 date 2026-09-21T19:48:34
; FORMAT={-:-/ absolute / metric / decimal}
; #@! TF.CreationDate,2026-09-21T19:48:34-04:00
; #@! TF.GenerationSoftware,Kicad,Pcbnew,10.0.3
; #@! TF.FileFunction,Plated,1,4,PTH
FMAT,2
METRIC
; #@! TA.AperFunction,Plated,PTH,ViaDrill
T1C0.300
; #@! TA.AperFunction,Plated,PTH,ComponentDrill
T2C0.300
; #@! TA.AperFunction,Plated,PTH,ComponentDrill
T3C0.600
; #@! TA.AperFunction,Plated,PTH,ComponentDrill
T4C1.000
; #@! TA.AperFunction,Plated,PTH,ComponentDrill
T5C1.016
; #@! TA.AperFunction,Plated,PTH,ComponentDrill
T6C1.020
; #@! TA.AperFunction,Plated,PTH,ComponentDrill
T7C1.050
; #@! TA.AperFunction,Plated,PTH,ComponentDrill
T8C3.000
%
G90
G05
T1
X35.895Y-64.795
X40.357Y-30.725
X42.265Y-68.458
X43.771Y-26.458
X43.883Y-68.013
X43.934Y-71.493
X44.279Y-32.3
X45.143Y-26.407
X46.457Y-33.035
X46.667Y-35.993
X46.717Y-25.822
X46.728Y-27.398
X47.277Y-53.56
X47.295Y-32.649
X48.278Y-36.669
X48.633Y-32.91
X49.844Y-29.938
X51.604Y-64.406
X52.304Y-69.863
X54.221Y-32.148
X56.126Y-31.351
X61.195Y-32.469
X67.648Y-26.56
X68.028Y-49.606
X68.191Y-41.165
X68.547Y-32.517
X68.559Y-53.433
X68.582Y-57.033
X68.686Y-45.051
X69.791Y-52.189
X69.918Y-40.565
X70.109Y-53.433
X70.132Y-57.033
X70.236Y-45.051
X71.239Y-56.573
X71.493Y-39.565
X72.547Y-34.213
X72.547Y-36.113
X73.279Y-66.116
X74.084Y-55.973
X74.262Y-44.569
X74.287Y-47.226
X74.338Y-40.098
X74.579Y-34.185
X74.579Y-35.735
X74.668Y-60.571
X75.151Y-46.093
X75.506Y-47.363
X75.868Y-61.307
X76.04Y-39.717
X76.235Y-57.691
X76.675Y-61.409
X76.954Y-36.085
X77.183Y-63.136
X77.429Y-66.116
X77.742Y-42.359
X78.342Y-43.096
X79.517Y-34.239
X79.517Y-35.789
X79.596Y-60.291
X79.672Y-47.312
X80.383Y-72.407
X80.635Y-60.858
X80.635Y-62.408
X80.917Y-42.522
X82.055Y-34.887
X83.406Y-71.645
X83.634Y-66.21
X83.662Y-61.178
X84.066Y-70.934
X84.371Y-67.073
X84.597Y-34.29
X84.597Y-35.84
X84.981Y-71.747
X85.613Y-60.858
X85.613Y-62.408
X85.743Y-72.966
X85.92Y-36.034
X86.022Y-71.975
X86.403Y-57.142
X86.992Y-50.914
X87.521Y-35.984
X87.754Y-64.199
X88.966Y-61.81
X89.187Y-57.284
X89.285Y-50.315
X89.365Y-49.519
X89.374Y-51.11
X89.4Y-51.909
X89.578Y-42.308
X89.857Y-34.89
X90.594Y-61.231
X91.048Y-34.29
X91.048Y-35.84
X91.28Y-33.037
X92.347Y-41.876
X92.439Y-53.754
X92.524Y-54.678
X92.725Y-60.858
X92.725Y-62.408
X92.757Y-43.583
X92.777Y-44.8
X93.858Y-33.878
X95.369Y-49.903
X95.674Y-43.908
X95.963Y-42.634
X95.991Y-45.145
X95.995Y-38.084
X96.0Y-59.982
X96.067Y-48.607
X96.131Y-61.901
X96.32Y-66.028
X96.347Y-54.551
X97.442Y-72.678
X97.46Y-68.36
X97.513Y-42.634
X97.541Y-45.145
X97.617Y-48.607
X97.897Y-54.551
X98.201Y-52.207
X98.214Y-39.463
X99.078Y-50.055
X99.344Y-35.196
X100.815Y-40.957
X101.653Y-68.386
X102.557Y-51.122
X103.952Y-65.904
X104.57Y-72.687
X104.595Y-68.36
X108.653Y-68.419
X113.335Y-27.788
T2
X45.509Y-30.243
X45.509Y-31.031
X46.296Y-30.243
X46.296Y-31.031
T4
X66.591Y-62.781
X66.591Y-65.321
X66.591Y-67.861
X66.591Y-70.401
X66.591Y-72.941
T5
X105.174Y-37.863
X105.174Y-40.403
X105.174Y-42.943
X105.174Y-45.483
X105.174Y-48.023
X105.174Y-50.563
X105.174Y-53.103
X105.174Y-55.643
X105.174Y-58.183
X107.714Y-37.863
X107.714Y-40.403
X107.714Y-42.943
X107.714Y-45.483
X107.714Y-48.023
X107.714Y-50.563
X107.714Y-53.103
X107.714Y-55.643
X107.714Y-58.183
T6
X63.01Y-41.191
X63.01Y-43.731
X63.01Y-46.271
X63.01Y-48.811
X63.01Y-51.351
X63.01Y-53.891
X63.01Y-56.431
X63.01Y-58.971
T7
X36.492Y-30.04
X36.492Y-32.54
T8
X109.214Y-33.183
X109.214Y-63.163
T3
G00X50.384Y-69.878
M15
G01X50.384Y-70.978
M16
G05
G00X50.384Y-74.208
M15
G01X50.384Y-75.008
M16
G05
G00X59.024Y-69.878
M15
G01X59.024Y-70.978
M16
G05
G00X59.024Y-74.208
M15
G01X59.024Y-75.008
M16
G05
M30
