%TF.GenerationSoftware,KiCad,Pcbnew,10.0.3*%
%TF.CreationDate,2026-09-21T19:48:30-04:00*%
%TF.ProjectId,camCAD_fourLayer_v2,63616d43-4144-45f6-966f-75724c617965,vSep26*%
%TF.SameCoordinates,Original*%
%TF.FileFunction,Copper,L1,Top*%
%TF.FilePolarity,Positive*%
%FSLAX46Y46*%
G04 Gerber Fmt 4.6, Leading zero omitted, Abs format (unit mm)*
G04 Created by KiCad (PCBNEW 10.0.3) date 2026-09-21 19:48:30*
%MOMM*%
%LPD*%
G01*
G04 APERTURE LIST*
G04 Aperture macros list*
%AMRoundRect*
0 Rectangle with rounded corners*
0 $1 Rounding radius*
0 $2 $3 $4 $5 $6 $7 $8 $9 X,Y pos of 4 corners*
0 Add a 4 corners polygon primitive as box body*
4,1,4,$2,$3,$4,$5,$6,$7,$8,$9,$2,$3,0*
0 Add four circle primitives for the rounded corners*
1,1,$1+$1,$2,$3*
1,1,$1+$1,$4,$5*
1,1,$1+$1,$6,$7*
1,1,$1+$1,$8,$9*
0 Add four rect primitives between the rounded corners*
20,1,$1+$1,$2,$3,$4,$5,0*
20,1,$1+$1,$4,$5,$6,$7,0*
20,1,$1+$1,$6,$7,$8,$9,0*
20,1,$1+$1,$8,$9,$2,$3,0*%
G04 Aperture macros list end*
%TA.AperFunction,SMDPad,CuDef*%
%ADD10RoundRect,0.225000X-0.225000X-0.250000X0.225000X-0.250000X0.225000X0.250000X-0.225000X0.250000X0*%
%TD*%
%TA.AperFunction,SMDPad,CuDef*%
%ADD11RoundRect,0.135000X-0.185000X0.135000X-0.185000X-0.135000X0.185000X-0.135000X0.185000X0.135000X0*%
%TD*%
%TA.AperFunction,SMDPad,CuDef*%
%ADD12RoundRect,0.135000X0.135000X0.185000X-0.135000X0.185000X-0.135000X-0.185000X0.135000X-0.185000X0*%
%TD*%
%TA.AperFunction,SMDPad,CuDef*%
%ADD13RoundRect,0.135000X-0.135000X-0.185000X0.135000X-0.185000X0.135000X0.185000X-0.135000X0.185000X0*%
%TD*%
%TA.AperFunction,SMDPad,CuDef*%
%ADD14R,1.050000X0.650000*%
%TD*%
%TA.AperFunction,SMDPad,CuDef*%
%ADD15RoundRect,0.075000X0.662500X0.075000X-0.662500X0.075000X-0.662500X-0.075000X0.662500X-0.075000X0*%
%TD*%
%TA.AperFunction,SMDPad,CuDef*%
%ADD16RoundRect,0.075000X0.075000X0.662500X-0.075000X0.662500X-0.075000X-0.662500X0.075000X-0.662500X0*%
%TD*%
%TA.AperFunction,SMDPad,CuDef*%
%ADD17RoundRect,0.135000X0.185000X-0.135000X0.185000X0.135000X-0.185000X0.135000X-0.185000X-0.135000X0*%
%TD*%
%TA.AperFunction,SMDPad,CuDef*%
%ADD18RoundRect,0.250000X-0.850000X0.375000X-0.850000X-0.375000X0.850000X-0.375000X0.850000X0.375000X0*%
%TD*%
%TA.AperFunction,SMDPad,CuDef*%
%ADD19R,1.000000X0.970000*%
%TD*%
%TA.AperFunction,SMDPad,CuDef*%
%ADD20R,0.876300X0.508000*%
%TD*%
%TA.AperFunction,ComponentPad*%
%ADD21C,1.530000*%
%TD*%
%TA.AperFunction,SMDPad,CuDef*%
%ADD22RoundRect,0.250000X0.250000X0.475000X-0.250000X0.475000X-0.250000X-0.475000X0.250000X-0.475000X0*%
%TD*%
%TA.AperFunction,SMDPad,CuDef*%
%ADD23RoundRect,0.225000X-0.250000X0.225000X-0.250000X-0.225000X0.250000X-0.225000X0.250000X0.225000X0*%
%TD*%
%TA.AperFunction,SMDPad,CuDef*%
%ADD24RoundRect,0.100000X-0.130000X-0.100000X0.130000X-0.100000X0.130000X0.100000X-0.130000X0.100000X0*%
%TD*%
%TA.AperFunction,SMDPad,CuDef*%
%ADD25RoundRect,0.225000X0.250000X-0.225000X0.250000X0.225000X-0.250000X0.225000X-0.250000X-0.225000X0*%
%TD*%
%TA.AperFunction,SMDPad,CuDef*%
%ADD26R,0.930000X0.810000*%
%TD*%
%TA.AperFunction,ComponentPad*%
%ADD27R,1.700000X1.700000*%
%TD*%
%TA.AperFunction,ComponentPad*%
%ADD28C,1.700000*%
%TD*%
%TA.AperFunction,SMDPad,CuDef*%
%ADD29RoundRect,0.250000X0.625000X-0.312500X0.625000X0.312500X-0.625000X0.312500X-0.625000X-0.312500X0*%
%TD*%
%TA.AperFunction,SMDPad,CuDef*%
%ADD30R,0.600000X1.150000*%
%TD*%
%TA.AperFunction,SMDPad,CuDef*%
%ADD31R,0.300000X1.150000*%
%TD*%
%TA.AperFunction,ComponentPad*%
%ADD32O,1.000000X2.100000*%
%TD*%
%TA.AperFunction,ComponentPad*%
%ADD33O,1.000000X1.800000*%
%TD*%
%TA.AperFunction,SMDPad,CuDef*%
%ADD34RoundRect,0.225000X0.225000X0.250000X-0.225000X0.250000X-0.225000X-0.250000X0.225000X-0.250000X0*%
%TD*%
%TA.AperFunction,SMDPad,CuDef*%
%ADD35RoundRect,0.100000X-0.100000X0.130000X-0.100000X-0.130000X0.100000X-0.130000X0.100000X0.130000X0*%
%TD*%
%TA.AperFunction,SMDPad,CuDef*%
%ADD36RoundRect,0.250000X-0.475000X0.250000X-0.475000X-0.250000X0.475000X-0.250000X0.475000X0.250000X0*%
%TD*%
%TA.AperFunction,SMDPad,CuDef*%
%ADD37R,1.016000X0.609600*%
%TD*%
%TA.AperFunction,SMDPad,CuDef*%
%ADD38R,0.850000X0.280000*%
%TD*%
%TA.AperFunction,SMDPad,CuDef*%
%ADD39R,0.280000X0.850000*%
%TD*%
%TA.AperFunction,SMDPad,CuDef*%
%ADD40R,1.700000X1.700000*%
%TD*%
%TA.AperFunction,ComponentPad*%
%ADD41C,0.508000*%
%TD*%
%TA.AperFunction,ComponentPad*%
%ADD42R,1.575000X1.575000*%
%TD*%
%TA.AperFunction,ComponentPad*%
%ADD43C,1.575000*%
%TD*%
%TA.AperFunction,SMDPad,CuDef*%
%ADD44R,0.800000X0.800000*%
%TD*%
%TA.AperFunction,SMDPad,CuDef*%
%ADD45RoundRect,0.250000X-0.262500X-0.450000X0.262500X-0.450000X0.262500X0.450000X-0.262500X0.450000X0*%
%TD*%
%TA.AperFunction,SMDPad,CuDef*%
%ADD46R,0.300000X1.000000*%
%TD*%
%TA.AperFunction,SMDPad,CuDef*%
%ADD47R,2.000000X1.300000*%
%TD*%
%TA.AperFunction,ComponentPad*%
%ADD48C,3.500000*%
%TD*%
%TA.AperFunction,ComponentPad*%
%ADD49C,1.524000*%
%TD*%
%TA.AperFunction,ComponentPad*%
%ADD50R,1.524000X1.524000*%
%TD*%
%TA.AperFunction,ViaPad*%
%ADD51C,0.600000*%
%TD*%
%TA.AperFunction,Conductor*%
%ADD52C,0.200000*%
%TD*%
%TA.AperFunction,Conductor*%
%ADD53C,0.500000*%
%TD*%
%TA.AperFunction,Conductor*%
%ADD54C,0.280000*%
%TD*%
G04 APERTURE END LIST*
D10*
%TO.P,C16,1*%
%TO.N,Net-(C16-Pad1)*%
X99331400Y-38033400D03*
%TO.P,C16,2*%
%TO.N,Net-(C16-Pad2)*%
X100881400Y-38033400D03*
%TD*%
%TO.P,C22,1*%
%TO.N,VREF+*%
X95963100Y-40957400D03*
%TO.P,C22,2*%
%TO.N,Net-(C22-Pad2)*%
X97513100Y-40957400D03*
%TD*%
D11*
%TO.P,R12,1*%
%TO.N,BQ_OUT*%
X42265500Y-68457900D03*
%TO.P,R12,2*%
%TO.N,Net-(D7-PadA)*%
X42265500Y-69477900D03*
%TD*%
D12*
%TO.P,R17,1*%
%TO.N,PG5*%
X69945800Y-51299800D03*
%TO.P,R17,2*%
%TO.N,BATT-*%
X68925800Y-51299800D03*
%TD*%
D13*
%TO.P,R11,1*%
%TO.N,BQ_ILIM*%
X48823501Y-29937699D03*
%TO.P,R11,2*%
%TO.N,BATT-*%
X49843501Y-29937699D03*
%TD*%
D14*
%TO.P,SW1,1,1_1*%
%TO.N,BATT-*%
X77429000Y-66116200D03*
%TO.P,SW1,2,2_2*%
%TO.N,NRST*%
X73279000Y-66116200D03*
%TO.P,SW1,3*%
%TO.N,N/C*%
X77429000Y-63966200D03*
%TO.P,SW1,4*%
X73279000Y-63966200D03*
%TD*%
%TO.P,SW3,1,1_1*%
%TO.N,SC_3V3*%
X104503400Y-68419400D03*
%TO.P,SW3,2,2_2*%
%TO.N,PG2*%
X108653400Y-68419400D03*
%TO.P,SW3,3*%
%TO.N,N/C*%
X104503400Y-70569400D03*
%TO.P,SW3,4*%
X108653400Y-70569400D03*
%TD*%
D10*
%TO.P,C9,1*%
%TO.N,SC_3V3*%
X96067400Y-48607400D03*
%TO.P,C9,2*%
%TO.N,/STM32_Power_Requirements/CapJunction*%
X97617400Y-48607400D03*
%TD*%
D15*
%TO.P,U3,1,PE2_1*%
%TO.N,unconnected-(U3-PE2-Pad1)*%
X93994900Y-57073400D03*
%TO.P,U3,2,PE3_2*%
%TO.N,unconnected-(U3-PE3-Pad2)*%
X93994900Y-56573400D03*
%TO.P,U3,3,PE4_3*%
%TO.N,PE4*%
X93994900Y-56073400D03*
%TO.P,U3,4,PE5_4*%
%TO.N,PE5*%
X93994900Y-55573400D03*
%TO.P,U3,5,PE6_5*%
%TO.N,PE6*%
X93994900Y-55073400D03*
%TO.P,U3,6,VBAT_6*%
%TO.N,SC_3V3*%
X93994900Y-54573400D03*
%TO.P,U3,7,PC13_7*%
%TO.N,PC13*%
X93994900Y-54073400D03*
%TO.P,U3,8,PC14_8*%
%TO.N,PC14*%
X93994900Y-53573400D03*
%TO.P,U3,9,PC15_9*%
%TO.N,unconnected-(U3-PC15-Pad9)*%
X93994900Y-53073400D03*
%TO.P,U3,10,PF0_10*%
%TO.N,PF0*%
X93994900Y-52573400D03*
%TO.P,U3,11,PF1_11*%
%TO.N,PF1*%
X93994900Y-52073400D03*
%TO.P,U3,12,PF2_12*%
%TO.N,unconnected-(U3-PF2-Pad12)*%
X93994900Y-51573400D03*
%TO.P,U3,13,PF3_13*%
%TO.N,PF3*%
X93994900Y-51073400D03*
%TO.P,U3,14,PF4_14*%
%TO.N,unconnected-(U3-PF4-Pad14)*%
X93994900Y-50573400D03*
%TO.P,U3,15,PF5_15*%
%TO.N,unconnected-(U3-PF5-Pad15)*%
X93994900Y-50073400D03*
%TO.P,U3,16,VSS_16*%
%TO.N,BATT-*%
X93994900Y-49573400D03*
%TO.P,U3,17,VDD_17*%
%TO.N,SC_3V3*%
X93994900Y-49073400D03*
%TO.P,U3,18,PF6_18*%
%TO.N,unconnected-(U3-PF6-Pad18)*%
X93994900Y-48573400D03*
%TO.P,U3,19,PF7_19*%
%TO.N,unconnected-(U3-PF7-Pad19)*%
X93994900Y-48073400D03*
%TO.P,U3,20,PF8_20*%
%TO.N,unconnected-(U3-PF8-Pad20)*%
X93994900Y-47573400D03*
%TO.P,U3,21,PF9_21*%
%TO.N,unconnected-(U3-PF9-Pad21)*%
X93994900Y-47073400D03*
%TO.P,U3,22,PF10_22*%
%TO.N,unconnected-(U3-PF10-Pad22)*%
X93994900Y-46573400D03*
%TO.P,U3,23,PH0_23*%
%TO.N,unconnected-(U3-PH0-Pad23)*%
X93994900Y-46073400D03*
%TO.P,U3,24,PH1_24*%
%TO.N,unconnected-(U3-PH1-Pad24)*%
X93994900Y-45573400D03*
%TO.P,U3,25,NRST_25*%
%TO.N,NRST*%
X93994900Y-45073400D03*
%TO.P,U3,26,PC0_26*%
%TO.N,unconnected-(U3-PC0-Pad26)*%
X93994900Y-44573400D03*
%TO.P,U3,27,PC1_27*%
%TO.N,unconnected-(U3-PC1-Pad27)*%
X93994900Y-44073400D03*
%TO.P,U3,28,PC2_28*%
%TO.N,unconnected-(U3-PC2-Pad28)*%
X93994900Y-43573400D03*
%TO.P,U3,29,PC3_29*%
%TO.N,unconnected-(U3-PC3-Pad29)*%
X93994900Y-43073400D03*
%TO.P,U3,30,VDD_30*%
%TO.N,SC_3V3*%
X93994900Y-42573400D03*
%TO.P,U3,31,VSSA_31*%
%TO.N,BATT-*%
X93994900Y-42073400D03*
%TO.P,U3,32,VREF+_32*%
%TO.N,VREF+*%
X93994900Y-41573400D03*
%TO.P,U3,33,VDDA_33*%
%TO.N,SC_3V3*%
X93994900Y-41073400D03*
%TO.P,U3,34,PA0_34*%
%TO.N,unconnected-(U3-PA0-Pad34)*%
X93994900Y-40573400D03*
%TO.P,U3,35,PA1_35*%
%TO.N,unconnected-(U3-PA1-Pad35)*%
X93994900Y-40073400D03*
%TO.P,U3,36,PA2_36*%
%TO.N,unconnected-(U3-PA2-Pad36)*%
X93994900Y-39573400D03*
D16*
%TO.P,U3,37,PA3_37*%
%TO.N,unconnected-(U3-PA3-Pad37)*%
X92082400Y-37660900D03*
%TO.P,U3,38,VSS_38*%
%TO.N,BATT-*%
X91582400Y-37660900D03*
%TO.P,U3,39,VDD_39*%
%TO.N,SC_3V3*%
X91082400Y-37660900D03*
%TO.P,U3,40,PA4_40*%
%TO.N,PA4*%
X90582400Y-37660900D03*
%TO.P,U3,41,PA5_41*%
%TO.N,unconnected-(U3-PA5-Pad41)*%
X90082400Y-37660900D03*
%TO.P,U3,42,PA6_42*%
%TO.N,PA6*%
X89582400Y-37660900D03*
%TO.P,U3,43,PA7_43*%
%TO.N,unconnected-(U3-PA7-Pad43)*%
X89082400Y-37660900D03*
%TO.P,U3,44,PC4_44*%
%TO.N,unconnected-(U3-PC4-Pad44)*%
X88582400Y-37660900D03*
%TO.P,U3,45,PC5_45*%
%TO.N,unconnected-(U3-PC5-Pad45)*%
X88082400Y-37660900D03*
%TO.P,U3,46,PB0_46*%
%TO.N,PB0*%
X87582400Y-37660900D03*
%TO.P,U3,47,PB1_47*%
%TO.N,unconnected-(U3-PB1-Pad47)*%
X87082400Y-37660900D03*
%TO.P,U3,48,PB2_48*%
%TO.N,unconnected-(U3-PB2-Pad48)*%
X86582400Y-37660900D03*
%TO.P,U3,49,PF11_49*%
%TO.N,unconnected-(U3-PF11-Pad49)*%
X86082400Y-37660900D03*
%TO.P,U3,50,PF12_50*%
%TO.N,unconnected-(U3-PF12-Pad50)*%
X85582400Y-37660900D03*
%TO.P,U3,51,VSS_51*%
%TO.N,BATT-*%
X85082400Y-37660900D03*
%TO.P,U3,52,VDD_52*%
%TO.N,SC_3V3*%
X84582400Y-37660900D03*
%TO.P,U3,53,PF13_53*%
%TO.N,unconnected-(U3-PF13-Pad53)*%
X84082400Y-37660900D03*
%TO.P,U3,54,PF14_54*%
%TO.N,unconnected-(U3-PF14-Pad54)*%
X83582400Y-37660900D03*
%TO.P,U3,55,PF15_55*%
%TO.N,unconnected-(U3-PF15-Pad55)*%
X83082400Y-37660900D03*
%TO.P,U3,56,PG0_56*%
%TO.N,unconnected-(U3-PG0-Pad56)*%
X82582400Y-37660900D03*
%TO.P,U3,57,PG1_57*%
%TO.N,PG1*%
X82082400Y-37660900D03*
%TO.P,U3,58,PE7_58*%
%TO.N,PE7*%
X81582400Y-37660900D03*
%TO.P,U3,59,PE8_59*%
%TO.N,PE8*%
X81082400Y-37660900D03*
%TO.P,U3,60,PE9_60*%
%TO.N,unconnected-(U3-PE9-Pad60)*%
X80582400Y-37660900D03*
%TO.P,U3,61,VSS_61*%
%TO.N,BATT-*%
X80082400Y-37660900D03*
%TO.P,U3,62,VDD_62*%
%TO.N,SC_3V3*%
X79582400Y-37660900D03*
%TO.P,U3,63,PE10_63*%
%TO.N,unconnected-(U3-PE10-Pad63)*%
X79082400Y-37660900D03*
%TO.P,U3,64,PE11_64*%
%TO.N,unconnected-(U3-PE11-Pad64)*%
X78582400Y-37660900D03*
%TO.P,U3,65,PE12_65*%
%TO.N,unconnected-(U3-PE12-Pad65)*%
X78082400Y-37660900D03*
%TO.P,U3,66,PE13_66*%
%TO.N,unconnected-(U3-PE13-Pad66)*%
X77582400Y-37660900D03*
%TO.P,U3,67,PE14_67*%
%TO.N,unconnected-(U3-PE14-Pad67)*%
X77082400Y-37660900D03*
%TO.P,U3,68,PE15_68*%
%TO.N,unconnected-(U3-PE15-Pad68)*%
X76582400Y-37660900D03*
%TO.P,U3,69,PB10_69*%
%TO.N,unconnected-(U3-PB10-Pad69)*%
X76082400Y-37660900D03*
%TO.P,U3,70,PB11_70*%
%TO.N,PB11*%
X75582400Y-37660900D03*
%TO.P,U3,71,VCAP_1_71*%
%TO.N,VCAP1*%
X75082400Y-37660900D03*
%TO.P,U3,72,VDD_72*%
%TO.N,SC_3V3*%
X74582400Y-37660900D03*
D15*
%TO.P,U3,73,PB12_73*%
%TO.N,PB12*%
X72669900Y-39573400D03*
%TO.P,U3,74,PB13_74*%
%TO.N,PB13*%
X72669900Y-40073400D03*
%TO.P,U3,75,PB14_75*%
%TO.N,PB14*%
X72669900Y-40573400D03*
%TO.P,U3,76,PB15_76*%
%TO.N,PB15*%
X72669900Y-41073400D03*
%TO.P,U3,77,PD8_77*%
%TO.N,unconnected-(U3-PD8-Pad77)*%
X72669900Y-41573400D03*
%TO.P,U3,78,PD9_78*%
%TO.N,unconnected-(U3-PD9-Pad78)*%
X72669900Y-42073400D03*
%TO.P,U3,79,PD10_79*%
%TO.N,unconnected-(U3-PD10-Pad79)*%
X72669900Y-42573400D03*
%TO.P,U3,80,PD11_80*%
%TO.N,unconnected-(U3-PD11-Pad80)*%
X72669900Y-43073400D03*
%TO.P,U3,81,PD12_81*%
%TO.N,PD12*%
X72669900Y-43573400D03*
%TO.P,U3,82,PD13_82*%
%TO.N,PD13*%
X72669900Y-44073400D03*
%TO.P,U3,83,VSS_83*%
%TO.N,BATT-*%
X72669900Y-44573400D03*
%TO.P,U3,84,VDD_84*%
%TO.N,SC_3V3*%
X72669900Y-45073400D03*
%TO.P,U3,85,PD14_85*%
%TO.N,PD14*%
X72669900Y-45573400D03*
%TO.P,U3,86,PD15_86*%
%TO.N,unconnected-(U3-PD15-Pad86)*%
X72669900Y-46073400D03*
%TO.P,U3,87,PG2_87*%
%TO.N,PG2*%
X72669900Y-46573400D03*
%TO.P,U3,88,PG3_88*%
%TO.N,PG3*%
X72669900Y-47073400D03*
%TO.P,U3,89,PG4_89*%
%TO.N,PG4*%
X72669900Y-47573400D03*
%TO.P,U3,90,PG5_90*%
%TO.N,PG5*%
X72669900Y-48073400D03*
%TO.P,U3,91,PG6_91*%
%TO.N,unconnected-(U3-PG6-Pad91)*%
X72669900Y-48573400D03*
%TO.P,U3,92,PG7_92*%
%TO.N,unconnected-(U3-PG7-Pad92)*%
X72669900Y-49073400D03*
%TO.P,U3,93,PG8_93*%
%TO.N,unconnected-(U3-PG8-Pad93)*%
X72669900Y-49573400D03*
%TO.P,U3,94,VSS_94*%
%TO.N,BATT-*%
X72669900Y-50073400D03*
%TO.P,U3,95,VDD_95*%
%TO.N,SC_3V3*%
X72669900Y-50573400D03*
%TO.P,U3,96,PC6_96*%
%TO.N,PC6*%
X72669900Y-51073400D03*
%TO.P,U3,97,PC7_97*%
%TO.N,PC7*%
X72669900Y-51573400D03*
%TO.P,U3,98,PC8_98*%
%TO.N,unconnected-(U3-PC8-Pad98)*%
X72669900Y-52073400D03*
%TO.P,U3,99,PC9_99*%
%TO.N,unconnected-(U3-PC9-Pad99)*%
X72669900Y-52573400D03*
%TO.P,U3,100,PA8_100*%
%TO.N,unconnected-(U3-PA8-Pad100)*%
X72669900Y-53073400D03*
%TO.P,U3,101,PA9_101*%
%TO.N,unconnected-(U3-PA9-Pad101)*%
X72669900Y-53573400D03*
%TO.P,U3,102,PA10_102*%
%TO.N,unconnected-(U3-PA10-Pad102)*%
X72669900Y-54073400D03*
%TO.P,U3,103,PA11_103*%
%TO.N,unconnected-(U3-PA11-Pad103)*%
X72669900Y-54573400D03*
%TO.P,U3,104,PA12_104*%
%TO.N,unconnected-(U3-PA12-Pad104)*%
X72669900Y-55073400D03*
%TO.P,U3,105,PA13_105*%
%TO.N,PA13*%
X72669900Y-55573400D03*
%TO.P,U3,106,VCAP_2_106*%
%TO.N,VCAP2*%
X72669900Y-56073400D03*
%TO.P,U3,107,VSS_107*%
%TO.N,BATT-*%
X72669900Y-56573400D03*
%TO.P,U3,108,VDD_108*%
%TO.N,SC_3V3*%
X72669900Y-57073400D03*
D16*
%TO.P,U3,109,PA14_109*%
%TO.N,PA14*%
X74582400Y-58985900D03*
%TO.P,U3,110,PA15_110*%
%TO.N,PA15*%
X75082400Y-58985900D03*
%TO.P,U3,111,PC10_111*%
%TO.N,PC10*%
X75582400Y-58985900D03*
%TO.P,U3,112,PC11_112*%
%TO.N,PC11*%
X76082400Y-58985900D03*
%TO.P,U3,113,PC12_113*%
%TO.N,PC12*%
X76582400Y-58985900D03*
%TO.P,U3,114,PD0_114*%
%TO.N,unconnected-(U3-PD0-Pad114)*%
X77082400Y-58985900D03*
%TO.P,U3,115,PD1_115*%
%TO.N,unconnected-(U3-PD1-Pad115)*%
X77582400Y-58985900D03*
%TO.P,U3,116,PD2_116*%
%TO.N,unconnected-(U3-PD2-Pad116)*%
X78082400Y-58985900D03*
%TO.P,U3,117,PD3_117*%
%TO.N,unconnected-(U3-PD3-Pad117)*%
X78582400Y-58985900D03*
%TO.P,U3,118,PD4_118*%
%TO.N,unconnected-(U3-PD4-Pad118)*%
X79082400Y-58985900D03*
%TO.P,U3,119,PD5_119*%
%TO.N,unconnected-(U3-PD5-Pad119)*%
X79582400Y-58985900D03*
%TO.P,U3,120,VSS_120*%
%TO.N,BATT-*%
X80082400Y-58985900D03*
%TO.P,U3,121,VDD_121*%
%TO.N,SC_3V3*%
X80582400Y-58985900D03*
%TO.P,U3,122,PD6_122*%
%TO.N,unconnected-(U3-PD6-Pad122)*%
X81082400Y-58985900D03*
%TO.P,U3,123,PD7_123*%
%TO.N,unconnected-(U3-PD7-Pad123)*%
X81582400Y-58985900D03*
%TO.P,U3,124,PG9_124*%
%TO.N,unconnected-(U3-PG9-Pad124)*%
X82082400Y-58985900D03*
%TO.P,U3,125,PG10_125*%
%TO.N,unconnected-(U3-PG10-Pad125)*%
X82582400Y-58985900D03*
%TO.P,U3,126,PG11_126*%
%TO.N,unconnected-(U3-PG11-Pad126)*%
X83082400Y-58985900D03*
%TO.P,U3,127,PG12_127*%
%TO.N,unconnected-(U3-PG12-Pad127)*%
X83582400Y-58985900D03*
%TO.P,U3,128,PG13_128*%
%TO.N,unconnected-(U3-PG13-Pad128)*%
X84082400Y-58985900D03*
%TO.P,U3,129,PG14_129*%
%TO.N,unconnected-(U3-PG14-Pad129)*%
X84582400Y-58985900D03*
%TO.P,U3,130,VSS_130*%
%TO.N,BATT-*%
X85082400Y-58985900D03*
%TO.P,U3,131,VDD_131*%
%TO.N,SC_3V3*%
X85582400Y-58985900D03*
%TO.P,U3,132,PG15_132*%
%TO.N,unconnected-(U3-PG15-Pad132)*%
X86082400Y-58985900D03*
%TO.P,U3,133,PB3_133*%
%TO.N,PB3*%
X86582400Y-58985900D03*
%TO.P,U3,134,PB4_134*%
%TO.N,unconnected-(U3-PB4-Pad134)*%
X87082400Y-58985900D03*
%TO.P,U3,135,PB5_135*%
%TO.N,unconnected-(U3-PB5-Pad135)*%
X87582400Y-58985900D03*
%TO.P,U3,136,PB6_136*%
%TO.N,PB6*%
X88082400Y-58985900D03*
%TO.P,U3,137,PB7_137*%
%TO.N,PB7*%
X88582400Y-58985900D03*
%TO.P,U3,138,BOOT0_138*%
%TO.N,BOOT0*%
X89082400Y-58985900D03*
%TO.P,U3,139,PB8_139*%
%TO.N,unconnected-(U3-PB8-Pad139)*%
X89582400Y-58985900D03*
%TO.P,U3,140,PB9_140*%
%TO.N,unconnected-(U3-PB9-Pad140)*%
X90082400Y-58985900D03*
%TO.P,U3,141,PE0_141*%
%TO.N,PE0*%
X90582400Y-58985900D03*
%TO.P,U3,142,PE1_142*%
%TO.N,PE1*%
X91082400Y-58985900D03*
%TO.P,U3,143,PDR_ON_143*%
%TO.N,SC_3V3*%
X91582400Y-58985900D03*
%TO.P,U3,144,VDD_144*%
X92082400Y-58985900D03*
%TD*%
D10*
%TO.P,C23,1*%
%TO.N,Net-(C22-Pad2)*%
X99265100Y-40957400D03*
%TO.P,C23,2*%
%TO.N,BATT-*%
X100815100Y-40957400D03*
%TD*%
D17*
%TO.P,R13,1*%
%TO.N,BQ_ISET*%
X45142501Y-27427099D03*
%TO.P,R13,2*%
%TO.N,BATT-*%
X45142501Y-26407099D03*
%TD*%
D18*
%TO.P,L1,1,1_1*%
%TO.N,Net-(U2-LX)*%
X61195301Y-30318699D03*
%TO.P,L1,2,2_2*%
%TO.N,SC_3V3*%
X61195301Y-32468699D03*
%TD*%
D14*
%TO.P,SW2,1,1_1*%
%TO.N,SC_3V3*%
X104569700Y-72686600D03*
%TO.P,SW2,2,2_2*%
%TO.N,PG1*%
X108719700Y-72686600D03*
%TO.P,SW2,3*%
%TO.N,N/C*%
X104569700Y-74836600D03*
%TO.P,SW2,4*%
X108719700Y-74836600D03*
%TD*%
D12*
%TO.P,R7,1*%
%TO.N,PD14*%
X70528000Y-46550000D03*
%TO.P,R7,2*%
%TO.N,Net-(D3-R)*%
X69508000Y-46550000D03*
%TD*%
%TO.P,R16,1*%
%TO.N,PG4*%
X69945800Y-50131400D03*
%TO.P,R16,2*%
%TO.N,BATT-*%
X68925800Y-50131400D03*
%TD*%
%TO.P,R15,1*%
%TO.N,PG3*%
X69945800Y-48963000D03*
%TO.P,R15,2*%
%TO.N,BATT-*%
X68925800Y-48963000D03*
%TD*%
D19*
%TO.P,FB1,1*%
%TO.N,SC_3V3*%
X95994800Y-38084200D03*
%TO.P,FB1,2*%
%TO.N,Net-(C16-Pad1)*%
X97464800Y-38084200D03*
%TD*%
D10*
%TO.P,C19,1*%
%TO.N,NRST*%
X95991000Y-45145400D03*
%TO.P,C19,2*%
%TO.N,BATT-*%
X97541000Y-45145400D03*
%TD*%
D20*
%TO.P,U2,1,VIN_1*%
%TO.N,BQ_OUT*%
X56138900Y-30400598D03*
%TO.P,U2,2,GND_2*%
%TO.N,BATT-*%
X56138900Y-31350599D03*
%TO.P,U2,3,EN_3*%
%TO.N,BQ_OUT*%
X56138900Y-32300600D03*
%TO.P,U2,4,VOUT_4*%
%TO.N,SC_3V3*%
X58767800Y-32300600D03*
%TO.P,U2,5,LX_5*%
%TO.N,Net-(U2-LX)*%
X58767800Y-30400598D03*
%TD*%
D12*
%TO.P,R18,1*%
%TO.N,BATT+*%
X97987400Y-50791800D03*
%TO.P,R18,2*%
%TO.N,PF3*%
X96967400Y-50791800D03*
%TD*%
D21*
%TO.P,U6,1,CD_1*%
%TO.N,PB0*%
X63009600Y-41190600D03*
%TO.P,U6,2,CS_2*%
%TO.N,PB12*%
X63009600Y-43730600D03*
%TO.P,U6,3,DI_3*%
%TO.N,PB15*%
X63009600Y-46270600D03*
%TO.P,U6,4,DO_4*%
%TO.N,PB14*%
X63009600Y-48810600D03*
%TO.P,U6,5,CLK_5*%
%TO.N,PB13*%
X63009600Y-51350600D03*
%TO.P,U6,6,GND_6*%
%TO.N,BATT-*%
X63009600Y-53890600D03*
%TO.P,U6,7,3V_7*%
%TO.N,SC_3V3*%
X63009600Y-56430600D03*
%TO.P,U6,8,5V_8*%
%TO.N,unconnected-(U6-5V-Pad8)*%
X63009600Y-58970600D03*
%TD*%
D22*
%TO.P,C24,1*%
%TO.N,BQ_BAT2*%
X42257101Y-30725099D03*
%TO.P,C24,2*%
%TO.N,BATT-*%
X40357101Y-30725099D03*
%TD*%
D11*
%TO.P,R4,1*%
%TO.N,BATT-*%
X43770901Y-26457899D03*
%TO.P,R4,2*%
%TO.N,BQ_TS*%
X43770901Y-27477899D03*
%TD*%
D12*
%TO.P,R5,1*%
%TO.N,PD12*%
X69994600Y-42054200D03*
%TO.P,R5,2*%
%TO.N,Net-(D3-B)*%
X68974600Y-42054200D03*
%TD*%
D17*
%TO.P,R9,1*%
%TO.N,PG1*%
X82062400Y-35899800D03*
%TO.P,R9,2*%
%TO.N,BATT-*%
X82062400Y-34879800D03*
%TD*%
D14*
%TO.P,SW4,1,1_1*%
%TO.N,SC_3V3*%
X97502700Y-68385800D03*
%TO.P,SW4,2,2_2*%
%TO.N,PG3*%
X101652700Y-68385800D03*
%TO.P,SW4,3*%
%TO.N,N/C*%
X97502700Y-70535800D03*
%TO.P,SW4,4*%
X101652700Y-70535800D03*
%TD*%
D23*
%TO.P,C11,1*%
%TO.N,SC_3V3*%
X92724900Y-60858000D03*
%TO.P,C11,2*%
%TO.N,/STM32_Power_Requirements/CapJunction*%
X92724900Y-62408000D03*
%TD*%
D24*
%TO.P,C1,1*%
%TO.N,VCAP1*%
X75859300Y-36077600D03*
%TO.P,C1,2*%
%TO.N,BATT-*%
X76499300Y-36077600D03*
%TD*%
D25*
%TO.P,C4,1*%
%TO.N,SC_3V3*%
X74579400Y-35735000D03*
%TO.P,C4,2*%
%TO.N,/STM32_Power_Requirements/CapJunction*%
X74579400Y-34185000D03*
%TD*%
D26*
%TO.P,D7,A,A_A*%
%TO.N,Net-(D7-PadA)*%
X43883400Y-69674600D03*
%TO.P,D7,C,K_C*%
%TO.N,BQ_CHG*%
X43883400Y-68054600D03*
%TD*%
D25*
%TO.P,C7,1*%
%TO.N,SC_3V3*%
X91048500Y-35839600D03*
%TO.P,C7,2*%
%TO.N,/STM32_Power_Requirements/CapJunction*%
X91048500Y-34289600D03*
%TD*%
D27*
%TO.P,J2,1,Pin_1_1*%
%TO.N,PA13*%
X66591000Y-72940600D03*
D28*
%TO.P,J2,2,Pin_2_2*%
%TO.N,PA14*%
X66591000Y-70400600D03*
%TO.P,J2,3,Pin_3_3*%
%TO.N,PB3*%
X66591000Y-67860600D03*
%TO.P,J2,4,Pin_4_4*%
%TO.N,SC_3V3*%
X66591000Y-65320600D03*
%TO.P,J2,5,Pin_5_5*%
%TO.N,BATT-*%
X66591000Y-62780600D03*
%TD*%
D29*
%TO.P,R8,1*%
%TO.N,VREF+*%
X93858000Y-36803500D03*
%TO.P,R8,2*%
%TO.N,SC_3V3*%
X93858000Y-33878500D03*
%TD*%
D10*
%TO.P,C18,1*%
%TO.N,SC_3V3*%
X96346800Y-54551000D03*
%TO.P,C18,2*%
%TO.N,BATT-*%
X97896800Y-54551000D03*
%TD*%
D30*
%TO.P,J1,A1_B12,GND_A1_B12*%
%TO.N,BATT-*%
X51503800Y-69862800D03*
%TO.P,J1,A4_B9,VBUS_A4_B9*%
%TO.N,BQ_IN*%
X52303800Y-69862800D03*
D31*
%TO.P,J1,A5,CC1_A5*%
%TO.N,Net-(J1-CC1)*%
X53453800Y-69862800D03*
%TO.P,J1,A6,DP1_A6*%
%TO.N,unconnected-(J1-DP1-PadA6)*%
X54453800Y-69862800D03*
%TO.P,J1,A7,DN1_A7*%
%TO.N,unconnected-(J1-DN1-PadA7)*%
X54953800Y-69862800D03*
%TO.P,J1,A8,SBU1_A8*%
%TO.N,unconnected-(J1-SBU1-PadA8)*%
X55953800Y-69862800D03*
D30*
%TO.P,J1,B1_A12,GND__1_B1_A12*%
%TO.N,BATT-*%
X57903800Y-69862800D03*
%TO.P,J1,B4_A9,VBUS__1_B4_A9*%
%TO.N,BQ_IN*%
X57103800Y-69862800D03*
D31*
%TO.P,J1,B5,CC2_B5*%
%TO.N,Net-(J1-CC2)*%
X56453800Y-69862800D03*
%TO.P,J1,B6,DP2_B6*%
%TO.N,unconnected-(J1-DP2-PadB6)*%
X55453800Y-69862800D03*
%TO.P,J1,B7,DN2_B7*%
%TO.N,unconnected-(J1-DN2-PadB7)*%
X53953800Y-69862800D03*
%TO.P,J1,B8,SBU2_B8*%
%TO.N,unconnected-(J1-SBU2-PadB8)*%
X52953800Y-69862800D03*
D32*
%TO.P,J1,SH1,SHIELD_SH1*%
%TO.N,unconnected-(J1-SHIELD-PadSH1)*%
X50383800Y-70427800D03*
%TO.P,J1,SH2,SHIELD__1_SH2*%
%TO.N,unconnected-(J1-SHIELD__1-PadSH2)*%
X59023800Y-70427800D03*
D33*
%TO.P,J1,SH3,SHIELD__2_SH3*%
%TO.N,unconnected-(J1-SHIELD__2-PadSH3)*%
X50383800Y-74607800D03*
%TO.P,J1,SH4,SHIELD__3_SH4*%
%TO.N,unconnected-(J1-SHIELD__3-PadSH4)*%
X59023800Y-74607800D03*
%TD*%
D25*
%TO.P,C5,1*%
%TO.N,SC_3V3*%
X79516900Y-35788800D03*
%TO.P,C5,2*%
%TO.N,/STM32_Power_Requirements/CapJunction*%
X79516900Y-34238800D03*
%TD*%
D34*
%TO.P,C15,1*%
%TO.N,SC_3V3*%
X70131900Y-57032600D03*
%TO.P,C15,2*%
%TO.N,/STM32_Power_Requirements/CapJunction*%
X68581900Y-57032600D03*
%TD*%
D35*
%TO.P,C2,1*%
%TO.N,VCAP2*%
X70134400Y-55102200D03*
%TO.P,C2,2*%
%TO.N,BATT-*%
X70134400Y-55742200D03*
%TD*%
D25*
%TO.P,C26,1*%
%TO.N,BQ_IN*%
X46717301Y-27372299D03*
%TO.P,C26,2*%
%TO.N,BATT-*%
X46717301Y-25822299D03*
%TD*%
D36*
%TO.P,C3,1*%
%TO.N,/STM32_Power_Requirements/CapJunction*%
X72547400Y-34213200D03*
%TO.P,C3,2*%
%TO.N,BATT-*%
X72547400Y-36113200D03*
%TD*%
D37*
%TO.P,D3,1,A_1*%
%TO.N,SC_3V3*%
X35895100Y-64794800D03*
%TO.P,D3,2,B_2*%
%TO.N,Net-(D3-B)*%
X37698500Y-64794800D03*
%TO.P,D3,3,G_3*%
%TO.N,Net-(D3-G)*%
X37698500Y-65744800D03*
%TO.P,D3,4,R_4*%
%TO.N,Net-(D3-R)*%
X35895100Y-65744800D03*
%TD*%
D38*
%TO.P,U1,1,TS_1*%
%TO.N,BQ_TS*%
X44427699Y-29886899D03*
%TO.P,U1,2,BAT_2*%
%TO.N,BATT+*%
X44427699Y-30386900D03*
%TO.P,U1,3,BAT_3*%
%TO.N,BQ_BAT2*%
X44427699Y-30886900D03*
%TO.P,U1,4,\u002ACE_4*%
%TO.N,BATT-*%
X44427699Y-31386901D03*
D39*
%TO.P,U1,5,EN2_5*%
X45152511Y-32111901D03*
%TO.P,U1,6,EN1_6*%
%TO.N,BQ_OUT2*%
X45652637Y-32111901D03*
%TO.P,U1,7,\u002APGOOD_7*%
%TO.N,BQ_PGOOD*%
X46152763Y-32111901D03*
%TO.P,U1,8,VSS_8*%
%TO.N,BATT-*%
X46652889Y-32111901D03*
D38*
%TO.P,U1,9,\u002ACHG_9*%
%TO.N,BQ_CHG*%
X47377701Y-31386901D03*
%TO.P,U1,10,OUT_10*%
%TO.N,BQ_OUT2*%
X47377701Y-30886900D03*
%TO.P,U1,11,OUT_11*%
%TO.N,BQ_OUT*%
X47377701Y-30386900D03*
%TO.P,U1,12,ILIM_12*%
%TO.N,BQ_ILIM*%
X47377701Y-29886899D03*
D39*
%TO.P,U1,13,IN_13*%
%TO.N,BQ_IN*%
X46652889Y-29161899D03*
%TO.P,U1,14,TMR_14*%
%TO.N,unconnected-(U1-TMR-Pad14)*%
X46152763Y-29161899D03*
%TO.P,U1,15,TD_15*%
%TO.N,BATT-*%
X45652637Y-29161899D03*
%TO.P,U1,16,ISET_16*%
%TO.N,BQ_ISET*%
X45152511Y-29161899D03*
D40*
%TO.P,U1,17,EPAD_17*%
%TO.N,BATT-*%
X45902700Y-30636900D03*
D41*
%TO.P,U1,V*%
X45509000Y-30243200D03*
X45509000Y-31030600D03*
X46296400Y-30243200D03*
X46296400Y-31030600D03*
%TD*%
D42*
%TO.P,J3,1,Pin_1_1*%
%TO.N,BATT+*%
X36492000Y-30040000D03*
D43*
%TO.P,J3,2,Pin_2_2*%
%TO.N,BATT-*%
X36492000Y-32540000D03*
%TD*%
D11*
%TO.P,R1,1*%
%TO.N,BOOT0*%
X88965700Y-60789800D03*
%TO.P,R1,2*%
%TO.N,BATT-*%
X88965700Y-61809800D03*
%TD*%
D25*
%TO.P,C20,1*%
%TO.N,BQ_OUT*%
X54286501Y-32122699D03*
%TO.P,C20,2*%
%TO.N,BATT-*%
X54286501Y-30572699D03*
%TD*%
D44*
%TO.P,D6,A,A_A*%
%TO.N,Net-(D6-PadA)*%
X43959600Y-73018200D03*
%TO.P,D6,C,K_C*%
%TO.N,BQ_PGOOD*%
X43959600Y-71518200D03*
%TD*%
D45*
%TO.P,R19,1*%
%TO.N,PF3*%
X96376400Y-52206600D03*
%TO.P,R19,2*%
%TO.N,BATT-*%
X98201400Y-52206600D03*
%TD*%
D12*
%TO.P,R6,1*%
%TO.N,PD13*%
X69996600Y-43375000D03*
%TO.P,R6,2*%
%TO.N,Net-(D3-G)*%
X68976600Y-43375000D03*
%TD*%
D13*
%TO.P,R3,1*%
%TO.N,Net-(J1-CC2)*%
X56786600Y-64330000D03*
%TO.P,R3,2*%
%TO.N,BATT-*%
X57806600Y-64330000D03*
%TD*%
D34*
%TO.P,C12,1*%
%TO.N,SC_3V3*%
X70109200Y-53433400D03*
%TO.P,C12,2*%
%TO.N,/STM32_Power_Requirements/CapJunction*%
X68559200Y-53433400D03*
%TD*%
D46*
%TO.P,J4,1,1_1*%
%TO.N,SC_3V3*%
X85953999Y-74196800D03*
%TO.P,J4,2,2_2*%
X85454000Y-74196800D03*
%TO.P,J4,3,3_3*%
%TO.N,BATT-*%
X84953999Y-74196800D03*
%TO.P,J4,4,4_4*%
%TO.N,PC10*%
X84454000Y-74196800D03*
%TO.P,J4,5,5_5*%
%TO.N,PC12*%
X83953998Y-74196800D03*
%TO.P,J4,6,6_6*%
%TO.N,PC11*%
X83453999Y-74196800D03*
%TO.P,J4,7,7_7*%
%TO.N,PC13*%
X82954000Y-74196800D03*
%TO.P,J4,8,8_8*%
%TO.N,PC14*%
X82453998Y-74196800D03*
%TO.P,J4,9,9_9*%
%TO.N,PA15*%
X81954000Y-74196800D03*
%TO.P,J4,10,10_10*%
%TO.N,unconnected-(J4-Pad10)*%
X81453998Y-74196800D03*
%TO.P,J4,11,11_11*%
%TO.N,unconnected-(J4-Pad11)*%
X80953999Y-74196800D03*
%TO.P,J4,12,12_12*%
%TO.N,unconnected-(J4-Pad12)*%
X80454000Y-74196800D03*
%TO.P,J4,13,13_13*%
%TO.N,unconnected-(J4-Pad13)*%
X79953998Y-74196800D03*
%TO.P,J4,14,14_14*%
%TO.N,unconnected-(J4-Pad14)*%
X79453999Y-74196800D03*
%TO.P,J4,15,15_15*%
%TO.N,unconnected-(J4-Pad15)*%
X78953998Y-74196800D03*
%TO.P,J4,16,16_16*%
%TO.N,unconnected-(J4-Pad16)*%
X78453999Y-74196800D03*
%TO.P,J4,17,17_17*%
%TO.N,unconnected-(J4-Pad17)*%
X77954000Y-74196800D03*
%TO.P,J4,18,18_18*%
%TO.N,unconnected-(J4-Pad18)*%
X77453998Y-74196800D03*
D47*
%TO.P,J4,P1,P1_P1*%
%TO.N,unconnected-(J4-PadP1)*%
X88253992Y-71496801D03*
%TO.P,J4,P2,P2_P2*%
%TO.N,unconnected-(J4-PadP2)*%
X75154008Y-71496801D03*
%TD*%
D34*
%TO.P,C10,1*%
%TO.N,SC_3V3*%
X70236200Y-45051400D03*
%TO.P,C10,2*%
%TO.N,/STM32_Power_Requirements/CapJunction*%
X68686200Y-45051400D03*
%TD*%
D23*
%TO.P,C14,1*%
%TO.N,SC_3V3*%
X80634500Y-60858000D03*
%TO.P,C14,2*%
%TO.N,/STM32_Power_Requirements/CapJunction*%
X80634500Y-62408000D03*
%TD*%
D11*
%TO.P,R10,1*%
%TO.N,BQ_OUT*%
X42265500Y-71681700D03*
%TO.P,R10,2*%
%TO.N,Net-(D6-PadA)*%
X42265500Y-72701700D03*
%TD*%
D23*
%TO.P,C13,1*%
%TO.N,SC_3V3*%
X85612900Y-60858000D03*
%TO.P,C13,2*%
%TO.N,/STM32_Power_Requirements/CapJunction*%
X85612900Y-62408000D03*
%TD*%
D34*
%TO.P,C21,1*%
%TO.N,SC_3V3*%
X58211101Y-28312099D03*
%TO.P,C21,2*%
%TO.N,BATT-*%
X56661101Y-28312099D03*
%TD*%
D10*
%TO.P,C8,1*%
%TO.N,SC_3V3*%
X95963100Y-42633800D03*
%TO.P,C8,2*%
%TO.N,/STM32_Power_Requirements/CapJunction*%
X97513100Y-42633800D03*
%TD*%
D14*
%TO.P,SW5,1,1_1*%
%TO.N,SC_3V3*%
X97442300Y-72678400D03*
%TO.P,SW5,2,2_2*%
%TO.N,PG4*%
X101592300Y-72678400D03*
%TO.P,SW5,3*%
%TO.N,N/C*%
X97442300Y-74828400D03*
%TO.P,SW5,4*%
X101592300Y-74828400D03*
%TD*%
D25*
%TO.P,C6,1*%
%TO.N,SC_3V3*%
X84596900Y-35839600D03*
%TO.P,C6,2*%
%TO.N,/STM32_Power_Requirements/CapJunction*%
X84596900Y-34289600D03*
%TD*%
D34*
%TO.P,C17,1*%
%TO.N,Net-(C16-Pad2)*%
X100894000Y-35196200D03*
%TO.P,C17,2*%
%TO.N,BATT-*%
X99344000Y-35196200D03*
%TD*%
D12*
%TO.P,R2,1*%
%TO.N,Net-(J1-CC1)*%
X52648400Y-64355400D03*
%TO.P,R2,2*%
%TO.N,BATT-*%
X51628400Y-64355400D03*
%TD*%
D36*
%TO.P,C25,1*%
%TO.N,BQ_OUT2*%
X46666501Y-34093099D03*
%TO.P,C25,2*%
%TO.N,BATT-*%
X46666501Y-35993099D03*
%TD*%
D12*
%TO.P,R14,1*%
%TO.N,PG2*%
X69947800Y-47794600D03*
%TO.P,R14,2*%
%TO.N,BATT-*%
X68927800Y-47794600D03*
%TD*%
D48*
%TO.P,OV2,*%
%TO.N,*%
X109213600Y-63163200D03*
X109213600Y-33183200D03*
D49*
%TO.P,OV2,P$1,RESET_P$1*%
%TO.N,PE7*%
X107713600Y-58183200D03*
%TO.P,OV2,P$2,D1_P$2*%
%TO.N,PC7*%
X107713600Y-55643200D03*
%TO.P,OV2,P$3,D3_P$3*%
%TO.N,PE1*%
X107713600Y-53103200D03*
%TO.P,OV2,P$4,D5_P$4*%
%TO.N,PB6*%
X107713600Y-50563200D03*
%TO.P,OV2,P$5,D7_P$5*%
%TO.N,PE6*%
X107713600Y-48023200D03*
%TO.P,OV2,P$6,PCLK_P$6*%
%TO.N,PA6*%
X107713600Y-45483200D03*
%TO.P,OV2,P$7,VSYNC_P$7*%
%TO.N,PB7*%
X107713600Y-42943200D03*
%TO.P,OV2,P$8,SCL_P$8*%
%TO.N,PF1*%
X107713600Y-40403200D03*
D50*
%TO.P,OV2,P$9,+3V3_P$9*%
%TO.N,SC_3V3*%
X107713600Y-37863200D03*
D49*
%TO.P,OV2,P$10,GND_P$10*%
%TO.N,BATT-*%
X105173600Y-37863200D03*
%TO.P,OV2,P$11,SDA_P$11*%
%TO.N,PF0*%
X105173600Y-40403200D03*
%TO.P,OV2,P$12,HREF_P$12*%
%TO.N,PA4*%
X105173600Y-42943200D03*
%TO.P,OV2,P$13,XCLK_P$13*%
%TO.N,PB11*%
X105173600Y-45483200D03*
%TO.P,OV2,P$14,D6_P$14*%
%TO.N,PE5*%
X105173600Y-48023200D03*
%TO.P,OV2,P$15,D4_P$15*%
%TO.N,PE4*%
X105173600Y-50563200D03*
%TO.P,OV2,P$16,D2_P$16*%
%TO.N,PE0*%
X105173600Y-53103200D03*
%TO.P,OV2,P$17,D0_P$17*%
%TO.N,PC6*%
X105173600Y-55643200D03*
%TO.P,OV2,P$18,PWDWN_P$18*%
%TO.N,PE8*%
X105173600Y-58183200D03*
%TD*%
D51*
%TO.N,BQ_OUT*%
X54221200Y-32148200D03*
X42265500Y-68457900D03*
%TO.N,PG5*%
X80916600Y-42521729D03*
%TO.N,BATT-*%
X51604350Y-64406200D03*
X99344000Y-35196200D03*
X72547400Y-36113200D03*
X49843501Y-29937699D03*
X95674000Y-43908400D03*
X46666501Y-35993099D03*
X83662171Y-61178029D03*
X68028000Y-49605600D03*
X71239200Y-56573400D03*
X88965700Y-61809800D03*
X97896800Y-54551000D03*
X98201400Y-52206600D03*
X85920400Y-36034400D03*
X95369200Y-49902800D03*
X74261800Y-44568800D03*
X69791400Y-52188800D03*
X47294601Y-32648599D03*
X86022000Y-71975400D03*
X91279800Y-33037200D03*
X76954200Y-36085200D03*
X67647599Y-26559900D03*
X82055200Y-34887000D03*
X79595800Y-60291400D03*
X97541000Y-45145400D03*
X46717301Y-25822299D03*
X77429000Y-66116200D03*
X40357101Y-30725099D03*
X45142501Y-26407099D03*
X56126200Y-31350599D03*
X44278901Y-32299899D03*
X100815100Y-40957400D03*
X43770901Y-26457899D03*
%TO.N,NRST*%
X87753550Y-64198651D03*
X73279000Y-66116200D03*
X95991000Y-45145400D03*
%TO.N,SC_3V3*%
X68546800Y-32516500D03*
X104595200Y-68360400D03*
X95963100Y-42633800D03*
X74579400Y-35735000D03*
X70131900Y-57032600D03*
X93858000Y-33878500D03*
X95994800Y-38084200D03*
X97459800Y-68360400D03*
X84596900Y-35839600D03*
X85612900Y-60858000D03*
X35895100Y-64794800D03*
X61195301Y-32468699D03*
X104569700Y-72686600D03*
X97442300Y-72678400D03*
X96067400Y-48607400D03*
X70236200Y-45051400D03*
X96346800Y-54551000D03*
X113334800Y-27787600D03*
X92346600Y-41876400D03*
X79516900Y-35788800D03*
X92724900Y-60858000D03*
X80634500Y-60858000D03*
X91048500Y-35839600D03*
X85742600Y-72966000D03*
X70109200Y-53433400D03*
%TO.N,PG2*%
X75150800Y-46092800D03*
X108653400Y-68419400D03*
%TO.N,/STM32_Power_Requirements/CapJunction*%
X97513100Y-42633800D03*
X68686200Y-45051400D03*
X79516900Y-34238800D03*
X68559200Y-53433400D03*
X84596900Y-34289600D03*
X80634500Y-62408000D03*
X74579400Y-34185000D03*
X91048500Y-34289600D03*
X97617400Y-48607400D03*
X72547400Y-34213200D03*
X92724900Y-62408000D03*
X68581900Y-57032600D03*
X85612900Y-62408000D03*
%TO.N,PE5*%
X89365031Y-49518845D03*
%TO.N,PE6*%
X102557400Y-51122000D03*
%TO.N,PC13*%
X92524400Y-54678000D03*
X84371000Y-67073200D03*
%TO.N,PC14*%
X83634400Y-66209600D03*
X92438600Y-53754000D03*
%TO.N,PF0*%
X92757400Y-43582872D03*
%TO.N,PF1*%
X92776826Y-44799513D03*
%TO.N,PA4*%
X98214000Y-39463400D03*
X89857400Y-34889600D03*
%TO.N,PA6*%
X89578000Y-42308200D03*
%TO.N,PB0*%
X87520600Y-35983600D03*
%TO.N,PG1*%
X79672000Y-47312000D03*
X103951932Y-65903778D03*
%TO.N,PE7*%
X78341600Y-43095600D03*
%TO.N,PE8*%
X77741600Y-42359000D03*
%TO.N,PB11*%
X76039800Y-39717400D03*
%TO.N,PB12*%
X71493200Y-39565000D03*
%TO.N,PB13*%
X74338000Y-40098400D03*
%TO.N,PB14*%
X69918400Y-40565200D03*
%TO.N,PB15*%
X68191200Y-41165200D03*
%TO.N,PG3*%
X101652700Y-68385800D03*
X74287200Y-47226200D03*
%TO.N,PG4*%
X96319502Y-66027660D03*
X75506400Y-47362800D03*
%TO.N,PC6*%
X86992365Y-50913635D03*
%TO.N,PC7*%
X89400200Y-51909400D03*
%TO.N,PA13*%
X74084000Y-55973400D03*
%TO.N,PA14*%
X74668200Y-60570800D03*
%TO.N,PA15*%
X80383200Y-72407200D03*
X75868200Y-61307400D03*
%TO.N,PC10*%
X84980600Y-71746800D03*
X76674800Y-61409000D03*
%TO.N,PC11*%
X83405800Y-71645200D03*
X76235465Y-57691000D03*
%TO.N,PC12*%
X84066200Y-70934000D03*
X77182800Y-63136200D03*
%TO.N,PB3*%
X86403000Y-57141800D03*
%TO.N,PB6*%
X96131200Y-61901200D03*
%TO.N,PB7*%
X95999515Y-59981915D03*
X89186850Y-57284050D03*
%TO.N,PE0*%
X90594000Y-61231200D03*
X89374407Y-51109813D03*
%TO.N,PE1*%
X89284941Y-50314829D03*
%TO.N,BATT+*%
X99077600Y-50055200D03*
%TO.N,BQ_CHG*%
X48633200Y-32910200D03*
X47277400Y-53560400D03*
X48277600Y-36669400D03*
X43883400Y-68013000D03*
%TO.N,BQ_IN*%
X52303800Y-69862800D03*
X46728200Y-27398400D03*
%TO.N,BQ_PGOOD*%
X46456515Y-33034584D03*
X43934200Y-71492800D03*
%TD*%
%TO.N,Net-(C16-Pad1)*%
D52*
X97464800Y-38084200D02*
X99280600Y-38084200D01*
X99280600Y-38084200D02*
X99331400Y-38033400D01*
%TO.N,Net-(C16-Pad2)*%
X100881400Y-38033400D02*
X100881400Y-35208800D01*
X100881400Y-35208800D02*
X100894000Y-35196200D01*
%TO.N,VREF+*%
X93858000Y-36803500D02*
X95032400Y-37977900D01*
X95963100Y-40957400D02*
X95347100Y-41573400D01*
X95032400Y-37977900D02*
X95032400Y-40026700D01*
X95347100Y-41573400D02*
X93994900Y-41573400D01*
X95032400Y-40026700D02*
X95963100Y-40957400D01*
%TO.N,Net-(C22-Pad2)*%
X99265100Y-40957400D02*
X97513100Y-40957400D01*
%TO.N,BQ_OUT*%
X42265500Y-68457900D02*
X41645500Y-69077900D01*
X49141200Y-31208400D02*
X49166600Y-31208400D01*
D53*
X53361501Y-31288501D02*
X53361501Y-30061871D01*
D52*
X55960999Y-32122699D02*
X56138900Y-32300600D01*
D53*
X55411001Y-29672699D02*
X56138900Y-30400598D01*
D52*
X41645500Y-71061700D02*
X42265500Y-71681700D01*
D53*
X53361501Y-30061871D02*
X53750673Y-29672699D01*
X54221200Y-32148200D02*
X53361501Y-31288501D01*
X49166600Y-31208400D02*
X53281400Y-31208400D01*
D52*
X48319700Y-30386900D02*
X49141200Y-31208400D01*
X41645500Y-69077900D02*
X41645500Y-71061700D01*
D53*
X53281400Y-31208400D02*
X54221200Y-32148200D01*
X53750673Y-29672699D02*
X55411001Y-29672699D01*
D52*
X47377701Y-30386900D02*
X48319700Y-30386900D01*
X54286501Y-32122699D02*
X55960999Y-32122699D01*
%TO.N,Net-(D7-PadA)*%
X43686700Y-69477900D02*
X43883400Y-69674600D01*
X42265500Y-69477900D02*
X43686700Y-69477900D01*
%TO.N,PG5*%
X73593915Y-48073400D02*
X72669900Y-48073400D01*
X72669900Y-48073400D02*
X71899990Y-48073400D01*
X77030600Y-48226200D02*
X73746715Y-48226200D01*
X80916600Y-42521729D02*
X80916600Y-44340200D01*
X70915800Y-50329800D02*
X69945800Y-51299800D01*
X80916600Y-44340200D02*
X77030600Y-48226200D01*
X71899990Y-48073400D02*
X70915800Y-49057590D01*
X73746715Y-48226200D02*
X73593915Y-48073400D01*
X70915800Y-49057590D02*
X70915800Y-50329800D01*
%TO.N,BATT-*%
X91914800Y-36491600D02*
X91582400Y-36824000D01*
X85082400Y-59834000D02*
X85082400Y-58985900D01*
X44278901Y-32299899D02*
X44278901Y-32122099D01*
X84953999Y-72906072D02*
X84953999Y-74196800D01*
X70515800Y-51391904D02*
X70515800Y-51668724D01*
X44427699Y-31973301D02*
X44427699Y-31386901D01*
X51503800Y-64506750D02*
X51604350Y-64406200D01*
X85735790Y-36237600D02*
X85082400Y-36890990D01*
X68553800Y-50131400D02*
X68028000Y-49605600D01*
X70515800Y-51668724D02*
X69995724Y-52188800D01*
X76946600Y-36077600D02*
X76954200Y-36085200D01*
X86019598Y-71975400D02*
X85628998Y-72366000D01*
X85494071Y-72366000D02*
X84953999Y-72906072D01*
X45652637Y-27855887D02*
X45762501Y-27746023D01*
X80082400Y-36859800D02*
X82055200Y-34887000D01*
X56877050Y-30954598D02*
X56481049Y-31350599D01*
X56126200Y-31350599D02*
X56138900Y-31350599D01*
X85920400Y-36034400D02*
X85735790Y-36219010D01*
X91582400Y-36824000D02*
X91582400Y-37660900D01*
X93994900Y-49573400D02*
X95039800Y-49573400D01*
X83662171Y-61178029D02*
X83738371Y-61178029D01*
X52300550Y-63710000D02*
X57186600Y-63710000D01*
X71239200Y-56573400D02*
X72669900Y-56573400D01*
X56661101Y-28312099D02*
X56877050Y-28528048D01*
X51503800Y-69862800D02*
X51503800Y-64506750D01*
X80082400Y-37660900D02*
X80082400Y-36859800D01*
X45652637Y-29161899D02*
X45652637Y-27855887D01*
X57903800Y-69862800D02*
X57903800Y-64427200D01*
X85082400Y-36890990D02*
X85082400Y-37660900D01*
X44278901Y-32299899D02*
X44431301Y-32147499D01*
X82055200Y-34887000D02*
X82062400Y-34879800D01*
X83738371Y-61178029D02*
X85082400Y-59834000D01*
X94764810Y-42073400D02*
X95213100Y-42521690D01*
X72674500Y-44568800D02*
X72669900Y-44573400D01*
X47294601Y-32648599D02*
X46757903Y-32111901D01*
X69995724Y-52188800D02*
X69791400Y-52188800D01*
X44278901Y-32122099D02*
X44427699Y-31973301D01*
X57903800Y-64427200D02*
X57806600Y-64330000D01*
X51604350Y-64406200D02*
X51604350Y-64379450D01*
X80082400Y-58985900D02*
X80082400Y-59804800D01*
X85628998Y-72366000D02*
X85494071Y-72366000D01*
X95213100Y-43447500D02*
X95674000Y-43908400D01*
X72669900Y-50073400D02*
X71834304Y-50073400D01*
X44431301Y-32147499D02*
X45116913Y-32147499D01*
X76499300Y-36077600D02*
X76946600Y-36077600D01*
X93994900Y-42073400D02*
X94764810Y-42073400D01*
X56877050Y-28528048D02*
X56877050Y-30954598D01*
X57186600Y-63710000D02*
X57806600Y-64330000D01*
X70134400Y-55742200D02*
X70965600Y-56573400D01*
X46757903Y-32111901D02*
X46652889Y-32111901D01*
X95039800Y-49573400D02*
X95369200Y-49902800D01*
X68925800Y-50131400D02*
X68553800Y-50131400D01*
X91279800Y-33037200D02*
X91914800Y-33672200D01*
X70965600Y-56573400D02*
X71239200Y-56573400D01*
X95213100Y-42521690D02*
X95213100Y-43447500D01*
X56481049Y-31350599D02*
X56138900Y-31350599D01*
X86022000Y-71975400D02*
X86019598Y-71975400D01*
X51604350Y-64406200D02*
X52300550Y-63710000D01*
X45762501Y-27027099D02*
X45142501Y-26407099D01*
X54286501Y-30572699D02*
X55064401Y-31350599D01*
X91914800Y-33672200D02*
X91914800Y-36491600D01*
X68925800Y-47796600D02*
X68927800Y-47794600D01*
X68925800Y-51299800D02*
X68925800Y-47796600D01*
X45116913Y-32147499D02*
X45152511Y-32111901D01*
X71834304Y-50073400D02*
X70515800Y-51391904D01*
X74261800Y-44568800D02*
X72674500Y-44568800D01*
X85735790Y-36219010D02*
X85735790Y-36237600D01*
X51604350Y-64379450D02*
X51628400Y-64355400D01*
X80082400Y-59804800D02*
X79595800Y-60291400D01*
X45762501Y-27746023D02*
X45762501Y-27027099D01*
X55064401Y-31350599D02*
X56126200Y-31350599D01*
%TO.N,BQ_ILIM*%
X47428501Y-29937699D02*
X47377701Y-29886899D01*
X48823501Y-29937699D02*
X47428501Y-29937699D01*
%TO.N,NRST*%
X73904000Y-65491200D02*
X73279000Y-66116200D01*
X86556601Y-65395600D02*
X81602400Y-65395600D01*
X81506800Y-65491200D02*
X73904000Y-65491200D01*
X95991000Y-45145400D02*
X95919000Y-45073400D01*
X87753550Y-64198651D02*
X86556601Y-65395600D01*
X95919000Y-45073400D02*
X93994900Y-45073400D01*
X81602400Y-65395600D02*
X81506800Y-65491200D01*
%TO.N,SC_3V3*%
X58029650Y-31562450D02*
X58767800Y-32300600D01*
X74582400Y-35738000D02*
X74579400Y-35735000D01*
X71442400Y-51030990D02*
X71899990Y-50573400D01*
X95601400Y-49073400D02*
X93994900Y-49073400D01*
X85742600Y-72966000D02*
X85953999Y-73177399D01*
X70109200Y-53433400D02*
X70883600Y-53433400D01*
X71899990Y-50573400D02*
X72669900Y-50573400D01*
X58211101Y-28312099D02*
X58029650Y-28493550D01*
X70322700Y-57223400D02*
X72519900Y-57223400D01*
X74582400Y-37660900D02*
X74582400Y-35738000D01*
X92346600Y-41876400D02*
X93149600Y-41073400D01*
X93149600Y-41073400D02*
X93994900Y-41073400D01*
X92082400Y-58985900D02*
X92082400Y-60215500D01*
X70131900Y-57032600D02*
X70322700Y-57223400D01*
X72669900Y-45073400D02*
X70258200Y-45073400D01*
X91973400Y-60858000D02*
X92724900Y-60858000D01*
X94017300Y-54551000D02*
X93994900Y-54573400D01*
X80582400Y-60805900D02*
X80634500Y-60858000D01*
X85454000Y-73254600D02*
X85742600Y-72966000D01*
X70258200Y-45073400D02*
X70236200Y-45051400D01*
X92082400Y-60215500D02*
X92724900Y-60858000D01*
X85582400Y-58985900D02*
X85582400Y-60827500D01*
X85953999Y-73177399D02*
X85953999Y-74196800D01*
X80582400Y-58985900D02*
X80582400Y-60805900D01*
X70883600Y-53433400D02*
X71442400Y-52874600D01*
X96346800Y-54551000D02*
X94017300Y-54551000D01*
X91582400Y-58985900D02*
X91582400Y-60467000D01*
X85582400Y-60827500D02*
X85612900Y-60858000D01*
X85454000Y-74196800D02*
X85454000Y-73254600D01*
X72519900Y-57223400D02*
X72669900Y-57073400D01*
X92346600Y-42000400D02*
X92919600Y-42573400D01*
X58029650Y-28493550D02*
X58029650Y-31562450D01*
X96067400Y-48607400D02*
X95601400Y-49073400D01*
X91082400Y-37660900D02*
X91082400Y-35873500D01*
X58767800Y-32300600D02*
X61027202Y-32300600D01*
X71442400Y-52874600D02*
X71442400Y-51030990D01*
X95963100Y-42271690D02*
X95963100Y-42633800D01*
X79582400Y-37660900D02*
X79582400Y-35854300D01*
X91582400Y-60467000D02*
X91973400Y-60858000D01*
X84582400Y-35854100D02*
X84596900Y-35839600D01*
X91082400Y-35873500D02*
X91048500Y-35839600D01*
X92919600Y-42573400D02*
X93994900Y-42573400D01*
X61027202Y-32300600D02*
X61195301Y-32468699D01*
X93994900Y-41073400D02*
X94764810Y-41073400D01*
X84582400Y-37660900D02*
X84582400Y-35854100D01*
X92346600Y-41876400D02*
X92346600Y-42000400D01*
X79582400Y-35854300D02*
X79516900Y-35788800D01*
%TO.N,PG2*%
X74183600Y-46573400D02*
X72669900Y-46573400D01*
X75150800Y-46092800D02*
X74668200Y-46575400D01*
X74668200Y-46575400D02*
X74185600Y-46575400D01*
X71520600Y-46573400D02*
X72669900Y-46573400D01*
X74185600Y-46575400D02*
X74183600Y-46573400D01*
X70299400Y-47794600D02*
X71520600Y-46573400D01*
X69947800Y-47794600D02*
X70299400Y-47794600D01*
%TO.N,PE4*%
X105173600Y-50563200D02*
X99663400Y-56073400D01*
X99663400Y-56073400D02*
X93994900Y-56073400D01*
%TO.N,PE5*%
X91838600Y-51350600D02*
X91838600Y-55059000D01*
X91838600Y-55059000D02*
X92353000Y-55573400D01*
X90006845Y-49518845D02*
X91838600Y-51350600D01*
X89365031Y-49518845D02*
X90006845Y-49518845D01*
X92353000Y-55573400D02*
X93994900Y-55573400D01*
%TO.N,PE6*%
X95017410Y-55326000D02*
X94764810Y-55073400D01*
X102557400Y-51122000D02*
X102557400Y-51198200D01*
X102557400Y-51198200D02*
X98429600Y-55326000D01*
X94764810Y-55073400D02*
X93994900Y-55073400D01*
X98429600Y-55326000D02*
X95017410Y-55326000D01*
%TO.N,PC13*%
X81856400Y-69587800D02*
X84371000Y-67073200D01*
X82954000Y-72361800D02*
X81856400Y-71264200D01*
X92524400Y-54678000D02*
X93129000Y-54073400D01*
X93129000Y-54073400D02*
X93994900Y-54073400D01*
X82954000Y-74196800D02*
X82954000Y-72361800D01*
X81856400Y-71264200D02*
X81856400Y-69587800D01*
%TO.N,PC14*%
X80967400Y-71594400D02*
X80967400Y-68876600D01*
X92438600Y-53754000D02*
X92619200Y-53573400D01*
X82453998Y-74196800D02*
X82453998Y-73080998D01*
X82453998Y-73080998D02*
X80967400Y-71594400D01*
X92619200Y-53573400D02*
X93994900Y-53573400D01*
X80967400Y-68876600D02*
X83634400Y-66209600D01*
%TO.N,PF0*%
X90746400Y-45593872D02*
X90746400Y-49674200D01*
X92451800Y-52573400D02*
X93994900Y-52573400D01*
X92238600Y-51166400D02*
X92238600Y-52360200D01*
X90746400Y-49674200D02*
X92238600Y-51166400D01*
X92757400Y-43582872D02*
X90746400Y-45593872D01*
X92238600Y-52360200D02*
X92451800Y-52573400D01*
%TO.N,PF1*%
X92776826Y-44799513D02*
X92776826Y-44859373D01*
X92776826Y-44859373D02*
X91584600Y-46051599D01*
X92638600Y-50525000D02*
X92638600Y-51487010D01*
X93224990Y-52073400D02*
X93994900Y-52073400D01*
X91584600Y-46051599D02*
X91584600Y-49471000D01*
X92638600Y-51487010D02*
X93224990Y-52073400D01*
X91584600Y-49471000D02*
X92638600Y-50525000D01*
%TO.N,PF3*%
X96376400Y-52206600D02*
X95243200Y-51073400D01*
X96967400Y-51615600D02*
X96376400Y-52206600D01*
X95243200Y-51073400D02*
X93994900Y-51073400D01*
X96967400Y-50791800D02*
X96967400Y-51615600D01*
%TO.N,PA4*%
X105173600Y-42943200D02*
X101693800Y-39463400D01*
X89857400Y-34889600D02*
X89857400Y-35399088D01*
X89845444Y-35411044D02*
X89845444Y-35983600D01*
X101693800Y-39463400D02*
X98214000Y-39463400D01*
X90582400Y-36720556D02*
X90582400Y-37660900D01*
X89845444Y-35983600D02*
X90582400Y-36720556D01*
X89857400Y-35399088D02*
X89845444Y-35411044D01*
%TO.N,PA6*%
X89582400Y-39493200D02*
X89582400Y-37660900D01*
X89578000Y-42308200D02*
X89578000Y-39497600D01*
X89578000Y-39497600D02*
X89582400Y-39493200D01*
%TO.N,PB0*%
X87582400Y-36045400D02*
X87582400Y-37660900D01*
X87520600Y-35983600D02*
X87582400Y-36045400D01*
%TO.N,PG1*%
X79672000Y-47312000D02*
X82059600Y-44924400D01*
X82059600Y-38950200D02*
X82082400Y-38927400D01*
X82082400Y-35919800D02*
X82062400Y-35899800D01*
X108374600Y-66539800D02*
X109570200Y-67735400D01*
X82082400Y-38927400D02*
X82082400Y-37660900D01*
X104587954Y-66539800D02*
X108374600Y-66539800D01*
X82082400Y-37660900D02*
X82082400Y-35919800D01*
X82059600Y-44924400D02*
X82059600Y-38950200D01*
X103951932Y-65903778D02*
X104587954Y-66539800D01*
X109570200Y-67735400D02*
X109570200Y-71836100D01*
X109570200Y-71836100D02*
X108719700Y-72686600D01*
%TO.N,PE7*%
X78341600Y-43095600D02*
X81582400Y-39854800D01*
X81582400Y-39854800D02*
X81582400Y-37660900D01*
%TO.N,PE8*%
X77741600Y-42359000D02*
X81082400Y-39018200D01*
X81082400Y-39018200D02*
X81082400Y-37660900D01*
%TO.N,PB11*%
X75582400Y-39260000D02*
X75582400Y-37660900D01*
X76039800Y-39717400D02*
X75582400Y-39260000D01*
%TO.N,VCAP1*%
X75082400Y-36854500D02*
X75082400Y-37660900D01*
X75859300Y-36077600D02*
X75082400Y-36854500D01*
%TO.N,PB12*%
X72661500Y-39565000D02*
X72669900Y-39573400D01*
X71493200Y-39565000D02*
X72661500Y-39565000D01*
%TO.N,PB13*%
X72694900Y-40098400D02*
X72669900Y-40073400D01*
X74338000Y-40098400D02*
X72694900Y-40098400D01*
%TO.N,PB14*%
X69918400Y-40565200D02*
X69926600Y-40573400D01*
X69926600Y-40573400D02*
X72669900Y-40573400D01*
%TO.N,PB15*%
X71305600Y-41073400D02*
X72669900Y-41073400D01*
X71213800Y-41165200D02*
X71305600Y-41073400D01*
X68191200Y-41165200D02*
X71213800Y-41165200D01*
%TO.N,PD12*%
X71513800Y-43573400D02*
X72669900Y-43573400D01*
X69994600Y-42054200D02*
X71513800Y-43573400D01*
%TO.N,PD13*%
X70695000Y-44073400D02*
X72669900Y-44073400D01*
X69996600Y-43375000D02*
X70695000Y-44073400D01*
%TO.N,PD14*%
X71504600Y-45573400D02*
X72669900Y-45573400D01*
X70528000Y-46550000D02*
X71504600Y-45573400D01*
%TO.N,PG3*%
X73835071Y-47073400D02*
X72669900Y-47073400D01*
X73987871Y-47226200D02*
X73835071Y-47073400D01*
X74287200Y-47226200D02*
X73987871Y-47226200D01*
X72669900Y-47073400D02*
X71655600Y-47073400D01*
X71655600Y-47073400D02*
X69945800Y-48783200D01*
X69945800Y-48783200D02*
X69945800Y-48963000D01*
%TO.N,PG4*%
X96577060Y-66027660D02*
X96319502Y-66027660D01*
X72669900Y-47573400D02*
X71721286Y-47573400D01*
X73912400Y-47826200D02*
X73659600Y-47573400D01*
X99614914Y-70701014D02*
X99614914Y-69065514D01*
X101592300Y-72678400D02*
X99614914Y-70701014D01*
X73659600Y-47573400D02*
X72669900Y-47573400D01*
X99614914Y-69065514D02*
X96577060Y-66027660D01*
X71721286Y-47573400D02*
X70515800Y-48778886D01*
X74763600Y-47826200D02*
X73912400Y-47826200D01*
X75227000Y-47362800D02*
X74763600Y-47826200D01*
X75506400Y-47362800D02*
X75227000Y-47362800D01*
X70515800Y-48778886D02*
X70515800Y-49561400D01*
X70515800Y-49561400D02*
X69945800Y-50131400D01*
%TO.N,PC6*%
X86458965Y-50913635D02*
X86446265Y-50900935D01*
X86992365Y-50913635D02*
X86458965Y-50913635D01*
X74868265Y-50900935D02*
X74695800Y-51073400D01*
X86446265Y-50900935D02*
X74868265Y-50900935D01*
X74695800Y-51073400D02*
X72669900Y-51073400D01*
%TO.N,PC7*%
X89324000Y-51985600D02*
X89400200Y-51909400D01*
X72669900Y-51573400D02*
X74347271Y-51573400D01*
X74759471Y-51985600D02*
X89324000Y-51985600D01*
X74347271Y-51573400D02*
X74759471Y-51985600D01*
%TO.N,PA13*%
X74084000Y-55973400D02*
X73684000Y-55573400D01*
X73684000Y-55573400D02*
X72669900Y-55573400D01*
%TO.N,VCAP2*%
X70928790Y-55102200D02*
X71899990Y-56073400D01*
X70134400Y-55102200D02*
X70928790Y-55102200D01*
X71899990Y-56073400D02*
X72669900Y-56073400D01*
%TO.N,PA14*%
X74582400Y-60485000D02*
X74582400Y-58985900D01*
X74668200Y-60570800D02*
X74582400Y-60485000D01*
%TO.N,PA15*%
X75868200Y-61307400D02*
X75862000Y-61307400D01*
X75328600Y-60393000D02*
X75268200Y-60332600D01*
X80914398Y-72407200D02*
X80383200Y-72407200D01*
X81954000Y-73446802D02*
X80914398Y-72407200D01*
X75328600Y-60774000D02*
X75328600Y-60393000D01*
X75268200Y-60322271D02*
X75082400Y-60136471D01*
X81954000Y-74196800D02*
X81954000Y-73446802D01*
X75082400Y-60136471D02*
X75082400Y-58985900D01*
X75268200Y-60332600D02*
X75268200Y-60322271D01*
X75862000Y-61307400D02*
X75328600Y-60774000D01*
%TO.N,PC10*%
X84454000Y-74196800D02*
X84491600Y-74159200D01*
X84491600Y-72235800D02*
X84980600Y-71746800D01*
X76674800Y-61163185D02*
X75582400Y-60070785D01*
X84491600Y-74159200D02*
X84491600Y-72235800D01*
X75582400Y-60070785D02*
X75582400Y-58985900D01*
X76674800Y-61409000D02*
X76674800Y-61163185D01*
%TO.N,PC11*%
X83405800Y-71645200D02*
X83405800Y-72895002D01*
X76082400Y-57844065D02*
X76082400Y-58985900D01*
X76235465Y-57691000D02*
X76082400Y-57844065D01*
X83405800Y-72895002D02*
X83453999Y-72943201D01*
X83453999Y-72943201D02*
X83453999Y-74196800D01*
%TO.N,PC12*%
X76582400Y-59755810D02*
X76582400Y-58985900D01*
X77411400Y-60584810D02*
X76582400Y-59755810D01*
X84091600Y-72178600D02*
X84091600Y-70959400D01*
X84091600Y-70959400D02*
X84066200Y-70934000D01*
X77182800Y-63136200D02*
X77411400Y-62907600D01*
X77411400Y-62907600D02*
X77411400Y-60584810D01*
X83953998Y-74196800D02*
X83953998Y-72316202D01*
X83953998Y-72316202D02*
X84091600Y-72178600D01*
%TO.N,PB3*%
X86582400Y-57321200D02*
X86582400Y-58985900D01*
X86403000Y-57141800D02*
X86582400Y-57321200D01*
%TO.N,PB6*%
X87945700Y-62294410D02*
X87945700Y-60305191D01*
X96131200Y-61967800D02*
X94541000Y-63558000D01*
X94541000Y-63558000D02*
X89209291Y-63558000D01*
X88082400Y-60168491D02*
X88082400Y-58985900D01*
X89209291Y-63558000D02*
X87945700Y-62294410D01*
X87945700Y-60305191D02*
X88082400Y-60168491D01*
X96131200Y-61901200D02*
X96131200Y-61967800D01*
%TO.N,PB7*%
X89186850Y-57284050D02*
X88582400Y-57888500D01*
X106235600Y-56499095D02*
X105613495Y-57121200D01*
X98860230Y-57121200D02*
X95999515Y-59981915D01*
X105613495Y-57121200D02*
X98860230Y-57121200D01*
X107713600Y-42943200D02*
X106235600Y-44421200D01*
X106235600Y-44421200D02*
X106235600Y-56499095D01*
X88582400Y-57888500D02*
X88582400Y-58985900D01*
%TO.N,BOOT0*%
X88965700Y-60789800D02*
X89082400Y-60673100D01*
X89082400Y-60673100D02*
X89082400Y-58985900D01*
%TO.N,PE0*%
X90002815Y-52155315D02*
X90289200Y-52441700D01*
X90289200Y-52441700D02*
X90289200Y-57948400D01*
X90582400Y-60864000D02*
X90582400Y-58985900D01*
X90314810Y-57948400D02*
X90532400Y-58165990D01*
X89374407Y-51109813D02*
X89374407Y-51309400D01*
X89374407Y-51309400D02*
X89648729Y-51309400D01*
X90532400Y-58935900D02*
X90582400Y-58985900D01*
X90000200Y-51660871D02*
X90000200Y-52157929D01*
X90532400Y-58165990D02*
X90532400Y-58935900D01*
X90594000Y-60875600D02*
X90582400Y-60864000D01*
X90594000Y-61231200D02*
X90594000Y-60875600D01*
X90289200Y-57948400D02*
X90314810Y-57948400D01*
X90000200Y-52157929D02*
X90002815Y-52155315D01*
X89648729Y-51309400D02*
X90000200Y-51660871D01*
%TO.N,PE1*%
X89284941Y-50314829D02*
X89659829Y-50314829D01*
X91082400Y-51737400D02*
X91082400Y-52132200D01*
X89659829Y-50314829D02*
X91082400Y-51737400D01*
X91082400Y-52132200D02*
X91082400Y-58985900D01*
%TO.N,BQ_ISET*%
X45142501Y-29151889D02*
X45152511Y-29161899D01*
X45142501Y-27427099D02*
X45142501Y-29151889D01*
%TO.N,Net-(U2-LX)*%
X58767800Y-30400598D02*
X61113402Y-30400598D01*
X61113402Y-30400598D02*
X61195301Y-30318699D01*
%TO.N,Net-(D3-R)*%
X62568462Y-47335600D02*
X68447876Y-47335600D01*
X36499900Y-66349600D02*
X43554462Y-66349600D01*
X69233476Y-46550000D02*
X69508000Y-46550000D01*
X35895100Y-65744800D02*
X36499900Y-66349600D01*
X68447876Y-47335600D02*
X69233476Y-46550000D01*
X43554462Y-66349600D02*
X62568462Y-47335600D01*
%TO.N,BATT+*%
X98341000Y-50791800D02*
X99077600Y-50055200D01*
D53*
X42552200Y-29176400D02*
X37355600Y-29176400D01*
X37355600Y-29176400D02*
X36871901Y-29660099D01*
D54*
X44427699Y-30386900D02*
X43762700Y-30386900D01*
X36871901Y-29660099D02*
X36492000Y-30040000D01*
X43762700Y-30386900D02*
X43035899Y-29660099D01*
D53*
X43035899Y-29660099D02*
X42552200Y-29176400D01*
D52*
X97987400Y-50791800D02*
X98341000Y-50791800D01*
%TO.N,BQ_BAT2*%
X42418902Y-30886900D02*
X44427699Y-30886900D01*
X42257101Y-30725099D02*
X42418902Y-30886900D01*
%TO.N,BQ_TS*%
X43770901Y-29230101D02*
X44427699Y-29886899D01*
X43770901Y-27477899D02*
X43770901Y-29230101D01*
%TO.N,Net-(D3-B)*%
X59827700Y-42665600D02*
X68363200Y-42665600D01*
X37698500Y-64794800D02*
X59827700Y-42665600D01*
X68363200Y-42665600D02*
X68974600Y-42054200D01*
%TO.N,BQ_CHG*%
X47377701Y-31386901D02*
X47377701Y-31654701D01*
X47277400Y-37669600D02*
X47277400Y-53560400D01*
X47377701Y-31654701D02*
X48633200Y-32910200D01*
X43883400Y-68054600D02*
X43883400Y-68013000D01*
X48277600Y-36669400D02*
X47277400Y-37669600D01*
%TO.N,BQ_IN*%
X56829206Y-70737800D02*
X57103800Y-70463206D01*
X46652889Y-29161899D02*
X46652889Y-27436711D01*
X52303800Y-69862800D02*
X52503800Y-70062800D01*
X52503800Y-70062800D02*
X52503800Y-70737800D01*
X46652889Y-27436711D02*
X46717301Y-27372299D01*
X57103800Y-70463206D02*
X57103800Y-69862800D01*
X52503800Y-70737800D02*
X56829206Y-70737800D01*
%TO.N,Net-(J1-CC1)*%
X53453800Y-69862800D02*
X53453800Y-65160800D01*
X53453800Y-65160800D02*
X52648400Y-64355400D01*
%TO.N,Net-(J1-CC2)*%
X56786600Y-67366050D02*
X56453800Y-67698850D01*
X56453800Y-67698850D02*
X56453800Y-69862800D01*
X56786600Y-64330000D02*
X56786600Y-67366050D01*
%TO.N,Net-(D3-G)*%
X67556000Y-44795600D02*
X68976600Y-43375000D01*
X62978462Y-44795600D02*
X67556000Y-44795600D01*
X42029262Y-65744800D02*
X62978462Y-44795600D01*
X37698500Y-65744800D02*
X42029262Y-65744800D01*
%TO.N,BQ_OUT2*%
X49075901Y-34093099D02*
X46666501Y-34093099D01*
X49750800Y-33418200D02*
X49075901Y-34093099D01*
X47377701Y-30886900D02*
X48042700Y-30886900D01*
X48102701Y-30946901D02*
X48102701Y-30982701D01*
X49750800Y-32630800D02*
X49750800Y-33418200D01*
X48042700Y-30886900D02*
X48102701Y-30946901D01*
X45652637Y-33079235D02*
X45652637Y-32111901D01*
X46666501Y-34093099D02*
X45652637Y-33079235D01*
X48102701Y-30982701D02*
X49750800Y-32630800D01*
%TO.N,BQ_PGOOD*%
X46152763Y-32730832D02*
X46456515Y-33034584D01*
X46152763Y-32111901D02*
X46152763Y-32730832D01*
%TO.N,Net-(D6-PadA)*%
X42265500Y-72701700D02*
X43643100Y-72701700D01*
X43643100Y-72701700D02*
X43959600Y-73018200D01*
%TD*%
M02*
