%TF.GenerationSoftware,KiCad,Pcbnew,10.0.3*%
%TF.CreationDate,2026-09-21T19:48:30-04:00*%
%TF.ProjectId,camCAD_fourLayer_v2,63616d43-4144-45f6-966f-75724c617965,vSep26*%
%TF.SameCoordinates,Original*%
%TF.FileFunction,Legend,Bot*%
%TF.FilePolarity,Positive*%
%FSLAX46Y46*%
G04 Gerber Fmt 4.6, Leading zero omitted, Abs format (unit mm)*
G04 Created by KiCad (PCBNEW 10.0.3) date 2026-09-21 19:48:30*
%MOMM*%
%LPD*%
G01*
G04 APERTURE LIST*
%ADD10C,0.140888*%
%ADD11C,0.151462*%
%ADD12C,0.125969*%
%ADD13C,0.100000*%
%ADD14C,0.300000*%
%ADD15C,0.150000*%
%ADD16C,0.120000*%
%ADD17C,0.127000*%
%ADD18C,0.200000*%
%ADD19C,0.152400*%
G04 APERTURE END LIST*
D10*
X31762902Y-41140254D02*
X33945815Y-44110446D01*
X32138653Y-37901668D02*
X31762902Y-41140254D01*
X32925928Y-40943435D02*
X33140642Y-39118372D01*
X33140642Y-39118372D02*
X36003480Y-37221744D01*
X33248000Y-44915613D02*
X33248000Y-54756623D01*
X33248000Y-54756623D02*
X37349718Y-58156244D01*
X34750986Y-43305267D02*
X32925928Y-40943435D01*
X35717195Y-35897682D02*
X32138653Y-37901668D01*
D11*
X35757961Y-49423644D02*
X35834906Y-46192050D01*
D10*
X35757961Y-49423644D02*
X38257963Y-46669108D01*
X35788763Y-48852025D02*
X40190378Y-44037660D01*
D11*
X35834906Y-46192050D02*
X37873887Y-44037660D01*
D10*
X35896120Y-47116425D02*
X38687391Y-44074660D01*
X36003480Y-37221744D02*
X38651605Y-38009023D01*
X36008489Y-49621409D02*
X37930888Y-47510068D01*
X36144072Y-49961372D02*
X37935899Y-48064747D01*
X36361337Y-50247657D02*
X38007468Y-48494167D01*
X36683409Y-50784434D02*
X38293757Y-49102523D01*
X36862328Y-51070722D02*
X38436896Y-49353017D01*
X37059148Y-51285433D02*
X38669496Y-49567729D01*
D11*
X37142934Y-51501093D02*
X35757961Y-49423644D01*
D10*
X37399109Y-51464359D02*
X38937886Y-49746660D01*
X37756969Y-40406648D02*
X33248000Y-44915613D01*
X37756969Y-40406648D02*
X54182500Y-40406648D01*
D11*
X37873887Y-44037660D02*
X42182675Y-44037660D01*
D10*
X38128534Y-48804023D02*
X36576049Y-50462365D01*
X38222185Y-51500148D02*
X39474671Y-50032937D01*
X38275860Y-44065104D02*
X35949803Y-46553416D01*
X38651605Y-38009023D02*
X39760958Y-40370867D01*
X38794749Y-54112484D02*
X42552221Y-51679073D01*
X38794749Y-56724825D02*
X38794749Y-54112484D01*
X39188387Y-44092554D02*
X35796438Y-47807843D01*
X39188387Y-51500148D02*
X40440888Y-50104519D01*
X39206273Y-49889796D02*
X37787642Y-51501093D01*
X39546241Y-37150168D02*
X35717195Y-35897682D01*
X39582027Y-45738688D02*
X41267079Y-44000854D01*
X39653596Y-44092554D02*
X35824551Y-48315238D01*
X39653596Y-51501093D02*
X44234140Y-46812252D01*
X39939883Y-50068731D02*
X38687391Y-51500148D01*
X40081487Y-51501093D02*
X44234140Y-47277455D01*
X40111982Y-45698684D02*
X41657587Y-44056770D01*
D11*
X42298090Y-47884786D02*
G75*
G02*
X37925874Y-47884786I-2186108J0D01*
G01*
X37925874Y-47884786D02*
G75*
G02*
X42298090Y-47884786I2186108J0D01*
G01*
D10*
X40396570Y-58156244D02*
X38794749Y-56724825D01*
X40512448Y-45702897D02*
X42015435Y-44128343D01*
X40584019Y-51501093D02*
X44221658Y-47807844D01*
X40762948Y-44092554D02*
X38830533Y-46096542D01*
X41049232Y-51500148D02*
X44234140Y-48279452D01*
X41156590Y-40406648D02*
X39546241Y-37150168D01*
X41156590Y-45953398D02*
X42516434Y-44486197D01*
X41411889Y-46127152D02*
X42766937Y-44665120D01*
X41548380Y-51501093D02*
X44198356Y-48780453D01*
X41693368Y-46382822D02*
X43017434Y-44951403D01*
X41943869Y-46633321D02*
X43202166Y-45309255D01*
X42122796Y-51500148D02*
X44269917Y-49174090D01*
D11*
X42182675Y-44037660D02*
X44221658Y-46268992D01*
D10*
X42230152Y-47241674D02*
X43733143Y-45738688D01*
X42298094Y-47671104D02*
X43983639Y-45989179D01*
X42301725Y-48207885D02*
X44221658Y-46268992D01*
X42337505Y-44199914D02*
X40834522Y-45774474D01*
D11*
X42528913Y-51501093D02*
X37142934Y-51501093D01*
D10*
X42552221Y-51679073D02*
X48743108Y-51679073D01*
X43482647Y-45452401D02*
X42087009Y-46919610D01*
D11*
X44221658Y-46268992D02*
X44221658Y-49346698D01*
X44221658Y-49423644D02*
X42528913Y-51501093D01*
D10*
X44448854Y-53056814D02*
X47061188Y-53056814D01*
X44931957Y-53101549D02*
X44753026Y-53334154D01*
X45218242Y-53110491D02*
X44896169Y-53504135D01*
X45307701Y-54058806D02*
X46094981Y-53092603D01*
X45468738Y-54255622D02*
X46434947Y-53110491D01*
X45515453Y-53083653D02*
X45028373Y-53709897D01*
X45772910Y-54685054D02*
X44448854Y-53056814D01*
X45772910Y-54685054D02*
X45772910Y-56474322D01*
X45772910Y-56474322D02*
X43912067Y-57476322D01*
X45772910Y-56474322D02*
X47705328Y-57440537D01*
X45808697Y-53097071D02*
X45164565Y-53911190D01*
X46739119Y-53110491D02*
X45629774Y-54470340D01*
X47061188Y-53056814D02*
X45772910Y-54685054D01*
X48743108Y-51679073D02*
X52643721Y-54076698D01*
X50782882Y-40406648D02*
X52607940Y-37221744D01*
D11*
X54146715Y-47921600D02*
G75*
G02*
X49774485Y-47921600I-2186115J0D01*
G01*
X49774485Y-47921600D02*
G75*
G02*
X54146715Y-47921600I2186115J0D01*
G01*
D10*
X52142729Y-40370867D02*
X53717290Y-38009023D01*
X52607940Y-37221744D02*
X55792841Y-36040821D01*
X52643721Y-54076698D02*
X52643721Y-56724825D01*
X52643721Y-56724825D02*
X51176517Y-58156244D01*
X53717290Y-38009023D02*
X55721270Y-37436454D01*
X54182500Y-40406648D02*
X59156678Y-45345049D01*
D12*
X55399203Y-58156244D02*
X37349718Y-58156244D01*
D10*
X55721270Y-37436454D02*
X58083113Y-38867872D01*
X55792841Y-36040821D02*
X59049322Y-37758525D01*
X58083113Y-38867872D02*
X58798823Y-40621362D01*
X58798823Y-40621362D02*
X57438970Y-43484198D01*
X59049322Y-37758525D02*
X60158672Y-40370867D01*
X59156678Y-54398771D02*
X55399203Y-58156244D01*
X59156678Y-54398771D02*
X59156678Y-45345049D01*
X60158672Y-40370867D02*
X58405190Y-44629335D01*
D13*
X51717030Y-64112600D02*
X51602744Y-64150695D01*
X51602744Y-64150695D02*
X51412268Y-64150695D01*
X51412268Y-64150695D02*
X51336077Y-64112600D01*
X51336077Y-64112600D02*
X51297982Y-64074504D01*
X51297982Y-64074504D02*
X51259887Y-63998314D01*
X51259887Y-63998314D02*
X51259887Y-63922123D01*
X51259887Y-63922123D02*
X51297982Y-63845933D01*
X51297982Y-63845933D02*
X51336077Y-63807838D01*
X51336077Y-63807838D02*
X51412268Y-63769742D01*
X51412268Y-63769742D02*
X51564649Y-63731647D01*
X51564649Y-63731647D02*
X51640839Y-63693552D01*
X51640839Y-63693552D02*
X51678934Y-63655457D01*
X51678934Y-63655457D02*
X51717030Y-63579266D01*
X51717030Y-63579266D02*
X51717030Y-63503076D01*
X51717030Y-63503076D02*
X51678934Y-63426885D01*
X51678934Y-63426885D02*
X51640839Y-63388790D01*
X51640839Y-63388790D02*
X51564649Y-63350695D01*
X51564649Y-63350695D02*
X51374172Y-63350695D01*
X51374172Y-63350695D02*
X51259887Y-63388790D01*
X50917029Y-64150695D02*
X50917029Y-63617361D01*
X50917029Y-63350695D02*
X50955125Y-63388790D01*
X50955125Y-63388790D02*
X50917029Y-63426885D01*
X50917029Y-63426885D02*
X50878934Y-63388790D01*
X50878934Y-63388790D02*
X50917029Y-63350695D01*
X50917029Y-63350695D02*
X50917029Y-63426885D01*
X50193220Y-64150695D02*
X50193220Y-63350695D01*
X50193220Y-64112600D02*
X50269411Y-64150695D01*
X50269411Y-64150695D02*
X50421792Y-64150695D01*
X50421792Y-64150695D02*
X50497982Y-64112600D01*
X50497982Y-64112600D02*
X50536077Y-64074504D01*
X50536077Y-64074504D02*
X50574173Y-63998314D01*
X50574173Y-63998314D02*
X50574173Y-63769742D01*
X50574173Y-63769742D02*
X50536077Y-63693552D01*
X50536077Y-63693552D02*
X50497982Y-63655457D01*
X50497982Y-63655457D02*
X50421792Y-63617361D01*
X50421792Y-63617361D02*
X50269411Y-63617361D01*
X50269411Y-63617361D02*
X50193220Y-63655457D01*
X49469410Y-64150695D02*
X49469410Y-63350695D01*
X49469410Y-64112600D02*
X49545601Y-64150695D01*
X49545601Y-64150695D02*
X49697982Y-64150695D01*
X49697982Y-64150695D02*
X49774172Y-64112600D01*
X49774172Y-64112600D02*
X49812267Y-64074504D01*
X49812267Y-64074504D02*
X49850363Y-63998314D01*
X49850363Y-63998314D02*
X49850363Y-63769742D01*
X49850363Y-63769742D02*
X49812267Y-63693552D01*
X49812267Y-63693552D02*
X49774172Y-63655457D01*
X49774172Y-63655457D02*
X49697982Y-63617361D01*
X49697982Y-63617361D02*
X49545601Y-63617361D01*
X49545601Y-63617361D02*
X49469410Y-63655457D01*
X49088457Y-64150695D02*
X49088457Y-63350695D01*
X48745600Y-64150695D02*
X48745600Y-63731647D01*
X48745600Y-63731647D02*
X48783695Y-63655457D01*
X48783695Y-63655457D02*
X48859886Y-63617361D01*
X48859886Y-63617361D02*
X48974172Y-63617361D01*
X48974172Y-63617361D02*
X49050362Y-63655457D01*
X49050362Y-63655457D02*
X49088457Y-63693552D01*
X48021790Y-64150695D02*
X48021790Y-63731647D01*
X48021790Y-63731647D02*
X48059885Y-63655457D01*
X48059885Y-63655457D02*
X48136076Y-63617361D01*
X48136076Y-63617361D02*
X48288457Y-63617361D01*
X48288457Y-63617361D02*
X48364647Y-63655457D01*
X48021790Y-64112600D02*
X48097981Y-64150695D01*
X48097981Y-64150695D02*
X48288457Y-64150695D01*
X48288457Y-64150695D02*
X48364647Y-64112600D01*
X48364647Y-64112600D02*
X48402743Y-64036409D01*
X48402743Y-64036409D02*
X48402743Y-63960219D01*
X48402743Y-63960219D02*
X48364647Y-63884028D01*
X48364647Y-63884028D02*
X48288457Y-63845933D01*
X48288457Y-63845933D02*
X48097981Y-63845933D01*
X48097981Y-63845933D02*
X48021790Y-63807838D01*
X47640837Y-64150695D02*
X47640837Y-63617361D01*
X47640837Y-63769742D02*
X47602742Y-63693552D01*
X47602742Y-63693552D02*
X47564647Y-63655457D01*
X47564647Y-63655457D02*
X47488456Y-63617361D01*
X47488456Y-63617361D02*
X47412266Y-63617361D01*
X47259885Y-63617361D02*
X46955123Y-63617361D01*
X47145599Y-63350695D02*
X47145599Y-64036409D01*
X47145599Y-64036409D02*
X47107504Y-64112600D01*
X47107504Y-64112600D02*
X47031314Y-64150695D01*
X47031314Y-64150695D02*
X46955123Y-64150695D01*
X46688456Y-64150695D02*
X46688456Y-63350695D01*
X46345599Y-64150695D02*
X46345599Y-63731647D01*
X46345599Y-63731647D02*
X46383694Y-63655457D01*
X46383694Y-63655457D02*
X46459885Y-63617361D01*
X46459885Y-63617361D02*
X46574171Y-63617361D01*
X46574171Y-63617361D02*
X46650361Y-63655457D01*
X46650361Y-63655457D02*
X46688456Y-63693552D01*
X45469408Y-63350695D02*
X45202741Y-64150695D01*
X45202741Y-64150695D02*
X44936075Y-63350695D01*
X44326551Y-64150695D02*
X44326551Y-63731647D01*
X44326551Y-63731647D02*
X44364646Y-63655457D01*
X44364646Y-63655457D02*
X44440837Y-63617361D01*
X44440837Y-63617361D02*
X44593218Y-63617361D01*
X44593218Y-63617361D02*
X44669408Y-63655457D01*
X44326551Y-64112600D02*
X44402742Y-64150695D01*
X44402742Y-64150695D02*
X44593218Y-64150695D01*
X44593218Y-64150695D02*
X44669408Y-64112600D01*
X44669408Y-64112600D02*
X44707504Y-64036409D01*
X44707504Y-64036409D02*
X44707504Y-63960219D01*
X44707504Y-63960219D02*
X44669408Y-63884028D01*
X44669408Y-63884028D02*
X44593218Y-63845933D01*
X44593218Y-63845933D02*
X44402742Y-63845933D01*
X44402742Y-63845933D02*
X44326551Y-63807838D01*
X43983694Y-64112600D02*
X43907503Y-64150695D01*
X43907503Y-64150695D02*
X43755122Y-64150695D01*
X43755122Y-64150695D02*
X43678932Y-64112600D01*
X43678932Y-64112600D02*
X43640836Y-64036409D01*
X43640836Y-64036409D02*
X43640836Y-63998314D01*
X43640836Y-63998314D02*
X43678932Y-63922123D01*
X43678932Y-63922123D02*
X43755122Y-63884028D01*
X43755122Y-63884028D02*
X43869408Y-63884028D01*
X43869408Y-63884028D02*
X43945598Y-63845933D01*
X43945598Y-63845933D02*
X43983694Y-63769742D01*
X43983694Y-63769742D02*
X43983694Y-63731647D01*
X43983694Y-63731647D02*
X43945598Y-63655457D01*
X43945598Y-63655457D02*
X43869408Y-63617361D01*
X43869408Y-63617361D02*
X43755122Y-63617361D01*
X43755122Y-63617361D02*
X43678932Y-63655457D01*
X42955122Y-63617361D02*
X42955122Y-64150695D01*
X43297979Y-63617361D02*
X43297979Y-64036409D01*
X43297979Y-64036409D02*
X43259884Y-64112600D01*
X43259884Y-64112600D02*
X43183694Y-64150695D01*
X43183694Y-64150695D02*
X43069408Y-64150695D01*
X43069408Y-64150695D02*
X42993217Y-64112600D01*
X42993217Y-64112600D02*
X42955122Y-64074504D01*
X42231312Y-64150695D02*
X42231312Y-63350695D01*
X42231312Y-64112600D02*
X42307503Y-64150695D01*
X42307503Y-64150695D02*
X42459884Y-64150695D01*
X42459884Y-64150695D02*
X42536074Y-64112600D01*
X42536074Y-64112600D02*
X42574169Y-64074504D01*
X42574169Y-64074504D02*
X42612265Y-63998314D01*
X42612265Y-63998314D02*
X42612265Y-63769742D01*
X42612265Y-63769742D02*
X42574169Y-63693552D01*
X42574169Y-63693552D02*
X42536074Y-63655457D01*
X42536074Y-63655457D02*
X42459884Y-63617361D01*
X42459884Y-63617361D02*
X42307503Y-63617361D01*
X42307503Y-63617361D02*
X42231312Y-63655457D01*
X41545597Y-64112600D02*
X41621788Y-64150695D01*
X41621788Y-64150695D02*
X41774169Y-64150695D01*
X41774169Y-64150695D02*
X41850359Y-64112600D01*
X41850359Y-64112600D02*
X41888455Y-64036409D01*
X41888455Y-64036409D02*
X41888455Y-63731647D01*
X41888455Y-63731647D02*
X41850359Y-63655457D01*
X41850359Y-63655457D02*
X41774169Y-63617361D01*
X41774169Y-63617361D02*
X41621788Y-63617361D01*
X41621788Y-63617361D02*
X41545597Y-63655457D01*
X41545597Y-63655457D02*
X41507502Y-63731647D01*
X41507502Y-63731647D02*
X41507502Y-63807838D01*
X41507502Y-63807838D02*
X41888455Y-63884028D01*
X41240836Y-63617361D02*
X41050360Y-64150695D01*
X41050360Y-64150695D02*
X40859883Y-63617361D01*
X40212264Y-64150695D02*
X40212264Y-63731647D01*
X40212264Y-63731647D02*
X40250359Y-63655457D01*
X40250359Y-63655457D02*
X40326550Y-63617361D01*
X40326550Y-63617361D02*
X40478931Y-63617361D01*
X40478931Y-63617361D02*
X40555121Y-63655457D01*
X40212264Y-64112600D02*
X40288455Y-64150695D01*
X40288455Y-64150695D02*
X40478931Y-64150695D01*
X40478931Y-64150695D02*
X40555121Y-64112600D01*
X40555121Y-64112600D02*
X40593217Y-64036409D01*
X40593217Y-64036409D02*
X40593217Y-63960219D01*
X40593217Y-63960219D02*
X40555121Y-63884028D01*
X40555121Y-63884028D02*
X40478931Y-63845933D01*
X40478931Y-63845933D02*
X40288455Y-63845933D01*
X40288455Y-63845933D02*
X40212264Y-63807838D01*
X39831311Y-63617361D02*
X39831311Y-64150695D01*
X39831311Y-63693552D02*
X39793216Y-63655457D01*
X39793216Y-63655457D02*
X39717026Y-63617361D01*
X39717026Y-63617361D02*
X39602740Y-63617361D01*
X39602740Y-63617361D02*
X39526549Y-63655457D01*
X39526549Y-63655457D02*
X39488454Y-63731647D01*
X39488454Y-63731647D02*
X39488454Y-64150695D01*
X62470419Y-27958115D02*
X62422800Y-27910496D01*
X62422800Y-27910496D02*
X62375180Y-27958115D01*
X62375180Y-27958115D02*
X62422800Y-28005734D01*
X62422800Y-28005734D02*
X62470419Y-27958115D01*
X62470419Y-27958115D02*
X62375180Y-27958115D01*
D14*
X49699517Y-60039171D02*
X47985232Y-60039171D01*
X49413803Y-61324885D02*
X48128089Y-61324885D01*
X49413803Y-60753457D02*
X48128089Y-60753457D01*
X49413803Y-60324885D02*
X49413803Y-61896314D01*
X49270946Y-62324885D02*
X49699517Y-62753457D01*
X48985232Y-59324885D02*
X49270946Y-60039171D01*
X48699517Y-61896314D02*
X48128089Y-61896314D01*
X48413803Y-59610600D02*
X47842374Y-60039171D01*
X48270946Y-62182028D02*
X48270946Y-62753457D01*
X47413803Y-62182028D02*
X47270946Y-62753457D01*
X47413803Y-61896314D02*
X45985232Y-61896314D01*
X47413803Y-60467742D02*
X46128089Y-60467742D01*
X47413803Y-60753457D02*
X47413803Y-61753457D01*
X47413803Y-59324885D02*
X47413803Y-60467742D01*
X46556660Y-62182028D02*
X45985232Y-62753457D01*
X46270946Y-59610600D02*
X47413803Y-59896314D01*
X46270946Y-60896314D02*
X47413803Y-61182028D01*
X46128089Y-60182028D02*
X46128089Y-60467742D01*
X46128089Y-61467742D02*
X45985232Y-61896314D01*
X49413803Y-60324885D02*
X48128089Y-60324885D01*
X48128089Y-60324885D02*
X48128089Y-61753457D01*
X44556661Y-62610600D02*
X45128089Y-62753457D01*
X44270946Y-59467742D02*
X45270946Y-60467742D01*
X43985232Y-60039171D02*
X41556661Y-60039171D01*
X43842375Y-62610600D02*
X41699518Y-62610600D01*
X43842375Y-61753457D02*
X41699518Y-61753457D01*
X43842375Y-60896314D02*
X43842375Y-62753457D01*
X43270946Y-59324885D02*
X43270946Y-60467742D01*
X42699518Y-60896314D02*
X42699518Y-62610600D01*
X42270946Y-59324885D02*
X42270946Y-60467742D01*
X44413803Y-60610600D02*
X44556661Y-61182028D01*
X44556661Y-61182028D02*
X45270946Y-61753457D01*
X43842375Y-60896314D02*
X41699518Y-60896314D01*
X41699518Y-60896314D02*
X41699518Y-62753457D01*
X45128089Y-59467742D02*
X44556661Y-60039171D01*
X44556661Y-60039171D02*
X44270946Y-61039171D01*
X44270946Y-61039171D02*
X44270946Y-61896314D01*
X44270946Y-61896314D02*
X44413803Y-62610600D01*
D15*
X71522580Y-26679342D02*
X71570200Y-26631723D01*
X71570200Y-26631723D02*
X71617819Y-26488866D01*
X71617819Y-26488866D02*
X71617819Y-26393628D01*
X71617819Y-26393628D02*
X71570200Y-26250771D01*
X71570200Y-26250771D02*
X71474961Y-26155533D01*
X71474961Y-26155533D02*
X71379723Y-26107914D01*
X71379723Y-26107914D02*
X71189247Y-26060295D01*
X71189247Y-26060295D02*
X71046390Y-26060295D01*
X71046390Y-26060295D02*
X70855914Y-26107914D01*
X70855914Y-26107914D02*
X70760676Y-26155533D01*
X70760676Y-26155533D02*
X70665438Y-26250771D01*
X70665438Y-26250771D02*
X70617819Y-26393628D01*
X70617819Y-26393628D02*
X70617819Y-26488866D01*
X70617819Y-26488866D02*
X70665438Y-26631723D01*
X70665438Y-26631723D02*
X70713057Y-26679342D01*
X70713057Y-27060295D02*
X70665438Y-27107914D01*
X70665438Y-27107914D02*
X70617819Y-27203152D01*
X70617819Y-27203152D02*
X70617819Y-27441247D01*
X70617819Y-27441247D02*
X70665438Y-27536485D01*
X70665438Y-27536485D02*
X70713057Y-27584104D01*
X70713057Y-27584104D02*
X70808295Y-27631723D01*
X70808295Y-27631723D02*
X70903533Y-27631723D01*
X70903533Y-27631723D02*
X71046390Y-27584104D01*
X71046390Y-27584104D02*
X71617819Y-27012676D01*
X71617819Y-27012676D02*
X71617819Y-27631723D01*
X71617819Y-28107914D02*
X71617819Y-28298390D01*
X71617819Y-28298390D02*
X71570200Y-28393628D01*
X71570200Y-28393628D02*
X71522580Y-28441247D01*
X71522580Y-28441247D02*
X71379723Y-28536485D01*
X71379723Y-28536485D02*
X71189247Y-28584104D01*
X71189247Y-28584104D02*
X70808295Y-28584104D01*
X70808295Y-28584104D02*
X70713057Y-28536485D01*
X70713057Y-28536485D02*
X70665438Y-28488866D01*
X70665438Y-28488866D02*
X70617819Y-28393628D01*
X70617819Y-28393628D02*
X70617819Y-28203152D01*
X70617819Y-28203152D02*
X70665438Y-28107914D01*
X70665438Y-28107914D02*
X70713057Y-28060295D01*
X70713057Y-28060295D02*
X70808295Y-28012676D01*
X70808295Y-28012676D02*
X71046390Y-28012676D01*
X71046390Y-28012676D02*
X71141628Y-28060295D01*
X71141628Y-28060295D02*
X71189247Y-28107914D01*
X71189247Y-28107914D02*
X71236866Y-28203152D01*
X71236866Y-28203152D02*
X71236866Y-28393628D01*
X71236866Y-28393628D02*
X71189247Y-28488866D01*
X71189247Y-28488866D02*
X71141628Y-28536485D01*
X71141628Y-28536485D02*
X71046390Y-28584104D01*
D13*
X74769704Y-26728819D02*
X74769704Y-27538342D01*
X74769704Y-27538342D02*
X74722085Y-27633580D01*
X74722085Y-27633580D02*
X74674466Y-27681200D01*
X74674466Y-27681200D02*
X74579228Y-27728819D01*
X74579228Y-27728819D02*
X74388752Y-27728819D01*
X74388752Y-27728819D02*
X74293514Y-27681200D01*
X74293514Y-27681200D02*
X74245895Y-27633580D01*
X74245895Y-27633580D02*
X74198276Y-27538342D01*
X74198276Y-27538342D02*
X74198276Y-26728819D01*
X73245895Y-26728819D02*
X73722085Y-26728819D01*
X73722085Y-26728819D02*
X73769704Y-27205009D01*
X73769704Y-27205009D02*
X73722085Y-27157390D01*
X73722085Y-27157390D02*
X73626847Y-27109771D01*
X73626847Y-27109771D02*
X73388752Y-27109771D01*
X73388752Y-27109771D02*
X73293514Y-27157390D01*
X73293514Y-27157390D02*
X73245895Y-27205009D01*
X73245895Y-27205009D02*
X73198276Y-27300247D01*
X73198276Y-27300247D02*
X73198276Y-27538342D01*
X73198276Y-27538342D02*
X73245895Y-27633580D01*
X73245895Y-27633580D02*
X73293514Y-27681200D01*
X73293514Y-27681200D02*
X73388752Y-27728819D01*
X73388752Y-27728819D02*
X73626847Y-27728819D01*
X73626847Y-27728819D02*
X73722085Y-27681200D01*
X73722085Y-27681200D02*
X73769704Y-27633580D01*
D15*
X116743132Y-27119800D02*
X116600275Y-27167419D01*
X116600275Y-27167419D02*
X116362180Y-27167419D01*
X116362180Y-27167419D02*
X116266942Y-27119800D01*
X116266942Y-27119800D02*
X116219323Y-27072180D01*
X116219323Y-27072180D02*
X116171704Y-26976942D01*
X116171704Y-26976942D02*
X116171704Y-26881704D01*
X116171704Y-26881704D02*
X116219323Y-26786466D01*
X116219323Y-26786466D02*
X116266942Y-26738847D01*
X116266942Y-26738847D02*
X116362180Y-26691228D01*
X116362180Y-26691228D02*
X116552656Y-26643609D01*
X116552656Y-26643609D02*
X116647894Y-26595990D01*
X116647894Y-26595990D02*
X116695513Y-26548371D01*
X116695513Y-26548371D02*
X116743132Y-26453133D01*
X116743132Y-26453133D02*
X116743132Y-26357895D01*
X116743132Y-26357895D02*
X116695513Y-26262657D01*
X116695513Y-26262657D02*
X116647894Y-26215038D01*
X116647894Y-26215038D02*
X116552656Y-26167419D01*
X116552656Y-26167419D02*
X116314561Y-26167419D01*
X116314561Y-26167419D02*
X116171704Y-26215038D01*
X115838370Y-26167419D02*
X115600275Y-27167419D01*
X115600275Y-27167419D02*
X115409799Y-26453133D01*
X115409799Y-26453133D02*
X115219323Y-27167419D01*
X115219323Y-27167419D02*
X114981228Y-26167419D01*
X114171704Y-26167419D02*
X114362180Y-26167419D01*
X114362180Y-26167419D02*
X114457418Y-26215038D01*
X114457418Y-26215038D02*
X114505037Y-26262657D01*
X114505037Y-26262657D02*
X114600275Y-26405514D01*
X114600275Y-26405514D02*
X114647894Y-26595990D01*
X114647894Y-26595990D02*
X114647894Y-26976942D01*
X114647894Y-26976942D02*
X114600275Y-27072180D01*
X114600275Y-27072180D02*
X114552656Y-27119800D01*
X114552656Y-27119800D02*
X114457418Y-27167419D01*
X114457418Y-27167419D02*
X114266942Y-27167419D01*
X114266942Y-27167419D02*
X114171704Y-27119800D01*
X114171704Y-27119800D02*
X114124085Y-27072180D01*
X114124085Y-27072180D02*
X114076466Y-26976942D01*
X114076466Y-26976942D02*
X114076466Y-26738847D01*
X114076466Y-26738847D02*
X114124085Y-26643609D01*
X114124085Y-26643609D02*
X114171704Y-26595990D01*
X114171704Y-26595990D02*
X114266942Y-26548371D01*
X114266942Y-26548371D02*
X114457418Y-26548371D01*
X114457418Y-26548371D02*
X114552656Y-26595990D01*
X114552656Y-26595990D02*
X114600275Y-26643609D01*
X114600275Y-26643609D02*
X114647894Y-26738847D01*
X69091980Y-31989354D02*
X68282457Y-31989354D01*
X68282457Y-31989354D02*
X68187219Y-31941735D01*
X68187219Y-31941735D02*
X68139600Y-31894116D01*
X68139600Y-31894116D02*
X68091980Y-31798878D01*
X68091980Y-31798878D02*
X68091980Y-31608402D01*
X68091980Y-31608402D02*
X68139600Y-31513164D01*
X68139600Y-31513164D02*
X68187219Y-31465545D01*
X68187219Y-31465545D02*
X68282457Y-31417926D01*
X68282457Y-31417926D02*
X69091980Y-31417926D01*
X68758647Y-30513164D02*
X68091980Y-30513164D01*
X69139600Y-30751259D02*
X68425314Y-30989354D01*
X68425314Y-30989354D02*
X68425314Y-30370307D01*
X65868019Y-29735200D02*
X66106114Y-29735200D01*
X66010876Y-29497105D02*
X66106114Y-29735200D01*
X66106114Y-29735200D02*
X66010876Y-29973295D01*
X66296590Y-29592343D02*
X66106114Y-29735200D01*
X66106114Y-29735200D02*
X66296590Y-29878057D01*
X69189657Y-36108230D02*
X69237276Y-36155850D01*
X69237276Y-36155850D02*
X69380133Y-36203469D01*
X69380133Y-36203469D02*
X69475371Y-36203469D01*
X69475371Y-36203469D02*
X69618228Y-36155850D01*
X69618228Y-36155850D02*
X69713466Y-36060611D01*
X69713466Y-36060611D02*
X69761085Y-35965373D01*
X69761085Y-35965373D02*
X69808704Y-35774897D01*
X69808704Y-35774897D02*
X69808704Y-35632040D01*
X69808704Y-35632040D02*
X69761085Y-35441564D01*
X69761085Y-35441564D02*
X69713466Y-35346326D01*
X69713466Y-35346326D02*
X69618228Y-35251088D01*
X69618228Y-35251088D02*
X69475371Y-35203469D01*
X69475371Y-35203469D02*
X69380133Y-35203469D01*
X69380133Y-35203469D02*
X69237276Y-35251088D01*
X69237276Y-35251088D02*
X69189657Y-35298707D01*
X68808704Y-35298707D02*
X68761085Y-35251088D01*
X68761085Y-35251088D02*
X68665847Y-35203469D01*
X68665847Y-35203469D02*
X68427752Y-35203469D01*
X68427752Y-35203469D02*
X68332514Y-35251088D01*
X68332514Y-35251088D02*
X68284895Y-35298707D01*
X68284895Y-35298707D02*
X68237276Y-35393945D01*
X68237276Y-35393945D02*
X68237276Y-35489183D01*
X68237276Y-35489183D02*
X68284895Y-35632040D01*
X68284895Y-35632040D02*
X68856323Y-36203469D01*
X68856323Y-36203469D02*
X68237276Y-36203469D01*
X67903942Y-35203469D02*
X67237276Y-35203469D01*
X67237276Y-35203469D02*
X67665847Y-36203469D01*
X66493380Y-26603142D02*
X66541000Y-26555523D01*
X66541000Y-26555523D02*
X66588619Y-26412666D01*
X66588619Y-26412666D02*
X66588619Y-26317428D01*
X66588619Y-26317428D02*
X66541000Y-26174571D01*
X66541000Y-26174571D02*
X66445761Y-26079333D01*
X66445761Y-26079333D02*
X66350523Y-26031714D01*
X66350523Y-26031714D02*
X66160047Y-25984095D01*
X66160047Y-25984095D02*
X66017190Y-25984095D01*
X66017190Y-25984095D02*
X65826714Y-26031714D01*
X65826714Y-26031714D02*
X65731476Y-26079333D01*
X65731476Y-26079333D02*
X65636238Y-26174571D01*
X65636238Y-26174571D02*
X65588619Y-26317428D01*
X65588619Y-26317428D02*
X65588619Y-26412666D01*
X65588619Y-26412666D02*
X65636238Y-26555523D01*
X65636238Y-26555523D02*
X65683857Y-26603142D01*
X65683857Y-26984095D02*
X65636238Y-27031714D01*
X65636238Y-27031714D02*
X65588619Y-27126952D01*
X65588619Y-27126952D02*
X65588619Y-27365047D01*
X65588619Y-27365047D02*
X65636238Y-27460285D01*
X65636238Y-27460285D02*
X65683857Y-27507904D01*
X65683857Y-27507904D02*
X65779095Y-27555523D01*
X65779095Y-27555523D02*
X65874333Y-27555523D01*
X65874333Y-27555523D02*
X66017190Y-27507904D01*
X66017190Y-27507904D02*
X66588619Y-26936476D01*
X66588619Y-26936476D02*
X66588619Y-27555523D01*
X66017190Y-28126952D02*
X65969571Y-28031714D01*
X65969571Y-28031714D02*
X65921952Y-27984095D01*
X65921952Y-27984095D02*
X65826714Y-27936476D01*
X65826714Y-27936476D02*
X65779095Y-27936476D01*
X65779095Y-27936476D02*
X65683857Y-27984095D01*
X65683857Y-27984095D02*
X65636238Y-28031714D01*
X65636238Y-28031714D02*
X65588619Y-28126952D01*
X65588619Y-28126952D02*
X65588619Y-28317428D01*
X65588619Y-28317428D02*
X65636238Y-28412666D01*
X65636238Y-28412666D02*
X65683857Y-28460285D01*
X65683857Y-28460285D02*
X65779095Y-28507904D01*
X65779095Y-28507904D02*
X65826714Y-28507904D01*
X65826714Y-28507904D02*
X65921952Y-28460285D01*
X65921952Y-28460285D02*
X65969571Y-28412666D01*
X65969571Y-28412666D02*
X66017190Y-28317428D01*
X66017190Y-28317428D02*
X66017190Y-28126952D01*
X66017190Y-28126952D02*
X66064809Y-28031714D01*
X66064809Y-28031714D02*
X66112428Y-27984095D01*
X66112428Y-27984095D02*
X66207666Y-27936476D01*
X66207666Y-27936476D02*
X66398142Y-27936476D01*
X66398142Y-27936476D02*
X66493380Y-27984095D01*
X66493380Y-27984095D02*
X66541000Y-28031714D01*
X66541000Y-28031714D02*
X66588619Y-28126952D01*
X66588619Y-28126952D02*
X66588619Y-28317428D01*
X66588619Y-28317428D02*
X66541000Y-28412666D01*
X66541000Y-28412666D02*
X66493380Y-28460285D01*
X66493380Y-28460285D02*
X66398142Y-28507904D01*
X66398142Y-28507904D02*
X66207666Y-28507904D01*
X66207666Y-28507904D02*
X66112428Y-28460285D01*
X66112428Y-28460285D02*
X66064809Y-28412666D01*
X66064809Y-28412666D02*
X66017190Y-28317428D01*
X95213954Y-47637466D02*
X95023478Y-47637466D01*
X95023478Y-47637466D02*
X94928240Y-47685085D01*
X94928240Y-47685085D02*
X94833002Y-47780323D01*
X94833002Y-47780323D02*
X94785383Y-47970799D01*
X94785383Y-47970799D02*
X94785383Y-48304132D01*
X94785383Y-48304132D02*
X94833002Y-48494608D01*
X94833002Y-48494608D02*
X94928240Y-48589847D01*
X94928240Y-48589847D02*
X95023478Y-48637466D01*
X95023478Y-48637466D02*
X95213954Y-48637466D01*
X95213954Y-48637466D02*
X95309192Y-48589847D01*
X95309192Y-48589847D02*
X95404430Y-48494608D01*
X95404430Y-48494608D02*
X95452049Y-48304132D01*
X95452049Y-48304132D02*
X95452049Y-47970799D01*
X95452049Y-47970799D02*
X95404430Y-47780323D01*
X95404430Y-47780323D02*
X95309192Y-47685085D01*
X95309192Y-47685085D02*
X95213954Y-47637466D01*
X94499668Y-47637466D02*
X94166335Y-48637466D01*
X94166335Y-48637466D02*
X93833002Y-47637466D01*
X93547287Y-47732704D02*
X93499668Y-47685085D01*
X93499668Y-47685085D02*
X93404430Y-47637466D01*
X93404430Y-47637466D02*
X93166335Y-47637466D01*
X93166335Y-47637466D02*
X93071097Y-47685085D01*
X93071097Y-47685085D02*
X93023478Y-47732704D01*
X93023478Y-47732704D02*
X92975859Y-47827942D01*
X92975859Y-47827942D02*
X92975859Y-47923180D01*
X92975859Y-47923180D02*
X93023478Y-48066037D01*
X93023478Y-48066037D02*
X93594906Y-48637466D01*
X93594906Y-48637466D02*
X92975859Y-48637466D01*
%TO.C,C29*%
D16*
X69118799Y-27475480D02*
X69118799Y-27194320D01*
X70138799Y-27475480D02*
X70138799Y-27194320D01*
%TO.C,U5*%
D13*
X72407800Y-25921411D02*
X75607800Y-25921411D01*
X75607800Y-28621411D01*
X72407800Y-28621411D01*
X72407800Y-25921411D01*
%TO.C,SW6*%
D17*
X114179800Y-25112600D02*
X116639800Y-25112600D01*
X114179800Y-28312600D02*
X116639800Y-28312600D01*
D18*
X112291800Y-27842600D02*
G75*
G02*
X112091800Y-27842600I-100000J0D01*
G01*
X112091800Y-27842600D02*
G75*
G02*
X112291800Y-27842600I100000J0D01*
G01*
%TO.C,U4*%
D19*
X66959300Y-32103750D02*
X66959300Y-30351150D01*
X70134300Y-30351150D02*
X70134300Y-32103750D01*
%TO.C,C27*%
D16*
X68370619Y-33784500D02*
X68651779Y-33784500D01*
X68370619Y-34804500D02*
X68651779Y-34804500D01*
%TO.C,C28*%
X67137599Y-27475480D02*
X67137599Y-27194320D01*
X68157599Y-27475480D02*
X68157599Y-27194320D01*
%TO.C,OV2*%
D17*
X103891000Y-36600800D02*
X103891000Y-59460800D01*
X108971000Y-36600800D02*
X103891000Y-36600800D01*
X108971000Y-36600800D02*
X108971000Y-59460800D01*
X108971000Y-59460800D02*
X103891000Y-59460800D01*
D13*
X76723600Y-30692094D02*
X111704311Y-30692094D01*
X111704311Y-65673200D01*
X76723600Y-65673200D01*
X76723600Y-30692094D01*
%TD*%
M02*
