%TF.GenerationSoftware,KiCad,Pcbnew,10.0.3*%
%TF.CreationDate,2026-09-21T19:48:30-04:00*%
%TF.ProjectId,camCAD_fourLayer_v2,63616d43-4144-45f6-966f-75724c617965,vSep26*%
%TF.SameCoordinates,Original*%
%TF.FileFunction,Soldermask,Bot*%
%TF.FilePolarity,Negative*%
%FSLAX46Y46*%
G04 Gerber Fmt 4.6, Leading zero omitted, Abs format (unit mm)*
G04 Created by KiCad (PCBNEW 10.0.3) date 2026-09-21 19:48:30*
%MOMM*%
%LPD*%
G01*
G04 APERTURE LIST*
G04 Aperture macros list*
%AMRoundRect*
0 Rectangle with rounded corners*
0 $1 Rounding radius*
0 $2 $3 $4 $5 $6 $7 $8 $9 X,Y pos of 4 corners*
0 Add a 4 corners polygon primitive as box body*
4,1,4,$2,$3,$4,$5,$6,$7,$8,$9,$2,$3,0*
0 Add four circle primitives for the rounded corners*
1,1,$1+$1,$2,$3*
1,1,$1+$1,$4,$5*
1,1,$1+$1,$6,$7*
1,1,$1+$1,$8,$9*
0 Add four rect primitives between the rounded corners*
20,1,$1+$1,$2,$3,$4,$5,0*
20,1,$1+$1,$4,$5,$6,$7,0*
20,1,$1+$1,$6,$7,$8,$9,0*
20,1,$1+$1,$8,$9,$2,$3,0*%
G04 Aperture macros list end*
%ADD10C,2.200000*%
%ADD11C,1.734000*%
%ADD12R,1.700000X1.700000*%
%ADD13C,1.700000*%
%ADD14C,0.740000*%
%ADD15O,1.204000X2.304000*%
%ADD16O,1.204000X2.004000*%
%ADD17C,0.508000*%
%ADD18RoundRect,0.102000X0.787500X-0.787500X0.787500X0.787500X-0.787500X0.787500X-0.787500X-0.787500X0*%
%ADD19C,1.779000*%
%ADD20RoundRect,0.225000X0.250000X-0.225000X0.250000X0.225000X-0.250000X0.225000X-0.250000X-0.225000X0*%
%ADD21R,0.800000X0.750000*%
%ADD22RoundRect,0.102000X-0.525000X-0.325000X0.525000X-0.325000X0.525000X0.325000X-0.525000X0.325000X0*%
%ADD23R,0.457200X1.079500*%
%ADD24RoundRect,0.225000X-0.225000X-0.250000X0.225000X-0.250000X0.225000X0.250000X-0.225000X0.250000X0*%
%ADD25C,3.500000*%
%ADD26C,1.728000*%
%ADD27RoundRect,0.102000X0.762000X0.762000X-0.762000X0.762000X-0.762000X-0.762000X0.762000X-0.762000X0*%
G04 APERTURE END LIST*
D10*
%TO.C,U6*%
X35323600Y-39920600D03*
X35323600Y-60240600D03*
X55643600Y-39920600D03*
X55643600Y-60240600D03*
D11*
X63009600Y-41190600D03*
X63009600Y-43730600D03*
X63009600Y-46270600D03*
X63009600Y-48810600D03*
X63009600Y-51350600D03*
X63009600Y-53890600D03*
X63009600Y-56430600D03*
X63009600Y-58970600D03*
%TD*%
D12*
%TO.C,J2*%
X66591000Y-72940600D03*
D13*
X66591000Y-70400600D03*
X66591000Y-67860600D03*
X66591000Y-65320600D03*
X66591000Y-62780600D03*
%TD*%
D14*
%TO.C,J1*%
X51813800Y-70927800D03*
X57593800Y-70927800D03*
D15*
X50383800Y-70427800D03*
X59023800Y-70427800D03*
D16*
X50383800Y-74607800D03*
X59023800Y-74607800D03*
%TD*%
D17*
%TO.C,U1*%
X45509000Y-30243200D03*
X45509000Y-31030600D03*
X46296400Y-30243200D03*
X46296400Y-31030600D03*
%TD*%
D18*
%TO.C,J3*%
X36492000Y-30040000D03*
D19*
X36492000Y-32540000D03*
%TD*%
D20*
%TO.C,C29*%
X69628799Y-28109900D03*
X69628799Y-26559900D03*
%TD*%
D21*
%TO.C,U5*%
X72657800Y-28011400D03*
X75357800Y-28001400D03*
X72657800Y-26541400D03*
X75357800Y-26541400D03*
%TD*%
D22*
%TO.C,SW6*%
X113334800Y-27787600D03*
X117484800Y-27787600D03*
X113334800Y-25637600D03*
X117484800Y-25637600D03*
%TD*%
D23*
%TO.C,U4*%
X67596799Y-29938400D03*
X68546800Y-29938400D03*
X69496801Y-29938400D03*
X69496801Y-32516500D03*
X68546800Y-32516500D03*
X67596799Y-32516500D03*
%TD*%
D24*
%TO.C,C27*%
X67736199Y-34294500D03*
X69286199Y-34294500D03*
%TD*%
D20*
%TO.C,C28*%
X67647599Y-28109900D03*
X67647599Y-26559900D03*
%TD*%
D25*
%TO.C,OV2*%
X109213600Y-63163200D03*
X109213600Y-33183200D03*
D26*
X107713600Y-58183200D03*
X107713600Y-55643200D03*
X107713600Y-53103200D03*
X107713600Y-50563200D03*
X107713600Y-48023200D03*
X107713600Y-45483200D03*
X107713600Y-42943200D03*
X107713600Y-40403200D03*
D27*
X107713600Y-37863200D03*
D26*
X105173600Y-37863200D03*
X105173600Y-40403200D03*
X105173600Y-42943200D03*
X105173600Y-45483200D03*
X105173600Y-48023200D03*
X105173600Y-50563200D03*
X105173600Y-53103200D03*
X105173600Y-55643200D03*
X105173600Y-58183200D03*
%TD*%
M02*
